<mxfile host="app.diagrams.net" modified="2022-02-28T05:08:32.168Z" agent="5.0 (Windows NT 10.0; Win64; x64) AppleWebKit/537.36 (KHTML, like Gecko) Chrome/96.0.4664.45 Safari/537.36" etag="WjDH5v9hVT2FdqxphYSz" version="16.6.3" type="github" pages="4">
  <diagram id="g7usEjnd5ee0Ly5ZbJtn" name="friction circle">
    <mxGraphModel dx="1550" dy="835" grid="1" gridSize="10" guides="1" tooltips="1" connect="1" arrows="1" fold="1" page="1" pageScale="1" pageWidth="850" pageHeight="1100" math="0" shadow="0">
      <root>
        <mxCell id="0" />
        <mxCell id="1" parent="0" />
        <mxCell id="mHfeLdO60Whc5sUE7WYw-44" value="" style="verticalLabelPosition=bottom;verticalAlign=top;html=1;shape=mxgraph.basic.arc;startAngle=0.25;endAngle=0.7467523907558127;labelBackgroundColor=none;fontFamily=Times New Roman;fontSize=11;fontColor=#000000;strokeColor=#000000;strokeWidth=1.5;" parent="1" vertex="1">
          <mxGeometry x="460" y="560" width="160" height="160" as="geometry" />
        </mxCell>
        <mxCell id="zeGIx0DeRolgVq0zqXq3-1" value="" style="endArrow=classic;startArrow=classic;" parent="1" edge="1">
          <mxGeometry width="50" height="50" relative="1" as="geometry">
            <mxPoint x="320" y="320" as="sourcePoint" />
            <mxPoint x="570" y="320" as="targetPoint" />
          </mxGeometry>
        </mxCell>
        <mxCell id="zeGIx0DeRolgVq0zqXq3-2" value="" style="endArrow=classic;startArrow=classic;" parent="1" edge="1">
          <mxGeometry width="50" height="50" relative="1" as="geometry">
            <mxPoint x="440" y="440" as="sourcePoint" />
            <mxPoint x="440" y="200" as="targetPoint" />
          </mxGeometry>
        </mxCell>
        <mxCell id="zeGIx0DeRolgVq0zqXq3-3" value="" style="ellipse;fillColor=none;aspect=fixed;" parent="1" vertex="1">
          <mxGeometry x="373" y="253" width="134" height="134" as="geometry" />
        </mxCell>
        <mxCell id="zeGIx0DeRolgVq0zqXq3-5" value="Fx" style="text;" parent="1" vertex="1">
          <mxGeometry x="450" y="200" width="40" height="30" as="geometry" />
        </mxCell>
        <mxCell id="zeGIx0DeRolgVq0zqXq3-6" value="Fy" style="text;" parent="1" vertex="1">
          <mxGeometry x="550" y="290" width="40" height="30" as="geometry" />
        </mxCell>
        <mxCell id="zeGIx0DeRolgVq0zqXq3-8" value="" style="verticalLabelPosition=bottom;verticalAlign=top;shape=mxgraph.basic.arc;startAngle=0.0016752533177237015;endAngle=0.5015914963824541;strokeWidth=3;fontColor=#ffffff;fillColor=none;strokeColor=#FF33FF;" parent="1" vertex="1">
          <mxGeometry x="373" y="253" width="133.858" height="133.858" as="geometry" />
        </mxCell>
        <mxCell id="zeGIx0DeRolgVq0zqXq3-10" value="" style="shape=ellipse;fillColor=#0065FF;strokeColor=none;" parent="1" vertex="1">
          <mxGeometry x="435" y="382" width="10" height="10" as="geometry" />
        </mxCell>
        <mxCell id="zeGIx0DeRolgVq0zqXq3-11" value="" style="shape=ellipse;fillColor=#0065FF;strokeColor=none;" parent="1" vertex="1">
          <mxGeometry x="501.93000000000006" y="315" width="10" height="10" as="geometry" />
        </mxCell>
        <mxCell id="zeGIx0DeRolgVq0zqXq3-14" value="" style="shape=ellipse;fillColor=#0065FF;strokeColor=none;" parent="1" vertex="1">
          <mxGeometry x="434.93" y="249" width="10" height="10" as="geometry" />
        </mxCell>
        <mxCell id="zeGIx0DeRolgVq0zqXq3-16" value="" style="endArrow=classic;endFill=0;" parent="1" edge="1">
          <mxGeometry width="50" height="50" relative="1" as="geometry">
            <mxPoint x="410" y="230" as="sourcePoint" />
            <mxPoint x="434" y="250" as="targetPoint" />
          </mxGeometry>
        </mxCell>
        <mxCell id="zeGIx0DeRolgVq0zqXq3-17" value="Maximum &#xa;Acceleration" style="edgeLabel;align=center;verticalAlign=middle;resizable=0;points=[];" parent="zeGIx0DeRolgVq0zqXq3-16" vertex="1" connectable="0">
          <mxGeometry x="-0.4575" relative="1" as="geometry">
            <mxPoint x="-23.74" y="-14.259999999999998" as="offset" />
          </mxGeometry>
        </mxCell>
        <mxCell id="zeGIx0DeRolgVq0zqXq3-19" value="" style="endArrow=classic;endFill=0;" parent="1" edge="1">
          <mxGeometry width="50" height="50" relative="1" as="geometry">
            <mxPoint x="410" y="410" as="sourcePoint" />
            <mxPoint x="433" y="393" as="targetPoint" />
          </mxGeometry>
        </mxCell>
        <mxCell id="zeGIx0DeRolgVq0zqXq3-20" value="Maximum &#xa;Deceleration " style="edgeLabel;align=center;verticalAlign=middle;resizable=0;points=[];" parent="zeGIx0DeRolgVq0zqXq3-19" vertex="1" connectable="0">
          <mxGeometry x="-0.4575" relative="1" as="geometry">
            <mxPoint x="-21.419999999999998" y="17.42" as="offset" />
          </mxGeometry>
        </mxCell>
        <mxCell id="zeGIx0DeRolgVq0zqXq3-22" value="" style="endArrow=classic;endFill=0;" parent="1" edge="1">
          <mxGeometry width="50" height="50" relative="1" as="geometry">
            <mxPoint x="530" y="340" as="sourcePoint" />
            <mxPoint x="512" y="325" as="targetPoint" />
          </mxGeometry>
        </mxCell>
        <mxCell id="zeGIx0DeRolgVq0zqXq3-23" value="Maximum &#xa;Cornering" style="edgeLabel;align=center;verticalAlign=middle;resizable=0;points=[];" parent="zeGIx0DeRolgVq0zqXq3-22" vertex="1" connectable="0">
          <mxGeometry x="-0.4575" relative="1" as="geometry">
            <mxPoint x="24.830000000000002" y="17.42" as="offset" />
          </mxGeometry>
        </mxCell>
        <mxCell id="mHfeLdO60Whc5sUE7WYw-1" value="" style="endArrow=classic;startArrow=none;labelBackgroundColor=none;" parent="1" source="mHfeLdO60Whc5sUE7WYw-16" edge="1">
          <mxGeometry width="50" height="50" relative="1" as="geometry">
            <mxPoint x="30" y="630" as="sourcePoint" />
            <mxPoint x="270" y="630" as="targetPoint" />
          </mxGeometry>
        </mxCell>
        <mxCell id="mHfeLdO60Whc5sUE7WYw-2" value="" style="endArrow=classic;startArrow=classic;labelBackgroundColor=none;" parent="1" edge="1">
          <mxGeometry width="50" height="50" relative="1" as="geometry">
            <mxPoint x="150" y="750" as="sourcePoint" />
            <mxPoint x="150" y="510" as="targetPoint" />
          </mxGeometry>
        </mxCell>
        <mxCell id="mHfeLdO60Whc5sUE7WYw-3" value="" style="ellipse;fillColor=none;aspect=fixed;strokeColor=#000000;strokeWidth=1.2;labelBackgroundColor=none;" parent="1" vertex="1">
          <mxGeometry x="70" y="550" width="160" height="160" as="geometry" />
        </mxCell>
        <mxCell id="mHfeLdO60Whc5sUE7WYw-7" value="" style="shape=ellipse;fillColor=#0065FF;strokeColor=none;labelBackgroundColor=none;" parent="1" vertex="1">
          <mxGeometry x="145" y="705" width="10" height="10" as="geometry" />
        </mxCell>
        <mxCell id="mHfeLdO60Whc5sUE7WYw-8" value="" style="shape=ellipse;fillColor=#0065FF;strokeColor=none;labelBackgroundColor=none;" parent="1" vertex="1">
          <mxGeometry x="224.93000000000006" y="625" width="10" height="10" as="geometry" />
        </mxCell>
        <mxCell id="mHfeLdO60Whc5sUE7WYw-9" value="" style="shape=ellipse;fillColor=#0065FF;strokeColor=none;labelBackgroundColor=none;" parent="1" vertex="1">
          <mxGeometry x="145" y="545" width="10" height="10" as="geometry" />
        </mxCell>
        <mxCell id="mHfeLdO60Whc5sUE7WYw-10" value="" style="endArrow=classic;endFill=0;labelBackgroundColor=none;" parent="1" edge="1">
          <mxGeometry width="50" height="50" relative="1" as="geometry">
            <mxPoint x="130" y="534" as="sourcePoint" />
            <mxPoint x="141" y="546" as="targetPoint" />
          </mxGeometry>
        </mxCell>
        <mxCell id="mHfeLdO60Whc5sUE7WYw-11" value="Maximum &#xa;Acceleration" style="edgeLabel;align=center;verticalAlign=middle;resizable=0;points=[];labelBackgroundColor=none;fontSize=8;" parent="mHfeLdO60Whc5sUE7WYw-10" vertex="1" connectable="0">
          <mxGeometry x="-0.4575" relative="1" as="geometry">
            <mxPoint x="-13" y="-15" as="offset" />
          </mxGeometry>
        </mxCell>
        <mxCell id="mHfeLdO60Whc5sUE7WYw-12" value="" style="endArrow=classic;endFill=0;labelBackgroundColor=none;" parent="1" edge="1">
          <mxGeometry width="50" height="50" relative="1" as="geometry">
            <mxPoint x="129" y="728" as="sourcePoint" />
            <mxPoint x="143" y="717" as="targetPoint" />
          </mxGeometry>
        </mxCell>
        <mxCell id="mHfeLdO60Whc5sUE7WYw-13" value="Maximum &#xa;Deceleration " style="edgeLabel;align=center;verticalAlign=middle;resizable=0;points=[];labelBackgroundColor=none;fontSize=8;" parent="mHfeLdO60Whc5sUE7WYw-12" vertex="1" connectable="0">
          <mxGeometry x="-0.4575" relative="1" as="geometry">
            <mxPoint x="-17" y="13" as="offset" />
          </mxGeometry>
        </mxCell>
        <mxCell id="mHfeLdO60Whc5sUE7WYw-14" value="" style="endArrow=classic;endFill=0;labelBackgroundColor=none;" parent="1" edge="1">
          <mxGeometry width="50" height="50" relative="1" as="geometry">
            <mxPoint x="244" y="653" as="sourcePoint" />
            <mxPoint x="236" y="637" as="targetPoint" />
          </mxGeometry>
        </mxCell>
        <mxCell id="mHfeLdO60Whc5sUE7WYw-15" value="Maximum &#xa;Right Cornering" style="edgeLabel;align=center;verticalAlign=middle;resizable=0;points=[];labelBackgroundColor=none;fontSize=8;" parent="mHfeLdO60Whc5sUE7WYw-14" vertex="1" connectable="0">
          <mxGeometry x="-0.4575" relative="1" as="geometry">
            <mxPoint x="11" y="14" as="offset" />
          </mxGeometry>
        </mxCell>
        <mxCell id="mHfeLdO60Whc5sUE7WYw-18" value="" style="endArrow=classic;endFill=0;labelBackgroundColor=none;" parent="1" edge="1">
          <mxGeometry width="50" height="50" relative="1" as="geometry">
            <mxPoint x="54" y="654" as="sourcePoint" />
            <mxPoint x="63" y="637" as="targetPoint" />
          </mxGeometry>
        </mxCell>
        <mxCell id="mHfeLdO60Whc5sUE7WYw-19" value="Maximum &#xa;Left Cornering" style="edgeLabel;align=center;verticalAlign=middle;resizable=0;points=[];labelBackgroundColor=none;fontSize=8;" parent="mHfeLdO60Whc5sUE7WYw-18" vertex="1" connectable="0">
          <mxGeometry x="-0.4575" relative="1" as="geometry">
            <mxPoint x="-7" y="13" as="offset" />
          </mxGeometry>
        </mxCell>
        <mxCell id="mHfeLdO60Whc5sUE7WYw-16" value="" style="shape=ellipse;fillColor=#0065FF;strokeColor=none;labelBackgroundColor=none;" parent="1" vertex="1">
          <mxGeometry x="65.00000000000006" y="625" width="10" height="10" as="geometry" />
        </mxCell>
        <mxCell id="mHfeLdO60Whc5sUE7WYw-20" value="" style="endArrow=none;startArrow=classic;labelBackgroundColor=none;" parent="1" target="mHfeLdO60Whc5sUE7WYw-16" edge="1">
          <mxGeometry width="50" height="50" relative="1" as="geometry">
            <mxPoint x="30" y="630" as="sourcePoint" />
            <mxPoint x="270" y="630" as="targetPoint" />
          </mxGeometry>
        </mxCell>
        <mxCell id="mHfeLdO60Whc5sUE7WYw-23" value="" style="endArrow=classic;startArrow=none;labelBackgroundColor=none;" parent="1" source="mHfeLdO60Whc5sUE7WYw-37" edge="1">
          <mxGeometry width="50" height="50" relative="1" as="geometry">
            <mxPoint x="420" y="640" as="sourcePoint" />
            <mxPoint x="660" y="640" as="targetPoint" />
          </mxGeometry>
        </mxCell>
        <mxCell id="mHfeLdO60Whc5sUE7WYw-26" value="" style="shape=ellipse;fillColor=#0065FF;strokeColor=none;labelBackgroundColor=none;" parent="1" vertex="1">
          <mxGeometry x="535" y="715" width="10" height="10" as="geometry" />
        </mxCell>
        <mxCell id="mHfeLdO60Whc5sUE7WYw-31" value="" style="endArrow=classic;endFill=0;labelBackgroundColor=none;" parent="1" edge="1">
          <mxGeometry width="50" height="50" relative="1" as="geometry">
            <mxPoint x="519" y="738" as="sourcePoint" />
            <mxPoint x="533" y="727" as="targetPoint" />
          </mxGeometry>
        </mxCell>
        <mxCell id="mHfeLdO60Whc5sUE7WYw-32" value="Maximum &#xa;Deceleration " style="edgeLabel;align=center;verticalAlign=middle;resizable=0;points=[];labelBackgroundColor=none;fontSize=8;" parent="mHfeLdO60Whc5sUE7WYw-31" vertex="1" connectable="0">
          <mxGeometry x="-0.4575" relative="1" as="geometry">
            <mxPoint x="-17" y="13" as="offset" />
          </mxGeometry>
        </mxCell>
        <mxCell id="mHfeLdO60Whc5sUE7WYw-33" value="" style="endArrow=classic;endFill=0;labelBackgroundColor=none;" parent="1" edge="1">
          <mxGeometry width="50" height="50" relative="1" as="geometry">
            <mxPoint x="634" y="663" as="sourcePoint" />
            <mxPoint x="626" y="647" as="targetPoint" />
          </mxGeometry>
        </mxCell>
        <mxCell id="mHfeLdO60Whc5sUE7WYw-34" value="Maximum&#xa;Right Cornering" style="edgeLabel;align=center;verticalAlign=middle;resizable=0;points=[];labelBackgroundColor=none;fontSize=8;" parent="mHfeLdO60Whc5sUE7WYw-33" vertex="1" connectable="0">
          <mxGeometry x="-0.4575" relative="1" as="geometry">
            <mxPoint x="12" y="14" as="offset" />
          </mxGeometry>
        </mxCell>
        <mxCell id="mHfeLdO60Whc5sUE7WYw-35" value="" style="endArrow=classic;endFill=0;labelBackgroundColor=none;" parent="1" edge="1">
          <mxGeometry width="50" height="50" relative="1" as="geometry">
            <mxPoint x="444" y="664" as="sourcePoint" />
            <mxPoint x="453" y="647" as="targetPoint" />
          </mxGeometry>
        </mxCell>
        <mxCell id="mHfeLdO60Whc5sUE7WYw-36" value="Maximum&#xa;Left Cornering" style="edgeLabel;align=center;verticalAlign=middle;resizable=0;points=[];labelBackgroundColor=none;fontSize=8;" parent="mHfeLdO60Whc5sUE7WYw-35" vertex="1" connectable="0">
          <mxGeometry x="-0.4575" relative="1" as="geometry">
            <mxPoint x="-7" y="13" as="offset" />
          </mxGeometry>
        </mxCell>
        <mxCell id="mHfeLdO60Whc5sUE7WYw-38" value="" style="endArrow=none;startArrow=classic;labelBackgroundColor=none;" parent="1" target="mHfeLdO60Whc5sUE7WYw-37" edge="1">
          <mxGeometry width="50" height="50" relative="1" as="geometry">
            <mxPoint x="420" y="640" as="sourcePoint" />
            <mxPoint x="660" y="640" as="targetPoint" />
          </mxGeometry>
        </mxCell>
        <mxCell id="mHfeLdO60Whc5sUE7WYw-24" value="" style="endArrow=classic;startArrow=classic;labelBackgroundColor=none;" parent="1" edge="1">
          <mxGeometry width="50" height="50" relative="1" as="geometry">
            <mxPoint x="540" y="760" as="sourcePoint" />
            <mxPoint x="540" y="540" as="targetPoint" />
          </mxGeometry>
        </mxCell>
        <mxCell id="mHfeLdO60Whc5sUE7WYw-37" value="" style="shape=ellipse;fillColor=#0065FF;strokeColor=none;labelBackgroundColor=none;" parent="1" vertex="1">
          <mxGeometry x="455" y="635" width="10" height="10" as="geometry" />
        </mxCell>
        <mxCell id="mHfeLdO60Whc5sUE7WYw-27" value="" style="shape=ellipse;fillColor=#0065FF;strokeColor=none;labelBackgroundColor=none;" parent="1" vertex="1">
          <mxGeometry x="614.9300000000001" y="635" width="10" height="10" as="geometry" />
        </mxCell>
        <mxCell id="mHfeLdO60Whc5sUE7WYw-41" value="" style="endArrow=none;html=1;rounded=0;labelBackgroundColor=none;fontFamily=Times New Roman;fontSize=11;fontColor=#000000;strokeWidth=1.5;" parent="1" source="mHfeLdO60Whc5sUE7WYw-37" target="mHfeLdO60Whc5sUE7WYw-27" edge="1">
          <mxGeometry width="50" height="50" relative="1" as="geometry">
            <mxPoint x="600" y="660" as="sourcePoint" />
            <mxPoint x="650" y="610" as="targetPoint" />
          </mxGeometry>
        </mxCell>
        <mxCell id="mHfeLdO60Whc5sUE7WYw-45" value="" style="verticalLabelPosition=bottom;verticalAlign=top;html=1;shape=mxgraph.basic.arc;startAngle=0.25;endAngle=0.7467523907558127;labelBackgroundColor=none;fontFamily=Times New Roman;fontSize=11;fontColor=#000000;strokeColor=#000000;strokeWidth=1.5;dashed=1;" parent="1" vertex="1">
          <mxGeometry x="140" y="840" width="160" height="160" as="geometry" />
        </mxCell>
        <mxCell id="mHfeLdO60Whc5sUE7WYw-46" value="" style="endArrow=classic;startArrow=none;labelBackgroundColor=none;" parent="1" source="mHfeLdO60Whc5sUE7WYw-56" edge="1">
          <mxGeometry width="50" height="50" relative="1" as="geometry">
            <mxPoint x="100" y="920" as="sourcePoint" />
            <mxPoint x="340" y="920" as="targetPoint" />
          </mxGeometry>
        </mxCell>
        <mxCell id="mHfeLdO60Whc5sUE7WYw-50" value="" style="endArrow=classic;endFill=0;labelBackgroundColor=none;" parent="1" edge="1">
          <mxGeometry width="50" height="50" relative="1" as="geometry">
            <mxPoint x="314" y="943" as="sourcePoint" />
            <mxPoint x="306" y="927" as="targetPoint" />
          </mxGeometry>
        </mxCell>
        <mxCell id="mHfeLdO60Whc5sUE7WYw-51" value="Maximum&#xa;Right Cornering" style="edgeLabel;align=center;verticalAlign=middle;resizable=0;points=[];labelBackgroundColor=none;fontSize=8;" parent="mHfeLdO60Whc5sUE7WYw-50" vertex="1" connectable="0">
          <mxGeometry x="-0.4575" relative="1" as="geometry">
            <mxPoint x="11" y="14" as="offset" />
          </mxGeometry>
        </mxCell>
        <mxCell id="mHfeLdO60Whc5sUE7WYw-52" value="" style="endArrow=classic;endFill=0;labelBackgroundColor=none;" parent="1" edge="1">
          <mxGeometry width="50" height="50" relative="1" as="geometry">
            <mxPoint x="124" y="944" as="sourcePoint" />
            <mxPoint x="133" y="927" as="targetPoint" />
          </mxGeometry>
        </mxCell>
        <mxCell id="mHfeLdO60Whc5sUE7WYw-53" value="Maximum&#xa;Left Cornering" style="edgeLabel;align=center;verticalAlign=middle;resizable=0;points=[];labelBackgroundColor=none;fontSize=8;" parent="mHfeLdO60Whc5sUE7WYw-52" vertex="1" connectable="0">
          <mxGeometry x="-0.4575" relative="1" as="geometry">
            <mxPoint x="-7" y="13" as="offset" />
          </mxGeometry>
        </mxCell>
        <mxCell id="mHfeLdO60Whc5sUE7WYw-54" value="" style="endArrow=none;startArrow=classic;labelBackgroundColor=none;" parent="1" target="mHfeLdO60Whc5sUE7WYw-56" edge="1">
          <mxGeometry width="50" height="50" relative="1" as="geometry">
            <mxPoint x="100" y="920" as="sourcePoint" />
            <mxPoint x="340" y="920" as="targetPoint" />
          </mxGeometry>
        </mxCell>
        <mxCell id="mHfeLdO60Whc5sUE7WYw-55" value="" style="endArrow=classic;startArrow=classic;labelBackgroundColor=none;" parent="1" edge="1">
          <mxGeometry width="50" height="50" relative="1" as="geometry">
            <mxPoint x="220" y="1040" as="sourcePoint" />
            <mxPoint x="220" y="820" as="targetPoint" />
          </mxGeometry>
        </mxCell>
        <mxCell id="mHfeLdO60Whc5sUE7WYw-56" value="" style="shape=ellipse;fillColor=#0065FF;strokeColor=none;labelBackgroundColor=none;" parent="1" vertex="1">
          <mxGeometry x="135" y="915" width="10" height="10" as="geometry" />
        </mxCell>
        <mxCell id="mHfeLdO60Whc5sUE7WYw-57" value="" style="shape=ellipse;fillColor=#0065FF;strokeColor=none;labelBackgroundColor=none;" parent="1" vertex="1">
          <mxGeometry x="294.93000000000006" y="915" width="10" height="10" as="geometry" />
        </mxCell>
        <mxCell id="mHfeLdO60Whc5sUE7WYw-58" value="" style="endArrow=none;html=1;rounded=0;labelBackgroundColor=none;fontFamily=Times New Roman;fontSize=11;fontColor=#000000;strokeWidth=2;" parent="1" source="mHfeLdO60Whc5sUE7WYw-56" target="mHfeLdO60Whc5sUE7WYw-57" edge="1">
          <mxGeometry width="50" height="50" relative="1" as="geometry">
            <mxPoint x="280" y="940" as="sourcePoint" />
            <mxPoint x="330" y="890" as="targetPoint" />
          </mxGeometry>
        </mxCell>
        <mxCell id="mHfeLdO60Whc5sUE7WYw-60" value="" style="endArrow=classic;startArrow=none;labelBackgroundColor=none;" parent="1" source="mHfeLdO60Whc5sUE7WYw-70" edge="1">
          <mxGeometry width="50" height="50" relative="1" as="geometry">
            <mxPoint x="370" y="920" as="sourcePoint" />
            <mxPoint x="610.0000000000002" y="920" as="targetPoint" />
          </mxGeometry>
        </mxCell>
        <mxCell id="mHfeLdO60Whc5sUE7WYw-64" value="" style="endArrow=classic;endFill=0;labelBackgroundColor=none;" parent="1" edge="1">
          <mxGeometry width="50" height="50" relative="1" as="geometry">
            <mxPoint x="584" y="943" as="sourcePoint" />
            <mxPoint x="576" y="927" as="targetPoint" />
          </mxGeometry>
        </mxCell>
        <mxCell id="mHfeLdO60Whc5sUE7WYw-65" value="Maximum&#xa;Right Cornering" style="edgeLabel;align=center;verticalAlign=middle;resizable=0;points=[];labelBackgroundColor=none;fontSize=8;" parent="mHfeLdO60Whc5sUE7WYw-64" vertex="1" connectable="0">
          <mxGeometry x="-0.4575" relative="1" as="geometry">
            <mxPoint x="7" y="14" as="offset" />
          </mxGeometry>
        </mxCell>
        <mxCell id="mHfeLdO60Whc5sUE7WYw-66" value="" style="endArrow=classic;endFill=0;labelBackgroundColor=none;" parent="1" edge="1">
          <mxGeometry width="50" height="50" relative="1" as="geometry">
            <mxPoint x="394" y="944" as="sourcePoint" />
            <mxPoint x="403" y="927" as="targetPoint" />
          </mxGeometry>
        </mxCell>
        <mxCell id="mHfeLdO60Whc5sUE7WYw-67" value="Maximum&#xa;Left Cornering" style="edgeLabel;align=center;verticalAlign=middle;resizable=0;points=[];labelBackgroundColor=none;fontSize=8;" parent="mHfeLdO60Whc5sUE7WYw-66" vertex="1" connectable="0">
          <mxGeometry x="-0.4575" relative="1" as="geometry">
            <mxPoint x="-7" y="13" as="offset" />
          </mxGeometry>
        </mxCell>
        <mxCell id="mHfeLdO60Whc5sUE7WYw-68" value="" style="endArrow=none;startArrow=classic;labelBackgroundColor=none;" parent="1" target="mHfeLdO60Whc5sUE7WYw-70" edge="1">
          <mxGeometry width="50" height="50" relative="1" as="geometry">
            <mxPoint x="370" y="920" as="sourcePoint" />
            <mxPoint x="610" y="920" as="targetPoint" />
          </mxGeometry>
        </mxCell>
        <mxCell id="mHfeLdO60Whc5sUE7WYw-69" value="" style="endArrow=classic;startArrow=classic;labelBackgroundColor=none;" parent="1" edge="1">
          <mxGeometry width="50" height="50" relative="1" as="geometry">
            <mxPoint x="490.0000000000002" y="1039.9999999999998" as="sourcePoint" />
            <mxPoint x="490.0000000000002" y="820" as="targetPoint" />
          </mxGeometry>
        </mxCell>
        <mxCell id="mHfeLdO60Whc5sUE7WYw-70" value="" style="shape=ellipse;fillColor=#0065FF;strokeColor=none;labelBackgroundColor=none;" parent="1" vertex="1">
          <mxGeometry x="405" y="915" width="10" height="10" as="geometry" />
        </mxCell>
        <mxCell id="mHfeLdO60Whc5sUE7WYw-71" value="" style="shape=ellipse;fillColor=#0065FF;strokeColor=none;labelBackgroundColor=none;" parent="1" vertex="1">
          <mxGeometry x="564.9300000000001" y="915" width="10" height="10" as="geometry" />
        </mxCell>
        <mxCell id="mHfeLdO60Whc5sUE7WYw-72" value="" style="endArrow=none;html=1;rounded=0;labelBackgroundColor=none;fontFamily=Times New Roman;fontSize=11;fontColor=#000000;strokeWidth=2;" parent="1" source="mHfeLdO60Whc5sUE7WYw-70" target="mHfeLdO60Whc5sUE7WYw-71" edge="1">
          <mxGeometry width="50" height="50" relative="1" as="geometry">
            <mxPoint x="550" y="940" as="sourcePoint" />
            <mxPoint x="600" y="890" as="targetPoint" />
          </mxGeometry>
        </mxCell>
      </root>
    </mxGraphModel>
  </diagram>
  <diagram id="X77Ue-ZlXGN9faTH996L" name="CAV network">
    <mxGraphModel dx="1422" dy="762" grid="0" gridSize="10" guides="1" tooltips="1" connect="1" arrows="1" fold="1" page="1" pageScale="1" pageWidth="850" pageHeight="1100" math="0" shadow="0">
      <root>
        <mxCell id="i4RcE1fr88npL_jNl3nU-0" />
        <mxCell id="i4RcE1fr88npL_jNl3nU-1" parent="i4RcE1fr88npL_jNl3nU-0" />
        <mxCell id="KYlF_QpYy4DrjIpC-7zn-132" value="" style="shape=image;verticalLabelPosition=bottom;labelBackgroundColor=#ffffff;verticalAlign=top;aspect=fixed;imageAspect=0;image=data:image/svg+xml,PHN2ZyB4bWxucz0iaHR0cDovL3d3dy53My5vcmcvMjAwMC9zdmciIHhtbG5zOnhsaW5rPSJodHRwOi8vd3d3LnczLm9yZy8xOTk5L3hsaW5rIiB3aWR0aD0iMTE1NS4yMDU5MzI2MTcxODc1IiBoZWlnaHQ9IjI2MC43MzkzMTg4NDc2NTYyNSIgb3ZlcmZsb3c9ImhpZGRlbiIgdmlld0JveD0iMTcuMzk1NjQ4OTU2Mjk4ODI4IDEuNTgxNjgwMjk3ODUxNTYyNSAxMTU1LjIwNTkzMjYxNzE4NzUgMjYwLjczOTMxODg0NzY1NjI1Ij48ZGVmcz48Y2xpcFBhdGggaWQ9ImNsaXAwIj48cmVjdCB4PSIxNyIgeT0iMTkwIiB3aWR0aD0iMTE5MCIgaGVpZ2h0PSIzMTAiLz48L2NsaXBQYXRoPjxjbGlwUGF0aCBpZD0iY2xpcDEiPjxyZWN0IHg9IjE4IiB5PSIxOTEiIHdpZHRoPSIxMTg4IiBoZWlnaHQ9IjMwOCIvPjwvY2xpcFBhdGg+PGNsaXBQYXRoIGlkPSJjbGlwMiI+PHJlY3QgeD0iMTgiIHk9IjE5MSIgd2lkdGg9IjExODgiIGhlaWdodD0iMzA4Ii8+PC9jbGlwUGF0aD48Y2xpcFBhdGggaWQ9ImNsaXAzIj48cmVjdCB4PSIxOCIgeT0iMTkxIiB3aWR0aD0iMTE4OCIgaGVpZ2h0PSIzMDgiLz48L2NsaXBQYXRoPjwvZGVmcz48ZyBjbGlwLXBhdGg9InVybCgjY2xpcDApIiB0cmFuc2Zvcm09InRyYW5zbGF0ZSgtMTcgLTE5MCkiPjxnIGNsaXAtcGF0aD0idXJsKCNjbGlwMSkiPjxnIGNsaXAtcGF0aD0idXJsKCNjbGlwMikiPjxnIGNsaXAtcGF0aD0idXJsKCNjbGlwMykiPjxwYXRoIGQ9Ik00NDQuNzg2IDI1OC4wNyAzNC4yMjIyIDI1OC4wN0MxMS40MDc0IDI1OC4wNyA4LjU2Njk2IDI1MC41MjkgMjUuNzAwOSAyMzUuNDQ5TDI2OC44MTYgMjEuNDkxNkMyODUuOTQ5IDYuNDEwOTYgMzA1LjkyNC0xLjEyOTMzIDMyOC43MzktMS4xMjkzM0wxMTQ5Ljg3LTEuMTI5MzNDMTE3Mi42OC0xLjEyOTMzIDExNzUuNTIgNi40MTA5NiAxMTU4LjM5IDIxLjQ5MTZMOTE1LjI3MyAyMzUuNDQ5Qzg5OC4xMzkgMjUwLjUyOSA4NzguMTY1IDI1OC4wNyA4NTUuMzUgMjU4LjA3WiIgc3Ryb2tlPSIjMzYzOTNEIiBzdHJva2Utd2lkdGg9IjMuNDIyMjIiIHN0cm9rZS1taXRlcmxpbWl0PSIxMCIgZmlsbD0iI0NERUI4QiIgdHJhbnNmb3JtPSJtYXRyaXgoMS4wMDA0MSAwIDAgMSAxOS43MTE4IDE5Mi43MTEpIi8+PHBhdGggZD0iTTgyLjIwMTggMTg4LjQ5NiAyODEuNjQ5IDExLjE5MDcgMTE2NS45OSAxMS4xOTA3IDk2Ni41MzggMTg4LjQ5NloiIGZpbGw9IiM4MDgwODAiIHRyYW5zZm9ybT0ibWF0cml4KDEuMDAwNDEgMCAwIDEgMTkuNzExOCAxOTIuNzExKSIvPjxwYXRoIGQ9Ik0yODQuMDQ0IDEzLjU1MiAxMTYyLjU2IDEzLjk2MjciIHN0cm9rZT0iI0ZGOTkzMyIgc3Ryb2tlLXdpZHRoPSIxMC4yNjY3IiBzdHJva2UtbWl0ZXJsaW1pdD0iMTAiIGZpbGw9Im5vbmUiIHRyYW5zZm9ybT0ibWF0cml4KDEuMDAwNDEgMCAwIDEgMTkuNzExOCAxOTIuNzExKSIvPjxwYXRoIGQ9Ik0xOTMuMTE2IDY1LjA5MDcgODE3LjEyNCA2NS41MDEzIiBzdHJva2U9IiNGRkZGRkYiIHN0cm9rZS13aWR0aD0iMTAuMjY2NyIgc3Ryb2tlLW1pdGVybGltaXQ9IjEwIiBzdHJva2UtZGFzaGFycmF5PSIzMC44IDMwLjgiIGZpbGw9Im5vbmUiIHRyYW5zZm9ybT0ibWF0cml4KDEuMDAwNDEgMCAwIDEgMTkuNzExOCAxOTIuNzExKSIvPjxwYXRoIGQ9Ik0xNDcuMTIxIDExNi42MjkgNDU5LjM2NSAxMTYuNjI5IiBzdHJva2U9IiNGRkZGRkYiIHN0cm9rZS13aWR0aD0iMTAuMjY2NyIgc3Ryb2tlLW1pdGVybGltaXQ9IjEwIiBmaWxsPSJub25lIiB0cmFuc2Zvcm09Im1hdHJpeCgxLjAwMDQxIDAgMCAxIDE5LjcxMTggMTkyLjcxMSkiLz48cGF0aCBkPSJNNDkxLjAyIDExOC45NTYgNzMwLjY3OSAxMTkuNzc4IiBzdHJva2U9IiNGRkZGRkYiIHN0cm9rZS13aWR0aD0iMTAuMjY2NyIgc3Ryb2tlLW1pdGVybGltaXQ9IjEwIiBzdHJva2UtZGFzaGFycmF5PSIzMC44IDMwLjgiIGZpbGw9Im5vbmUiIHRyYW5zZm9ybT0ibWF0cml4KDEuMDAwNDEgMCAwIDEgMTkuNzExOCAxOTIuNzExKSIvPjxwYXRoIGQ9Ik03MjMuODM0IDExOS43NzggMTA2OS40OCAxMTguOTU2IiBzdHJva2U9IiNGRkZGRkYiIHN0cm9rZS13aWR0aD0iMTAuMjY2NyIgc3Ryb2tlLW1pdGVybGltaXQ9IjEwIiBmaWxsPSJub25lIiB0cmFuc2Zvcm09Im1hdHJpeCgxLjAwMDQxIDAgMCAxIDE5LjcxMTggMTkyLjcxMSkiLz48cGF0aCBkPSJNNzAzLjQwNCA4OS4yNTE2IDcyMi42MDIgODkuMjUxNiIgc3Ryb2tlPSIjRkZGRkZGIiBzdHJva2Utd2lkdGg9IjMuNDIyMjIiIHN0cm9rZS1taXRlcmxpbWl0PSIxMCIgZmlsbD0ibm9uZSIgdHJhbnNmb3JtPSJtYXRyaXgoMS4wMDA0MSAwIDAgMSAxOS43MTE4IDE5Mi43MTEpIi8+PHBhdGggZD0iTTczMi44NjkgODkuMjUxNiA3MjIuNjAyIDkyLjY3MzggNzIyLjYwMiA4NS44MjkzWiIgc3Ryb2tlPSIjRkZGRkZGIiBzdHJva2Utd2lkdGg9IjMuNDIyMjIiIHN0cm9rZS1taXRlcmxpbWl0PSIxMCIgZmlsbD0iI0ZGRkZGRiIgdHJhbnNmb3JtPSJtYXRyaXgoMS4wMDA0MSAwIDAgMSAxOS43MTE4IDE5Mi43MTEpIi8+PHBhdGggZD0iTTc1OC41MzYgMzcuNDczMyA3NzcuNyAzNy40NzMzIiBzdHJva2U9IiNGRkZGRkYiIHN0cm9rZS13aWR0aD0iMy40MjIyMiIgc3Ryb2tlLW1pdGVybGltaXQ9IjEwIiBmaWxsPSJub25lIiB0cmFuc2Zvcm09Im1hdHJpeCgxLjAwMDQxIDAgMCAxIDE5LjcxMTggMTkyLjcxMSkiLz48cGF0aCBkPSJNNzg3Ljk2NyAzNy40NzMzIDc3Ny43IDQwLjg5NTYgNzc3LjcgMzQuMDUxMVoiIHN0cm9rZT0iI0ZGRkZGRiIgc3Ryb2tlLXdpZHRoPSIzLjQyMjIyIiBzdHJva2UtbWl0ZXJsaW1pdD0iMTAiIGZpbGw9IiNGRkZGRkYiIHRyYW5zZm9ybT0ibWF0cml4KDEuMDAwNDEgMCAwIDEgMTkuNzExOCAxOTIuNzExKSIvPjxwYXRoIGQ9Ik00MDAuNDM0IDM3LjA2MjcgNDE5LjU5OSAzNy4wNjI3IiBzdHJva2U9IiNGRkZGRkYiIHN0cm9rZS13aWR0aD0iMy40MjIyMiIgc3Ryb2tlLW1pdGVybGltaXQ9IjEwIiBmaWxsPSJub25lIiB0cmFuc2Zvcm09Im1hdHJpeCgxLjAwMDQxIDAgMCAxIDE5LjcxMTggMTkyLjcxMSkiLz48cGF0aCBkPSJNNDI5Ljg2NSAzNy4wNjI3IDQxOS41OTkgNDAuNDg0OSA0MTkuNTk5IDMzLjY0MDRaIiBzdHJva2U9IiNGRkZGRkYiIHN0cm9rZS13aWR0aD0iMy40MjIyMiIgc3Ryb2tlLW1pdGVybGltaXQ9IjEwIiBmaWxsPSIjRkZGRkZGIiB0cmFuc2Zvcm09Im1hdHJpeCgxLjAwMDQxIDAgMCAxIDE5LjcxMTggMTkyLjcxMSkiLz48cGF0aCBkPSJNODMwLjk4NCA2NS4wOTA3IDExMTYuNjQgNjUuMDkwNyIgc3Ryb2tlPSIjRkZGRkZGIiBzdHJva2Utd2lkdGg9IjEwLjI2NjciIHN0cm9rZS1taXRlcmxpbWl0PSIxMCIgZmlsbD0ibm9uZSIgdHJhbnNmb3JtPSJtYXRyaXgoMS4wMDA0MSAwIDAgMSAxOS43MTE4IDE5Mi43MTEpIi8+PHBhdGggZD0iTTczMC4zMDIgMTc4LjAyNCA3NjIuMyAxOTUuNjQ4Qzc4Mi4yODYgMjA2LjY2OCA3OTIuMjU2IDIxOS43ODcgNzkyLjIxIDIzNS4wMDRMNzkyLjE0MiAyNTcuNzk2IiBzdHJva2U9IiM4MDgwODAiIHN0cm9rZS13aWR0aD0iODUuNTU1NiIgc3Ryb2tlLW1pdGVybGltaXQ9IjEwIiBmaWxsPSJub25lIiB0cmFuc2Zvcm09Im1hdHJpeCgxLjAwMDQxIDAgMCAxIDE5LjcxMTggMTkyLjcxMSkiLz48cGF0aCBkPSJNNjE0LjMyMyAxNzguMDI0IDY1OC40MzYgMTk4LjA0NEM2NzkuMjIgMjA3LjQ2NyA2OTUuMjU5IDIyMC4wODMgNzA2LjU1MiAyMzUuODk0TDcyMy40OTIgMjU5LjYxIiBzdHJva2U9IiM4MDgwODAiIHN0cm9rZS13aWR0aD0iMTcuMTExMSIgc3Ryb2tlLW1pdGVybGltaXQ9IjEwIiBmaWxsPSJub25lIiB0cmFuc2Zvcm09Im1hdHJpeCgxLjAwMDQxIDAgMCAxIDE5LjcxMTggMTkyLjcxMSkiLz48cGF0aCBkPSJNNjk2LjQ1NiAxNzEuMTExIDcyOC40NTQgMTg4LjczNkM3NDguNDQgMTk5Ljc1NSA3NTguNDEgMjEyLjg3NCA3NTguMzY0IDIyOC4wOTFMNzU4LjI5NiAyNTAuODgzIiBzdHJva2U9IiM4MDgwODAiIHN0cm9rZS13aWR0aD0iMTcuMTExMSIgc3Ryb2tlLW1pdGVybGltaXQ9IjEwIiBmaWxsPSJub25lIiB0cmFuc2Zvcm09Im1hdHJpeCgxLjAwMDQxIDAgMCAxIDE5LjcxMTggMTkyLjcxMSkiLz48cGF0aCBkPSJNNzcxLjc0NSAxNDAuMzExIDc5Ny40MTIgMTYwLjg0NEM4MTQuNTIzIDE3NC41MzMgODI1LjkzMSAxODkuMzYzIDgzMS42MzQgMjA1LjMzM0w4MzUuOTEyIDIxNy4zMTFDODM4Ljc2NCAyMjUuMjk2IDg0MC4wOTkgMjM0LjI2MyA4MzkuOTE2IDI0NC4yMUw4MzkuNjQyIDI1OS4wOTYiIHN0cm9rZT0iIzgwODA4MCIgc3Ryb2tlLXdpZHRoPSIxNy4xMTExIiBzdHJva2UtbWl0ZXJsaW1pdD0iMTAiIGZpbGw9Im5vbmUiIHRyYW5zZm9ybT0ibWF0cml4KDEuMDAwNDEgMCAwIDEgMTkuNzExOCAxOTIuNzExKSIvPjxwYXRoIGQ9Ik03OTUuNzAxIDE2NC4yNjcgODE0LjcyOCAxODguMzU5QzgyNy4zOTEgMjA0LjQyMSA4MzMuNjk5IDIyMC4wNiA4MzMuNjUzIDIzNS4yNzhMODMzLjU4NSAyNTguMDciIHN0cm9rZT0iI0ZGRkZGRiIgc3Ryb2tlLXdpZHRoPSIxMC4yNjY3IiBzdHJva2UtbWl0ZXJsaW1pdD0iMTAiIGZpbGw9Im5vbmUiIHRyYW5zZm9ybT0ibWF0cml4KDEuMDAwNDEgMCAwIDEgMTkuNzExOCAxOTIuNzExKSIvPjxwYXRoIGQ9Ik03MDMuMzAxIDExOS43NzggNzM1LjgxMiAxMzAuMDQ0Qzc1Ny40ODYgMTM2Ljg4OSA3NzMuNDU2IDE0NC44NzQgNzgzLjcyMyAxNTRMNzk5LjEyMyAxNjcuNjg5IiBzdHJva2U9IiNGRkZGRkYiIHN0cm9rZS13aWR0aD0iMTAuMjY2NyIgc3Ryb2tlLW1pdGVybGltaXQ9IjEwIiBmaWxsPSJub25lIiB0cmFuc2Zvcm09Im1hdHJpeCgxLjAwMDQxIDAgMCAxIDE5LjcxMTggMTkyLjcxMSkiLz48cGF0aCBkPSJNMzQ3LjM5IDkyLjEyNjIgMzg3LjgwNiA5Mi4zMzE2IiBzdHJva2U9IiNGRkZGRkYiIHN0cm9rZS13aWR0aD0iMy40MjIyMiIgc3Ryb2tlLW1pdGVybGltaXQ9IjEwIiBmaWxsPSJub25lIiB0cmFuc2Zvcm09Im1hdHJpeCgxLjAwMDQxIDAgMCAxIDE5LjcxMTggMTkyLjcxMSkiLz48cGF0aCBkPSJNMzk4LjA3MyA5Mi4zNjU4IDM4Ny44MDYgOTUuNzUzOCAzODcuODQgODguOTA5M1oiIHN0cm9rZT0iI0ZGRkZGRiIgc3Ryb2tlLXdpZHRoPSIzLjQyMjIyIiBzdHJva2UtbWl0ZXJsaW1pdD0iMTAiIGZpbGw9IiNGRkZGRkYiIHRyYW5zZm9ybT0ibWF0cml4KDEuMDAwNDEgMCAwIDEgMTkuNzExOCAxOTIuNzExKSIvPjxwYXRoIGQ9Ik02NjQuODY5IDE3OC4yOTggNjk2LjU1OSAxOTUuODg4QzcxNi40OTkgMjA2Ljk3NiA3MjYuNTE1IDIyMC4xMTcgNzI2LjYwNiAyMzUuMzEyTDcyNi43MDkgMjU4LjA3IiBzdHJva2U9IiM4MDgwODAiIHN0cm9rZS13aWR0aD0iMTcuMTExMSIgc3Ryb2tlLW1pdGVybGltaXQ9IjEwIiBmaWxsPSJub25lIiB0cmFuc2Zvcm09Im1hdHJpeCgxLjAwMDQxIDAgMCAxIDE5LjcxMTggMTkyLjcxMSkiLz48cGF0aCBkPSJNNDMxLjk4NyAxMTYuNjI5QzQ1Mi4zMTUgMTE2LjYyOSA0ODIuNjU5IDEyMy40MjggNTIzLjAxOCAxMzcuMDI2IDU2My4zNTUgMTUwLjYyMyA2MDUuMTk3IDE2NS45NzggNjQ4LjU0NSAxODMuMDg5IDY5MS44OTMgMjAwLjIgNzE4LjQ1IDIyNC40MTggNzI4LjIxNSAyNTUuNzQzIiBzdHJva2U9IiNGRkZGRkYiIHN0cm9rZS13aWR0aD0iMTAuMjY2NyIgc3Ryb2tlLW1pdGVybGltaXQ9IjEwIiBmaWxsPSJub25lIiB0cmFuc2Zvcm09Im1hdHJpeCgxLjAwMDQxIDAgMCAxIDE5LjcxMTggMTkyLjcxMSkiLz48cGF0aCBkPSJNMzY0LjUwMSA5Mi40IDM4MC4xNzUgMTAyLjE1MyIgc3Ryb2tlPSIjRkZGRkZGIiBzdHJva2Utd2lkdGg9IjMuNDIyMjIiIHN0cm9rZS1taXRlcmxpbWl0PSIxMCIgZmlsbD0ibm9uZSIgdHJhbnNmb3JtPSJtYXRyaXgoMS4wMDA0MSAwIDAgMSAxOS43MTE4IDE5Mi43MTEpIi8+PHBhdGggZD0iTTM4OC45MDEgMTA3LjU2IDM3OC4zOTUgMTA1LjA2MiAzODEuOTg4IDk5LjI0NDRaIiBzdHJva2U9IiNGRkZGRkYiIHN0cm9rZS13aWR0aD0iMy40MjIyMiIgc3Ryb2tlLW1pdGVybGltaXQ9IjEwIiBmaWxsPSIjRkZGRkZGIiB0cmFuc2Zvcm09Im1hdHJpeCgxLjAwMDQxIDAgMCAxIDE5LjcxMTggMTkyLjcxMSkiLz48cGF0aCBkPSJNNzMyLjM1NiAyMjkuMjg5IDc1Mi44ODkgMjI5LjI4OSA3NTIuODg5IDI1Ni42NjcgNzMyLjM1NiAyNTYuNjY3WiIgZmlsbD0iIzgwODA4MCIgdHJhbnNmb3JtPSJtYXRyaXgoMS4wMDA0MSAwIDAgMSAxOS43MTE4IDE5Mi43MTEpIi8+PHBhdGggZD0iTTY5MC45MTIgMTc2Ljg5NSA3MjIuOTEgMTk0LjUxOUM3NDIuODk2IDIwNS41MzkgNzUyLjg2NiAyMTguNjU3IDc1Mi44MiAyMzMuODc1TDc1Mi43NTIgMjU2LjY2NyIgc3Ryb2tlPSIjODA4MDgwIiBzdHJva2Utd2lkdGg9IjE3LjExMTEiIHN0cm9rZS1taXRlcmxpbWl0PSIxMCIgZmlsbD0ibm9uZSIgdHJhbnNmb3JtPSJtYXRyaXgoMS4wMDA0MSAwIDAgMSAxOS43MTE4IDE5Mi43MTEpIi8+PC9nPjwvZz48L2c+PHBhdGggZD0iTTQ4MyAzNzkgNjc0LjI0IDIxMyAxMTgyIDIxMyA5OTAuNzYgMzc5WiIgZmlsbD0iIzFCQTFFMiIgZmlsbC1ydWxlPSJldmVub2RkIiBmaWxsLW9wYWNpdHk9IjAuNzAxOTYxIi8+PHBhdGggZD0iTTY1NS45NzMgMzc3LjUyMSA4NDUuNTUyIDM3OC41NjMgODUxLjUzOSAzNzguMDQyIDg2MS4wMTggNDAwLjQzOCA4NjUuNTA4IDQwOS44MTMgODY3LjUwMyA0MjMuODc1IDg2OSA0MzcuNDE3IDg2OSA0NTIgNzMzLjMwMiA0NTAuOTU4IDcwOS4zNTUgNDE2LjA2MyA2OTguMzc5IDQwNy43MjkgNjg2LjQwNiAzOTguMzU0IDY3Mi40MzcgMzkyLjEwNCA2NTQuNDc3IDM4My43NzEgNjQ2Ljk5MyAzODAuMTI1IDY0NCAzNzcgNjU1Ljk3MyAzNzcuNTIxWiIgZmlsbD0iIzFCQTFFMiIgZmlsbC1ydWxlPSJldmVub2RkIiBmaWxsLW9wYWNpdHk9IjAuNjk4MDM5Ii8+PC9nPjwvc3ZnPg==;" parent="i4RcE1fr88npL_jNl3nU-1" vertex="1">
          <mxGeometry x="230" y="345" width="343" height="77.18" as="geometry" />
        </mxCell>
        <mxCell id="Za7xxilf6f-1Jp0edNZU-95" value="" style="rounded=1;align=center;verticalAlign=middle;fontSize=9;fontStyle=0;strokeColor=#666666;fontColor=#333333;fillColor=#f5f5f5;" parent="i4RcE1fr88npL_jNl3nU-1" vertex="1">
          <mxGeometry x="457.38" y="262.00000000000006" width="101.7" height="46.81" as="geometry" />
        </mxCell>
        <mxCell id="Za7xxilf6f-1Jp0edNZU-69" value="" style="shape=image;verticalAlign=top;verticalLabelPosition=bottom;labelBackgroundColor=#ffffff;imageAspect=0;aspect=fixed;image=https://cdn0.iconfinder.com/data/icons/isometric-city-basic-transport/480/car-police-front-01-128.png;strokeColor=#FF33FF;strokeWidth=3;fillColor=none;gradientColor=#ffffff;rotation=-30;" parent="i4RcE1fr88npL_jNl3nU-1" vertex="1">
          <mxGeometry x="614.32" y="15" width="38" height="38" as="geometry" />
        </mxCell>
        <mxCell id="Za7xxilf6f-1Jp0edNZU-73" value="" style="points=[];aspect=fixed;align=center;shadow=0;dashed=0;image;image=img/lib/allied_telesis/security/POE_DVS_Camera.svg;strokeColor=#FF33FF;strokeWidth=3;fillColor=none;gradientColor=#ffffff;" parent="i4RcE1fr88npL_jNl3nU-1" vertex="1">
          <mxGeometry x="291" y="42" width="31" height="24.44" as="geometry" />
        </mxCell>
        <mxCell id="Za7xxilf6f-1Jp0edNZU-82" value="" style="group;fillColor=#ffffff;" parent="i4RcE1fr88npL_jNl3nU-1" vertex="1" connectable="0">
          <mxGeometry x="299.68" y="264" width="101.70000000000003" height="51.42" as="geometry" />
        </mxCell>
        <mxCell id="Za7xxilf6f-1Jp0edNZU-81" value="" style="rounded=1;align=center;verticalAlign=middle;fontSize=9;fontStyle=0;strokeColor=#666666;fontColor=#333333;fillColor=#99FF99;" parent="Za7xxilf6f-1Jp0edNZU-82" vertex="1">
          <mxGeometry x="-2.68" width="101.70000000000003" height="51.41999999999999" as="geometry" />
        </mxCell>
        <mxCell id="Za7xxilf6f-1Jp0edNZU-80" value="" style="aspect=fixed;perimeter=ellipsePerimeter;align=center;shadow=0;dashed=0;spacingTop=3;image;image=img/lib/active_directory/database_server.svg;strokeColor=#FF33FF;strokeWidth=3;fillColor=none;gradientColor=#ffffff;" parent="Za7xxilf6f-1Jp0edNZU-82" vertex="1">
          <mxGeometry x="58.616347358997324" y="7.818835060207233" width="29.51862223466815" height="35.998319798375796" as="geometry" />
        </mxCell>
        <mxCell id="Za7xxilf6f-1Jp0edNZU-84" value="Shared &#xa;Database &#xa;Server" style="text;resizable=0;autosize=1;align=left;verticalAlign=middle;points=[];fillColor=none;strokeColor=none;rounded=0;fontSize=10;" parent="Za7xxilf6f-1Jp0edNZU-82" vertex="1">
          <mxGeometry x="-5.1514348342607263e-14" y="2.0023522822738844" width="53" height="37" as="geometry" />
        </mxCell>
        <mxCell id="Za7xxilf6f-1Jp0edNZU-87" value="" style="shape=image;verticalAlign=top;verticalLabelPosition=bottom;labelBackgroundColor=#ffffff;imageAspect=0;aspect=fixed;image=https://cdn2.iconfinder.com/data/icons/flat-ui-4/100/Antenna-128.png;strokeColor=#FF33FF;strokeWidth=3;fillColor=none;gradientColor=#ffffff;rotation=0;" parent="i4RcE1fr88npL_jNl3nU-1" vertex="1">
          <mxGeometry x="341.99999999999994" y="236" width="29.68" height="29.68" as="geometry" />
        </mxCell>
        <mxCell id="Za7xxilf6f-1Jp0edNZU-101" value="" style="shape=image;html=1;verticalAlign=top;verticalLabelPosition=bottom;labelBackgroundColor=#ffffff;imageAspect=0;aspect=fixed;image=https://cdn1.iconfinder.com/data/icons/line-free/24/Wireless_antenna-128.png;strokeColor=#000000;strokeWidth=3;fillColor=#ffffff;gradientColor=#ffffff;fontSize=10;opacity=70;align=left;" parent="i4RcE1fr88npL_jNl3nU-1" vertex="1">
          <mxGeometry x="449.54" y="47.14999999999998" width="29.7" height="29.7" as="geometry" />
        </mxCell>
        <mxCell id="Za7xxilf6f-1Jp0edNZU-99" value="" style="rounded=1;align=center;verticalAlign=middle;fontSize=9;fontStyle=0;strokeColor=#666666;fontColor=#333333;fillColor=none;" parent="i4RcE1fr88npL_jNl3nU-1" vertex="1">
          <mxGeometry x="383.32" y="36.289999999999964" width="101.7" height="51.42" as="geometry" />
        </mxCell>
        <mxCell id="Za7xxilf6f-1Jp0edNZU-98" value="Base &#xa;Station" style="text;resizable=0;autosize=1;align=left;verticalAlign=middle;points=[];fillColor=none;strokeColor=none;rounded=0;fontSize=10;" parent="i4RcE1fr88npL_jNl3nU-1" vertex="1">
          <mxGeometry x="389.54080629301865" y="36.29235228227378" width="50" height="30" as="geometry" />
        </mxCell>
        <mxCell id="Za7xxilf6f-1Jp0edNZU-103" value="" style="endArrow=blockThin;dashed=1;fontSize=10;exitX=0.74;exitY=0.097;exitDx=0;exitDy=0;exitPerimeter=0;startArrow=blockThin;startFill=0;endFill=0;" parent="i4RcE1fr88npL_jNl3nU-1" source="KYlF_QpYy4DrjIpC-7zn-146" edge="1">
          <mxGeometry width="50" height="50" relative="1" as="geometry">
            <mxPoint x="348.7797408217666" y="369.31547086625847" as="sourcePoint" />
            <mxPoint x="334" y="315" as="targetPoint" />
          </mxGeometry>
        </mxCell>
        <mxCell id="Za7xxilf6f-1Jp0edNZU-104" value="" style="endArrow=block;dashed=1;fontSize=10;entryX=0;entryY=0.5;entryDx=0;entryDy=0;exitX=0.994;exitY=0.568;exitDx=0;exitDy=0;exitPerimeter=0;startArrow=block;startFill=0;endFill=0;" parent="i4RcE1fr88npL_jNl3nU-1" source="Za7xxilf6f-1Jp0edNZU-81" target="Za7xxilf6f-1Jp0edNZU-95" edge="1">
          <mxGeometry width="50" height="50" relative="1" as="geometry">
            <mxPoint x="362.30474636141776" y="363.7486553315996" as="sourcePoint" />
            <mxPoint x="353.7868000000001" y="317.54585999999995" as="targetPoint" />
          </mxGeometry>
        </mxCell>
        <mxCell id="Za7xxilf6f-1Jp0edNZU-96" value="Road Side&#xa;Friction Measurement &#xa;Unit" style="text;resizable=0;autosize=1;align=left;verticalAlign=middle;points=[];fillColor=none;strokeColor=none;rounded=0;fontSize=9;" parent="i4RcE1fr88npL_jNl3nU-1" vertex="1">
          <mxGeometry x="459.41999999999996" y="265.88235228227387" width="97" height="37" as="geometry" />
        </mxCell>
        <mxCell id="Za7xxilf6f-1Jp0edNZU-105" value="" style="endArrow=blockThin;dashed=1;fontSize=10;entryX=0.596;entryY=1.027;entryDx=0;entryDy=0;entryPerimeter=0;startArrow=none;startFill=0;endFill=0;exitX=0.84;exitY=0.22;exitDx=0;exitDy=0;exitPerimeter=0;" parent="i4RcE1fr88npL_jNl3nU-1" source="KYlF_QpYy4DrjIpC-7zn-132" target="Za7xxilf6f-1Jp0edNZU-95" edge="1">
          <mxGeometry width="50" height="50" relative="1" as="geometry">
            <mxPoint x="462.98288" y="375.97368000000006" as="sourcePoint" />
            <mxPoint x="387.7868000000001" y="317.54585999999995" as="targetPoint" />
          </mxGeometry>
        </mxCell>
        <mxCell id="Za7xxilf6f-1Jp0edNZU-106" value="" style="outlineConnect=0;dashed=0;verticalLabelPosition=bottom;verticalAlign=top;align=center;shape=mxgraph.aws3.sensor;fillColor=#5294CF;gradientColor=none;strokeColor=#000000;strokeWidth=3;fontSize=10;opacity=70;" parent="i4RcE1fr88npL_jNl3nU-1" vertex="1">
          <mxGeometry x="528.77" y="289.69" width="18.5" height="17" as="geometry" />
        </mxCell>
        <mxCell id="KYlF_QpYy4DrjIpC-7zn-17" value="" style="endArrow=blockThin;dashed=1;fontSize=10;entryX=0.611;entryY=0.99;entryDx=0;entryDy=0;startArrow=blockThin;startFill=0;endFill=0;exitX=0.684;exitY=0.031;exitDx=0;exitDy=0;exitPerimeter=0;entryPerimeter=0;" parent="i4RcE1fr88npL_jNl3nU-1" source="KYlF_QpYy4DrjIpC-7zn-140" target="Za7xxilf6f-1Jp0edNZU-81" edge="1">
          <mxGeometry width="50" height="50" relative="1" as="geometry">
            <mxPoint x="397.5050000000001" y="396" as="sourcePoint" />
            <mxPoint x="352.7868000000001" y="327.54586000000006" as="targetPoint" />
          </mxGeometry>
        </mxCell>
        <mxCell id="KYlF_QpYy4DrjIpC-7zn-27" value="" style="rounded=1;align=center;verticalAlign=middle;fontSize=9;fontStyle=0;strokeColor=#666666;fontColor=#333333;fillColor=#f5f5f5;" parent="i4RcE1fr88npL_jNl3nU-1" vertex="1">
          <mxGeometry x="476.46" y="857.19" width="101.7" height="46.81" as="geometry" />
        </mxCell>
        <mxCell id="KYlF_QpYy4DrjIpC-7zn-28" value="" style="group;" parent="i4RcE1fr88npL_jNl3nU-1" vertex="1" connectable="0">
          <mxGeometry x="225.99999999999997" y="922.54" width="377.08" height="136.19" as="geometry" />
        </mxCell>
        <mxCell id="KYlF_QpYy4DrjIpC-7zn-29" value="" style="shape=parallelogram;perimeter=parallelogramPerimeter;fixedSize=1;fillColor=#cdeb8b;fontFamily=Times New Roman;size=86.05630602959147;labelBorderColor=none;strokeColor=#36393d;rounded=1;" parent="KYlF_QpYy4DrjIpC-7zn-28" vertex="1">
          <mxGeometry x="23" y="21.13" width="346" height="75.74" as="geometry" />
        </mxCell>
        <mxCell id="KYlF_QpYy4DrjIpC-7zn-30" value="" style="shape=parallelogram;perimeter=parallelogramPerimeter;fixedSize=1;fontFamily=Times New Roman;size=58.28668294270827;labelBorderColor=none;fontColor=#ffffff;fillColor=#808080;strokeColor=none;" parent="KYlF_QpYy4DrjIpC-7zn-28" vertex="1">
          <mxGeometry x="47.015333971250165" y="24.729839822924625" width="316.69871269933407" height="51.80876689832449" as="geometry" />
        </mxCell>
        <mxCell id="KYlF_QpYy4DrjIpC-7zn-31" value="" style="endArrow=none;exitX=0.14;exitY=0.207;exitDx=0;exitDy=0;exitPerimeter=0;entryX=0.962;entryY=0.209;entryDx=0;entryDy=0;entryPerimeter=0;strokeWidth=3;fillColor=#ffff88;strokeColor=#FF9933;" parent="KYlF_QpYy4DrjIpC-7zn-28" edge="1">
          <mxGeometry width="50" height="50" relative="1" as="geometry">
            <mxPoint x="106" y="25.42382330540762" as="sourcePoint" />
            <mxPoint x="362.71335841956727" y="25.543820449352673" as="targetPoint" />
            <Array as="points" />
          </mxGeometry>
        </mxCell>
        <mxCell id="KYlF_QpYy4DrjIpC-7zn-32" value="" style="endArrow=none;exitX=0.14;exitY=0.207;exitDx=0;exitDy=0;exitPerimeter=0;entryX=0.962;entryY=0.209;entryDx=0;entryDy=0;entryPerimeter=0;strokeWidth=3;fillColor=#ffff88;strokeColor=#FFFFFF;dashed=1;rounded=1;" parent="KYlF_QpYy4DrjIpC-7zn-28" edge="1">
          <mxGeometry width="50" height="50" relative="1" as="geometry">
            <mxPoint x="79.43076004078281" y="40.477465013328455" as="sourcePoint" />
            <mxPoint x="261.767531681904" y="40.597462157273505" as="targetPoint" />
            <Array as="points" />
          </mxGeometry>
        </mxCell>
        <mxCell id="KYlF_QpYy4DrjIpC-7zn-33" value="" style="endArrow=none;exitX=0.14;exitY=0.207;exitDx=0;exitDy=0;exitPerimeter=0;entryX=0.962;entryY=0.209;entryDx=0;entryDy=0;entryPerimeter=0;strokeWidth=3;fillColor=#ffff88;strokeColor=#FFFFFF;" parent="KYlF_QpYy4DrjIpC-7zn-28" edge="1">
          <mxGeometry width="50" height="50" relative="1" as="geometry">
            <mxPoint x="65.98646207844415" y="55.539106530845444" as="sourcePoint" />
            <mxPoint x="157.2277826076612" y="55.539106530845444" as="targetPoint" />
            <Array as="points" />
          </mxGeometry>
        </mxCell>
        <mxCell id="KYlF_QpYy4DrjIpC-7zn-34" value="" style="endArrow=none;exitX=0.14;exitY=0.207;exitDx=0;exitDy=0;exitPerimeter=0;strokeWidth=3;fillColor=#ffff88;strokeColor=#FFFFFF;dashed=1;" parent="KYlF_QpYy4DrjIpC-7zn-28" edge="1">
          <mxGeometry width="50" height="50" relative="1" as="geometry">
            <mxPoint x="166.47752443660235" y="56.22309025133285" as="sourcePoint" />
            <mxPoint x="236.51000000000002" y="56.460000000000036" as="targetPoint" />
            <Array as="points" />
          </mxGeometry>
        </mxCell>
        <mxCell id="KYlF_QpYy4DrjIpC-7zn-35" value="" style="endArrow=none;entryX=0.962;entryY=0.209;entryDx=0;entryDy=0;entryPerimeter=0;strokeWidth=3;fillColor=#ffff88;strokeColor=#FFFFFF;" parent="KYlF_QpYy4DrjIpC-7zn-28" edge="1">
          <mxGeometry width="50" height="50" relative="1" as="geometry">
            <mxPoint x="234.51000000000002" y="56.460000000000036" as="sourcePoint" />
            <mxPoint x="335.5126259900908" y="56.22309025133285" as="targetPoint" />
            <Array as="points" />
          </mxGeometry>
        </mxCell>
        <mxCell id="KYlF_QpYy4DrjIpC-7zn-36" value="" style="endArrow=blockThin;strokeColor=#FFFFFF;strokeWidth=1;endFill=1;startSize=2;endSize=2;" parent="KYlF_QpYy4DrjIpC-7zn-28" edge="1">
          <mxGeometry width="50" height="50" relative="1" as="geometry">
            <mxPoint x="228.54171996063303" y="47.53929693450119" as="sourcePoint" />
            <mxPoint x="238.26634778149287" y="47.53929693450119" as="targetPoint" />
          </mxGeometry>
        </mxCell>
        <mxCell id="KYlF_QpYy4DrjIpC-7zn-37" value="" style="endArrow=blockThin;strokeColor=#FFFFFF;strokeWidth=1;endFill=1;startSize=2;endSize=2;" parent="KYlF_QpYy4DrjIpC-7zn-28" edge="1">
          <mxGeometry width="50" height="50" relative="1" as="geometry">
            <mxPoint x="244.64732440328038" y="32.41365694021331" as="sourcePoint" />
            <mxPoint x="254.37195222414016" y="32.41365694021331" as="targetPoint" />
          </mxGeometry>
        </mxCell>
        <mxCell id="KYlF_QpYy4DrjIpC-7zn-38" value="" style="endArrow=blockThin;strokeColor=#FFFFFF;strokeWidth=1;endFill=1;startSize=2;endSize=2;" parent="KYlF_QpYy4DrjIpC-7zn-28" edge="1">
          <mxGeometry width="50" height="50" relative="1" as="geometry">
            <mxPoint x="140.00546673691852" y="32.287659939070906" as="sourcePoint" />
            <mxPoint x="149.7300945577783" y="32.287659939070906" as="targetPoint" />
          </mxGeometry>
        </mxCell>
        <mxCell id="KYlF_QpYy4DrjIpC-7zn-39" value="" style="endArrow=none;exitX=0.14;exitY=0.207;exitDx=0;exitDy=0;exitPerimeter=0;entryX=0.962;entryY=0.209;entryDx=0;entryDy=0;entryPerimeter=0;strokeWidth=3;fillColor=#ffff88;strokeColor=#FFFFFF;" parent="KYlF_QpYy4DrjIpC-7zn-28" edge="1">
          <mxGeometry width="50" height="50" relative="1" as="geometry">
            <mxPoint x="265.8194599405956" y="40.477465013328285" as="sourcePoint" />
            <mxPoint x="349.28918206964215" y="40.477465013328285" as="targetPoint" />
            <Array as="points" />
          </mxGeometry>
        </mxCell>
        <mxCell id="KYlF_QpYy4DrjIpC-7zn-40" value="" style="endArrow=blockThin;dashed=1;fontSize=10;entryX=0.277;entryY=0.999;entryDx=0;entryDy=0;entryPerimeter=0;startArrow=classicThin;startFill=0;endFill=0;" parent="KYlF_QpYy4DrjIpC-7zn-28" target="KYlF_QpYy4DrjIpC-7zn-62" edge="1">
          <mxGeometry width="50" height="50" relative="1" as="geometry">
            <mxPoint x="115.51000000000002" y="27.460000000000036" as="sourcePoint" />
            <mxPoint x="162.51000000000002" y="-50" as="targetPoint" />
          </mxGeometry>
        </mxCell>
        <mxCell id="KYlF_QpYy4DrjIpC-7zn-41" value="" style="endArrow=none;strokeWidth=25;strokeColor=#808080;entryX=0.669;entryY=0.999;entryDx=0;entryDy=0;entryPerimeter=0;exitX=0.598;exitY=0.941;exitDx=0;exitDy=0;exitPerimeter=0;" parent="KYlF_QpYy4DrjIpC-7zn-28" source="KYlF_QpYy4DrjIpC-7zn-30" target="KYlF_QpYy4DrjIpC-7zn-29" edge="1">
          <mxGeometry width="50" height="50" relative="1" as="geometry">
            <mxPoint x="236.51000000000002" y="69.46000000000004" as="sourcePoint" />
            <mxPoint x="271.5100000000002" y="127.46000000000004" as="targetPoint" />
            <Array as="points">
              <mxPoint x="254.51000000000002" y="83.46000000000004" />
            </Array>
          </mxGeometry>
        </mxCell>
        <mxCell id="KYlF_QpYy4DrjIpC-7zn-42" value="" style="endArrow=none;strokeWidth=5;strokeColor=#808080;entryX=0.611;entryY=1.006;entryDx=0;entryDy=0;entryPerimeter=0;exitX=0.491;exitY=0.941;exitDx=0;exitDy=0;exitPerimeter=0;" parent="KYlF_QpYy4DrjIpC-7zn-28" source="KYlF_QpYy4DrjIpC-7zn-30" target="KYlF_QpYy4DrjIpC-7zn-29" edge="1">
          <mxGeometry width="50" height="50" relative="1" as="geometry">
            <mxPoint x="208.5111641654518" y="73.56188947424812" as="sourcePoint" />
            <mxPoint x="226.5840000000002" y="96.87425999999994" as="targetPoint" />
            <Array as="points">
              <mxPoint x="224.51000000000002" y="83.46000000000004" />
            </Array>
          </mxGeometry>
        </mxCell>
        <mxCell id="KYlF_QpYy4DrjIpC-7zn-43" value="" style="endArrow=none;strokeWidth=5;strokeColor=#808080;entryX=0.669;entryY=0.999;entryDx=0;entryDy=0;entryPerimeter=0;exitX=0.598;exitY=0.941;exitDx=0;exitDy=0;exitPerimeter=0;" parent="KYlF_QpYy4DrjIpC-7zn-28" edge="1">
          <mxGeometry width="50" height="50" relative="1" as="geometry">
            <mxPoint x="226.5111641654519" y="71.4618894742481" as="sourcePoint" />
            <mxPoint x="244.58400000000032" y="94.77425999999991" as="targetPoint" />
            <Array as="points">
              <mxPoint x="244.62000000000003" y="81.44000000000005" />
            </Array>
          </mxGeometry>
        </mxCell>
        <mxCell id="KYlF_QpYy4DrjIpC-7zn-44" value="" style="endArrow=none;strokeWidth=5;strokeColor=#808080;entryX=0.712;entryY=1.004;entryDx=0;entryDy=0;entryPerimeter=0;exitX=0.491;exitY=0.941;exitDx=0;exitDy=0;exitPerimeter=0;" parent="KYlF_QpYy4DrjIpC-7zn-28" edge="1">
          <mxGeometry width="50" height="50" relative="1" as="geometry">
            <mxPoint x="248.51440190662336" y="62.46188947424798" as="sourcePoint" />
            <mxPoint x="268.3520000000001" y="97.17295999999999" as="targetPoint" />
            <Array as="points">
              <mxPoint x="263.51" y="74.46000000000004" />
              <mxPoint x="268.51" y="88.46000000000004" />
            </Array>
          </mxGeometry>
        </mxCell>
        <mxCell id="KYlF_QpYy4DrjIpC-7zn-45" value="" style="endArrow=none;strokeWidth=3;entryX=0.669;entryY=0.999;entryDx=0;entryDy=0;entryPerimeter=0;strokeColor=#FFFFFF;" parent="KYlF_QpYy4DrjIpC-7zn-28" edge="1">
          <mxGeometry width="50" height="50" relative="1" as="geometry">
            <mxPoint x="255.51" y="69.46000000000004" as="sourcePoint" />
            <mxPoint x="266.5840000000002" y="96.87426000000016" as="targetPoint" />
            <Array as="points">
              <mxPoint x="266.62" y="83.54000000000008" />
            </Array>
          </mxGeometry>
        </mxCell>
        <mxCell id="KYlF_QpYy4DrjIpC-7zn-46" value="" style="endArrow=none;strokeWidth=3;strokeColor=#FFFFFF;" parent="KYlF_QpYy4DrjIpC-7zn-28" edge="1">
          <mxGeometry width="50" height="50" relative="1" as="geometry">
            <mxPoint x="228.51000000000002" y="56.460000000000036" as="sourcePoint" />
            <mxPoint x="256.51" y="70.46000000000004" as="targetPoint" />
            <Array as="points">
              <mxPoint x="247.51000000000002" y="62.460000000000036" />
            </Array>
          </mxGeometry>
        </mxCell>
        <mxCell id="KYlF_QpYy4DrjIpC-7zn-47" value="" style="shape=parallelogram;perimeter=parallelogramPerimeter;fixedSize=1;fontFamily=Times New Roman;size=13.858721903369485;labelBorderColor=none;fontColor=#ffffff;strokeColor=none;opacity=70;fillColor=#1BA1E2;" parent="KYlF_QpYy4DrjIpC-7zn-28" vertex="1">
          <mxGeometry x="201.51" y="41" width="131.49" height="13.39" as="geometry" />
        </mxCell>
        <mxCell id="KYlF_QpYy4DrjIpC-7zn-48" value="" style="endArrow=blockThin;strokeColor=#FFFFFF;strokeWidth=1;endFill=1;startSize=2;endSize=2;entryX=0.295;entryY=0.458;entryDx=0;entryDy=0;entryPerimeter=0;" parent="KYlF_QpYy4DrjIpC-7zn-28" target="KYlF_QpYy4DrjIpC-7zn-30" edge="1">
          <mxGeometry width="50" height="50" relative="1" as="geometry">
            <mxPoint x="124.50546673691852" y="48.377659939070895" as="sourcePoint" />
            <mxPoint x="134.23009455777836" y="48.377659939070895" as="targetPoint" />
          </mxGeometry>
        </mxCell>
        <mxCell id="KYlF_QpYy4DrjIpC-7zn-49" value="" style="endArrow=none;strokeWidth=5;strokeColor=#808080;entryX=0.669;entryY=0.999;entryDx=0;entryDy=0;entryPerimeter=0;exitX=0.598;exitY=0.941;exitDx=0;exitDy=0;exitPerimeter=0;" parent="KYlF_QpYy4DrjIpC-7zn-28" edge="1">
          <mxGeometry width="50" height="50" relative="1" as="geometry">
            <mxPoint x="217.28116416545188" y="73.561889474248" as="sourcePoint" />
            <mxPoint x="235.3540000000003" y="96.87425999999994" as="targetPoint" />
            <Array as="points">
              <mxPoint x="235.28" y="83.56000000000006" />
            </Array>
          </mxGeometry>
        </mxCell>
        <mxCell id="KYlF_QpYy4DrjIpC-7zn-50" value="" style="endArrow=none;strokeColor=#FFFFFF;strokeWidth=3;curved=1;endFill=0;entryX=0.615;entryY=0.991;entryDx=0;entryDy=0;entryPerimeter=0;" parent="KYlF_QpYy4DrjIpC-7zn-28" target="KYlF_QpYy4DrjIpC-7zn-29" edge="1">
          <mxGeometry width="50" height="50" relative="1" as="geometry">
            <mxPoint x="149.2277826076612" y="55.539106530845444" as="sourcePoint" />
            <mxPoint x="221.51000000000002" y="95.46000000000004" as="targetPoint" />
            <Array as="points">
              <mxPoint x="158.14202477678268" y="55.539106530845444" />
              <mxPoint x="193.51000000000002" y="67.46000000000004" />
              <mxPoint x="231.51000000000002" y="82.46000000000004" />
            </Array>
          </mxGeometry>
        </mxCell>
        <mxCell id="KYlF_QpYy4DrjIpC-7zn-51" value="" style="shape=image;verticalAlign=top;verticalLabelPosition=bottom;labelBackgroundColor=#ffffff;imageAspect=0;aspect=fixed;image=https://cdn1.iconfinder.com/data/icons/computer-hardware-cute-style-vol-2/52/signal__device__technology__radar__satellite__antenna__tower-128.png;strokeColor=#FF33FF;strokeWidth=3;fillColor=none;gradientColor=#ffffff;rotation=0;" parent="KYlF_QpYy4DrjIpC-7zn-28" vertex="1">
          <mxGeometry x="105.30000000000001" y="28.460000000000036" width="15.889088967575413" height="15.889088967575413" as="geometry" />
        </mxCell>
        <mxCell id="KYlF_QpYy4DrjIpC-7zn-52" value="" style="shape=image;verticalAlign=top;verticalLabelPosition=bottom;labelBackgroundColor=#ffffff;imageAspect=0;aspect=fixed;image=https://cdn0.iconfinder.com/data/icons/isometric-city-basic-transport/480/car-front-02-128.png;strokeColor=#FF33FF;strokeWidth=3;fillColor=none;gradientColor=#ffffff;rotation=-30;" parent="KYlF_QpYy4DrjIpC-7zn-28" vertex="1">
          <mxGeometry x="98.51000000000002" y="31.460000000000036" width="29.47" height="29.47" as="geometry" />
        </mxCell>
        <mxCell id="KYlF_QpYy4DrjIpC-7zn-56" value="" style="group;" parent="KYlF_QpYy4DrjIpC-7zn-28" vertex="1" connectable="0">
          <mxGeometry x="181.51" y="24.730000000000004" width="41.12" height="47.86" as="geometry" />
        </mxCell>
        <mxCell id="KYlF_QpYy4DrjIpC-7zn-57" value="" style="shape=image;verticalAlign=top;verticalLabelPosition=bottom;labelBackgroundColor=#ffffff;imageAspect=0;aspect=fixed;image=https://cdn1.iconfinder.com/data/icons/computer-hardware-line-vol-2/52/signal__device__technology__radar__satellite__antenna__tower-128.png;strokeColor=#FF33FF;strokeWidth=3;fillColor=none;gradientColor=#ffffff;" parent="KYlF_QpYy4DrjIpC-7zn-56" vertex="1">
          <mxGeometry x="10.76" y="7.18" width="15.82" height="15.82" as="geometry" />
        </mxCell>
        <mxCell id="KYlF_QpYy4DrjIpC-7zn-58" value="" style="shape=image;verticalAlign=top;verticalLabelPosition=bottom;labelBackgroundColor=#ffffff;imageAspect=0;aspect=fixed;image=https://cdn0.iconfinder.com/data/icons/isometric-city-basic-transport/480/car-taxi-front-01-128.png;strokeColor=#FF33FF;strokeWidth=3;fillColor=none;gradientColor=#ffffff;rotation=-30;" parent="KYlF_QpYy4DrjIpC-7zn-56" vertex="1">
          <mxGeometry x="5.509035396383914" y="6.9744010318359235" width="30.10192920723228" height="30.10192920723228" as="geometry" />
        </mxCell>
        <mxCell id="KYlF_QpYy4DrjIpC-7zn-59" value="" style="shape=image;verticalAlign=top;verticalLabelPosition=bottom;labelBackgroundColor=#ffffff;imageAspect=0;aspect=fixed;image=https://cdn1.iconfinder.com/data/icons/computer-hardware-line-vol-2/52/signal__device__technology__radar__satellite__antenna__tower-128.png;fillColor=#99CCFF;fontFamily=Times New Roman;fontSize=8;fontColor=#6666FF;" parent="KYlF_QpYy4DrjIpC-7zn-28" vertex="1">
          <mxGeometry x="226.08" y="57.460000000000036" width="15" height="15" as="geometry" />
        </mxCell>
        <mxCell id="KYlF_QpYy4DrjIpC-7zn-60" value="" style="shape=image;verticalAlign=top;verticalLabelPosition=bottom;labelBackgroundColor=#ffffff;imageAspect=0;aspect=fixed;image=https://cdn0.iconfinder.com/data/icons/isometric-city-basic-transport/480/car-front-02-128.png;strokeColor=#FF33FF;strokeWidth=3;fillColor=none;gradientColor=#ffffff;rotation=0;" parent="KYlF_QpYy4DrjIpC-7zn-28" vertex="1">
          <mxGeometry x="220.51000000000002" y="60.460000000000036" width="32.466453315679715" height="32.466453315679715" as="geometry" />
        </mxCell>
        <mxCell id="KYlF_QpYy4DrjIpC-7zn-76" value="" style="endArrow=classicThin;fillColor=#dae8fc;strokeColor=#6666FF;endFill=1;exitX=0.471;exitY=0.836;exitDx=0;exitDy=0;exitPerimeter=0;" parent="KYlF_QpYy4DrjIpC-7zn-28" source="KYlF_QpYy4DrjIpC-7zn-29" edge="1">
          <mxGeometry width="50" height="50" relative="1" as="geometry">
            <mxPoint x="152.0500000000001" y="92.93000000000018" as="sourcePoint" />
            <mxPoint x="212.00000000000003" y="75.46000000000004" as="targetPoint" />
          </mxGeometry>
        </mxCell>
        <mxCell id="KYlF_QpYy4DrjIpC-7zn-77" value="off-ramp" style="edgeLabel;align=center;verticalAlign=middle;resizable=0;points=[];fontFamily=Helvetica;fontSize=8;fontColor=#6666FF;labelBackgroundColor=none;" parent="KYlF_QpYy4DrjIpC-7zn-76" vertex="1" connectable="0">
          <mxGeometry x="-0.7544" y="-1" relative="1" as="geometry">
            <mxPoint x="-6.789999999999997" y="5.85" as="offset" />
          </mxGeometry>
        </mxCell>
        <mxCell id="KYlF_QpYy4DrjIpC-7zn-53" value="" style="group;" parent="KYlF_QpYy4DrjIpC-7zn-28" vertex="1" connectable="0">
          <mxGeometry x="284" y="79.46000000000001" width="41.12" height="47.86" as="geometry" />
        </mxCell>
        <mxCell id="KYlF_QpYy4DrjIpC-7zn-54" value="" style="shape=image;verticalAlign=top;verticalLabelPosition=bottom;labelBackgroundColor=#ffffff;imageAspect=0;aspect=fixed;image=https://cdn1.iconfinder.com/data/icons/computer-hardware-line-vol-2/52/signal__device__technology__radar__satellite__antenna__tower-128.png;strokeColor=#FF33FF;strokeWidth=3;fillColor=none;gradientColor=#ffffff;" parent="KYlF_QpYy4DrjIpC-7zn-53" vertex="1">
          <mxGeometry x="10.707349729866829" y="7.130116213510293" width="15.918259931735355" height="15.918259931735355" as="geometry" />
        </mxCell>
        <mxCell id="KYlF_QpYy4DrjIpC-7zn-55" value="" style="shape=image;verticalAlign=top;verticalLabelPosition=bottom;labelBackgroundColor=#ffffff;imageAspect=0;aspect=fixed;image=https://cdn0.iconfinder.com/data/icons/isometric-city-basic-transport/480/car-taxi-front-01-128.png;strokeColor=#FF33FF;strokeWidth=3;fillColor=none;gradientColor=#ffffff;rotation=-30;" parent="KYlF_QpYy4DrjIpC-7zn-53" vertex="1">
          <mxGeometry x="5.509035396383914" y="6.9744010318359235" width="30.10192920723228" height="30.10192920723228" as="geometry" />
        </mxCell>
        <mxCell id="KYlF_QpYy4DrjIpC-7zn-61" value="" style="group;fillColor=#ffffff;" parent="i4RcE1fr88npL_jNl3nU-1" vertex="1" connectable="0">
          <mxGeometry x="333.19" y="851" width="101.70000000000003" height="51.42" as="geometry" />
        </mxCell>
        <mxCell id="KYlF_QpYy4DrjIpC-7zn-62" value="" style="rounded=1;align=center;verticalAlign=middle;fontSize=9;fontStyle=0;strokeColor=#666666;fontColor=#333333;fillColor=#99FF99;" parent="KYlF_QpYy4DrjIpC-7zn-61" vertex="1">
          <mxGeometry x="-2.68" width="101.70000000000003" height="51.41999999999999" as="geometry" />
        </mxCell>
        <mxCell id="KYlF_QpYy4DrjIpC-7zn-63" value="" style="aspect=fixed;perimeter=ellipsePerimeter;align=center;shadow=0;dashed=0;spacingTop=3;image;image=img/lib/active_directory/database_server.svg;strokeColor=#FF33FF;strokeWidth=3;fillColor=none;gradientColor=#ffffff;" parent="KYlF_QpYy4DrjIpC-7zn-61" vertex="1">
          <mxGeometry x="58.616347358997324" y="7.818835060207233" width="29.51862223466815" height="35.998319798375796" as="geometry" />
        </mxCell>
        <mxCell id="KYlF_QpYy4DrjIpC-7zn-64" value="Shared &#xa;Database &#xa;Server" style="text;resizable=0;autosize=1;align=left;verticalAlign=middle;points=[];fillColor=none;strokeColor=none;rounded=0;fontSize=10;" parent="KYlF_QpYy4DrjIpC-7zn-61" vertex="1">
          <mxGeometry x="-5.1514348342607263e-14" y="2.0023522822738844" width="53" height="37" as="geometry" />
        </mxCell>
        <mxCell id="KYlF_QpYy4DrjIpC-7zn-65" value="" style="shape=image;verticalAlign=top;verticalLabelPosition=bottom;labelBackgroundColor=#ffffff;imageAspect=0;aspect=fixed;image=https://cdn2.iconfinder.com/data/icons/flat-ui-4/100/Antenna-128.png;strokeColor=#FF33FF;strokeWidth=3;fillColor=none;gradientColor=#ffffff;rotation=0;" parent="i4RcE1fr88npL_jNl3nU-1" vertex="1">
          <mxGeometry x="375.50999999999993" y="823" width="29.68" height="29.68" as="geometry" />
        </mxCell>
        <mxCell id="KYlF_QpYy4DrjIpC-7zn-66" value="" style="endArrow=blockThin;dashed=1;fontSize=10;entryX=0.562;entryY=1.003;entryDx=0;entryDy=0;entryPerimeter=0;exitX=0.642;exitY=-0.031;exitDx=0;exitDy=0;exitPerimeter=0;startArrow=blockThin;startFill=0;endFill=0;" parent="i4RcE1fr88npL_jNl3nU-1" source="KYlF_QpYy4DrjIpC-7zn-58" target="KYlF_QpYy4DrjIpC-7zn-62" edge="1">
          <mxGeometry width="50" height="50" relative="1" as="geometry">
            <mxPoint x="348.51" y="932.54" as="sourcePoint" />
            <mxPoint x="408.49660000000017" y="872.9802400000001" as="targetPoint" />
          </mxGeometry>
        </mxCell>
        <mxCell id="KYlF_QpYy4DrjIpC-7zn-67" value="" style="endArrow=block;dashed=1;fontSize=10;entryX=0;entryY=0.5;entryDx=0;entryDy=0;exitX=0.994;exitY=0.568;exitDx=0;exitDy=0;exitPerimeter=0;startArrow=block;startFill=0;endFill=0;" parent="i4RcE1fr88npL_jNl3nU-1" source="KYlF_QpYy4DrjIpC-7zn-62" target="KYlF_QpYy4DrjIpC-7zn-27" edge="1">
          <mxGeometry width="50" height="50" relative="1" as="geometry">
            <mxPoint x="424.30474636141776" y="947.7486553315996" as="sourcePoint" />
            <mxPoint x="415.7868000000001" y="901.54586" as="targetPoint" />
          </mxGeometry>
        </mxCell>
        <mxCell id="KYlF_QpYy4DrjIpC-7zn-68" value="Road Side&#xa;Friction Measurement &#xa;Unit" style="text;resizable=0;autosize=1;align=left;verticalAlign=middle;points=[];fillColor=none;strokeColor=none;rounded=0;fontSize=9;" parent="i4RcE1fr88npL_jNl3nU-1" vertex="1">
          <mxGeometry x="481.15999999999997" y="857.1923522822739" width="97" height="37" as="geometry" />
        </mxCell>
        <mxCell id="KYlF_QpYy4DrjIpC-7zn-69" value="" style="endArrow=blockThin;dashed=1;fontSize=10;entryX=0.226;entryY=0.989;entryDx=0;entryDy=0;entryPerimeter=0;startArrow=none;startFill=0;endFill=0;exitX=0.487;exitY=0.214;exitDx=0;exitDy=0;exitPerimeter=0;" parent="i4RcE1fr88npL_jNl3nU-1" source="KYlF_QpYy4DrjIpC-7zn-47" target="KYlF_QpYy4DrjIpC-7zn-27" edge="1">
          <mxGeometry width="50" height="50" relative="1" as="geometry">
            <mxPoint x="532.51" y="927" as="sourcePoint" />
            <mxPoint x="449.7868000000001" y="901.54586" as="targetPoint" />
          </mxGeometry>
        </mxCell>
        <mxCell id="KYlF_QpYy4DrjIpC-7zn-70" value="" style="outlineConnect=0;dashed=0;verticalLabelPosition=bottom;verticalAlign=top;align=center;shape=mxgraph.aws3.sensor;fillColor=#5294CF;gradientColor=none;strokeColor=#000000;strokeWidth=3;fontSize=10;opacity=70;" parent="i4RcE1fr88npL_jNl3nU-1" vertex="1">
          <mxGeometry x="547.51" y="881" width="18.5" height="17" as="geometry" />
        </mxCell>
        <mxCell id="KYlF_QpYy4DrjIpC-7zn-71" value="" style="endArrow=none;strokeWidth=5;strokeColor=#808080;entryX=0.669;entryY=0.999;entryDx=0;entryDy=0;entryPerimeter=0;" parent="i4RcE1fr88npL_jNl3nU-1" edge="1">
          <mxGeometry width="50" height="50" relative="1" as="geometry">
            <mxPoint x="465.5100000000002" y="1011" as="sourcePoint" />
            <mxPoint x="465.5840000000003" y="1019.3142599999999" as="targetPoint" />
            <Array as="points" />
          </mxGeometry>
        </mxCell>
        <mxCell id="KYlF_QpYy4DrjIpC-7zn-72" value="" style="endArrow=blockThin;strokeColor=#FFFFFF;strokeWidth=1;endFill=1;startSize=2;endSize=2;entryX=0.286;entryY=0.555;entryDx=0;entryDy=0;entryPerimeter=0;" parent="i4RcE1fr88npL_jNl3nU-1" target="KYlF_QpYy4DrjIpC-7zn-30" edge="1">
          <mxGeometry width="50" height="50" relative="1" as="geometry">
            <mxPoint x="355.5100000000002" y="971" as="sourcePoint" />
            <mxPoint x="361.5911658032597" y="974.9875301135282" as="targetPoint" />
          </mxGeometry>
        </mxCell>
        <mxCell id="KYlF_QpYy4DrjIpC-7zn-73" value="" style="endArrow=classicThin;entryX=0.821;entryY=0.25;entryDx=0;entryDy=0;entryPerimeter=0;fillColor=#dae8fc;strokeColor=#6666FF;endFill=1;" parent="i4RcE1fr88npL_jNl3nU-1" target="KYlF_QpYy4DrjIpC-7zn-47" edge="1">
          <mxGeometry width="50" height="50" relative="1" as="geometry">
            <mxPoint x="563.5100000000002" y="933" as="sourcePoint" />
            <mxPoint x="669.51" y="921" as="targetPoint" />
          </mxGeometry>
        </mxCell>
        <mxCell id="KYlF_QpYy4DrjIpC-7zn-74" value="low friction region" style="edgeLabel;align=center;verticalAlign=middle;resizable=0;points=[];fontFamily=Helvetica;fontSize=8;fontColor=#6666FF;" parent="KYlF_QpYy4DrjIpC-7zn-73" vertex="1" connectable="0">
          <mxGeometry x="-0.7544" y="-1" relative="1" as="geometry">
            <mxPoint x="-0.5299999999999976" y="-8.98" as="offset" />
          </mxGeometry>
        </mxCell>
        <mxCell id="KYlF_QpYy4DrjIpC-7zn-75" value="" style="endArrow=blockThin;dashed=1;fontSize=10;entryX=0.958;entryY=0.972;entryDx=0;entryDy=0;entryPerimeter=0;exitX=0.495;exitY=0;exitDx=0;exitDy=0;exitPerimeter=0;startArrow=blockThin;startFill=0;endFill=0;" parent="i4RcE1fr88npL_jNl3nU-1" source="KYlF_QpYy4DrjIpC-7zn-59" target="KYlF_QpYy4DrjIpC-7zn-62" edge="1">
          <mxGeometry width="50" height="50" relative="1" as="geometry">
            <mxPoint x="433.7797408217665" y="963.3154708662587" as="sourcePoint" />
            <mxPoint x="414.7868000000001" y="911.5458600000001" as="targetPoint" />
          </mxGeometry>
        </mxCell>
        <mxCell id="KYlF_QpYy4DrjIpC-7zn-87" value="" style="shape=parallelogram;perimeter=parallelogramPerimeter;fixedSize=1;fillColor=#cdeb8b;fontFamily=Times New Roman;size=86.05630602959147;labelBorderColor=none;strokeColor=#36393d;rounded=1;" parent="i4RcE1fr88npL_jNl3nU-1" vertex="1">
          <mxGeometry x="481.15999999999997" y="109.99999999999996" width="346" height="75.74" as="geometry" />
        </mxCell>
        <mxCell id="KYlF_QpYy4DrjIpC-7zn-88" value="" style="shape=parallelogram;perimeter=parallelogramPerimeter;fixedSize=1;fontFamily=Times New Roman;size=58.28668294270827;labelBorderColor=none;fontColor=#ffffff;fillColor=#808080;strokeColor=none;" parent="i4RcE1fr88npL_jNl3nU-1" vertex="1">
          <mxGeometry x="505.1753339712501" y="113.59983982292461" width="316.69871269933407" height="51.80876689832449" as="geometry" />
        </mxCell>
        <mxCell id="KYlF_QpYy4DrjIpC-7zn-89" value="" style="endArrow=none;exitX=0.14;exitY=0.207;exitDx=0;exitDy=0;exitPerimeter=0;entryX=0.962;entryY=0.209;entryDx=0;entryDy=0;entryPerimeter=0;strokeWidth=3;fillColor=#ffff88;strokeColor=#FF9933;" parent="i4RcE1fr88npL_jNl3nU-1" edge="1">
          <mxGeometry width="50" height="50" relative="1" as="geometry">
            <mxPoint x="564.16" y="114.29382330540757" as="sourcePoint" />
            <mxPoint x="820.8733584195671" y="114.41382044935263" as="targetPoint" />
            <Array as="points" />
          </mxGeometry>
        </mxCell>
        <mxCell id="KYlF_QpYy4DrjIpC-7zn-90" value="" style="endArrow=none;exitX=0.14;exitY=0.207;exitDx=0;exitDy=0;exitPerimeter=0;entryX=0.962;entryY=0.209;entryDx=0;entryDy=0;entryPerimeter=0;strokeWidth=3;fillColor=#ffff88;strokeColor=#FFFFFF;dashed=1;rounded=1;" parent="i4RcE1fr88npL_jNl3nU-1" edge="1">
          <mxGeometry width="50" height="50" relative="1" as="geometry">
            <mxPoint x="537.5907600407828" y="129.34746501332842" as="sourcePoint" />
            <mxPoint x="719.927531681904" y="129.46746215727347" as="targetPoint" />
            <Array as="points" />
          </mxGeometry>
        </mxCell>
        <mxCell id="KYlF_QpYy4DrjIpC-7zn-91" value="" style="endArrow=none;exitX=0.14;exitY=0.207;exitDx=0;exitDy=0;exitPerimeter=0;entryX=0.962;entryY=0.209;entryDx=0;entryDy=0;entryPerimeter=0;strokeWidth=3;fillColor=#ffff88;strokeColor=#FFFFFF;" parent="i4RcE1fr88npL_jNl3nU-1" edge="1">
          <mxGeometry width="50" height="50" relative="1" as="geometry">
            <mxPoint x="524.1464620784441" y="144.40910653084535" as="sourcePoint" />
            <mxPoint x="615.387782607661" y="144.40910653084535" as="targetPoint" />
            <Array as="points" />
          </mxGeometry>
        </mxCell>
        <mxCell id="KYlF_QpYy4DrjIpC-7zn-92" value="" style="endArrow=none;exitX=0.14;exitY=0.207;exitDx=0;exitDy=0;exitPerimeter=0;strokeWidth=3;fillColor=#ffff88;strokeColor=#FFFFFF;dashed=1;" parent="i4RcE1fr88npL_jNl3nU-1" edge="1">
          <mxGeometry width="50" height="50" relative="1" as="geometry">
            <mxPoint x="624.6375244366023" y="145.09309025133285" as="sourcePoint" />
            <mxPoint x="694.67" y="145.32999999999998" as="targetPoint" />
            <Array as="points" />
          </mxGeometry>
        </mxCell>
        <mxCell id="KYlF_QpYy4DrjIpC-7zn-93" value="" style="endArrow=none;entryX=0.962;entryY=0.209;entryDx=0;entryDy=0;entryPerimeter=0;strokeWidth=3;fillColor=#ffff88;strokeColor=#FFFFFF;" parent="i4RcE1fr88npL_jNl3nU-1" edge="1">
          <mxGeometry width="50" height="50" relative="1" as="geometry">
            <mxPoint x="692.67" y="145.32999999999998" as="sourcePoint" />
            <mxPoint x="793.6726259900908" y="145.09309025133285" as="targetPoint" />
            <Array as="points" />
          </mxGeometry>
        </mxCell>
        <mxCell id="KYlF_QpYy4DrjIpC-7zn-94" value="" style="endArrow=blockThin;strokeColor=#FFFFFF;strokeWidth=1;endFill=1;startSize=2;endSize=2;" parent="i4RcE1fr88npL_jNl3nU-1" edge="1">
          <mxGeometry width="50" height="50" relative="1" as="geometry">
            <mxPoint x="686.7017199606329" y="136.40929693450113" as="sourcePoint" />
            <mxPoint x="696.4263477814928" y="136.40929693450113" as="targetPoint" />
          </mxGeometry>
        </mxCell>
        <mxCell id="KYlF_QpYy4DrjIpC-7zn-95" value="" style="endArrow=blockThin;strokeColor=#FFFFFF;strokeWidth=1;endFill=1;startSize=2;endSize=2;" parent="i4RcE1fr88npL_jNl3nU-1" edge="1">
          <mxGeometry width="50" height="50" relative="1" as="geometry">
            <mxPoint x="702.8073244032804" y="121.28365694021325" as="sourcePoint" />
            <mxPoint x="712.5319522241401" y="121.28365694021325" as="targetPoint" />
          </mxGeometry>
        </mxCell>
        <mxCell id="KYlF_QpYy4DrjIpC-7zn-96" value="" style="endArrow=blockThin;strokeColor=#FFFFFF;strokeWidth=1;endFill=1;startSize=2;endSize=2;" parent="i4RcE1fr88npL_jNl3nU-1" edge="1">
          <mxGeometry width="50" height="50" relative="1" as="geometry">
            <mxPoint x="598.1654667369185" y="121.15765993907083" as="sourcePoint" />
            <mxPoint x="607.8900945577783" y="121.15765993907083" as="targetPoint" />
          </mxGeometry>
        </mxCell>
        <mxCell id="KYlF_QpYy4DrjIpC-7zn-97" value="" style="endArrow=none;exitX=0.14;exitY=0.207;exitDx=0;exitDy=0;exitPerimeter=0;entryX=0.962;entryY=0.209;entryDx=0;entryDy=0;entryPerimeter=0;strokeWidth=3;fillColor=#ffff88;strokeColor=#FFFFFF;" parent="i4RcE1fr88npL_jNl3nU-1" edge="1">
          <mxGeometry width="50" height="50" relative="1" as="geometry">
            <mxPoint x="723.9794599405956" y="129.3474650133283" as="sourcePoint" />
            <mxPoint x="807.449182069642" y="129.3474650133283" as="targetPoint" />
            <Array as="points" />
          </mxGeometry>
        </mxCell>
        <mxCell id="KYlF_QpYy4DrjIpC-7zn-98" value="" style="endArrow=none;strokeWidth=25;entryX=0.669;entryY=0.999;entryDx=0;entryDy=0;entryPerimeter=0;exitX=0.598;exitY=0.941;exitDx=0;exitDy=0;exitPerimeter=0;strokeColor=#808080;" parent="i4RcE1fr88npL_jNl3nU-1" source="KYlF_QpYy4DrjIpC-7zn-88" target="KYlF_QpYy4DrjIpC-7zn-87" edge="1">
          <mxGeometry width="50" height="50" relative="1" as="geometry">
            <mxPoint x="486.66999999999996" y="-306.21" as="sourcePoint" />
            <mxPoint x="521.6700000000002" y="-248.20999999999998" as="targetPoint" />
            <Array as="points">
              <mxPoint x="712.67" y="172.32999999999998" />
            </Array>
          </mxGeometry>
        </mxCell>
        <mxCell id="KYlF_QpYy4DrjIpC-7zn-99" value="" style="endArrow=none;strokeWidth=5;strokeColor=#808080;entryX=0.611;entryY=1.006;entryDx=0;entryDy=0;entryPerimeter=0;exitX=0.491;exitY=0.941;exitDx=0;exitDy=0;exitPerimeter=0;" parent="i4RcE1fr88npL_jNl3nU-1" source="KYlF_QpYy4DrjIpC-7zn-88" target="KYlF_QpYy4DrjIpC-7zn-87" edge="1">
          <mxGeometry width="50" height="50" relative="1" as="geometry">
            <mxPoint x="458.6711641654517" y="-302.1081105257519" as="sourcePoint" />
            <mxPoint x="476.74400000000014" y="-278.7957400000001" as="targetPoint" />
            <Array as="points">
              <mxPoint x="682.67" y="172.32999999999998" />
            </Array>
          </mxGeometry>
        </mxCell>
        <mxCell id="KYlF_QpYy4DrjIpC-7zn-100" value="" style="endArrow=none;strokeWidth=5;strokeColor=#808080;entryX=0.669;entryY=0.999;entryDx=0;entryDy=0;entryPerimeter=0;exitX=0.598;exitY=0.941;exitDx=0;exitDy=0;exitPerimeter=0;" parent="i4RcE1fr88npL_jNl3nU-1" edge="1">
          <mxGeometry width="50" height="50" relative="1" as="geometry">
            <mxPoint x="684.6711641654518" y="160.33188947424804" as="sourcePoint" />
            <mxPoint x="702.7440000000003" y="183.64425999999986" as="targetPoint" />
            <Array as="points">
              <mxPoint x="702.78" y="170.31" />
            </Array>
          </mxGeometry>
        </mxCell>
        <mxCell id="KYlF_QpYy4DrjIpC-7zn-101" value="" style="endArrow=none;strokeWidth=5;strokeColor=#808080;entryX=0.712;entryY=1.004;entryDx=0;entryDy=0;entryPerimeter=0;exitX=0.491;exitY=0.941;exitDx=0;exitDy=0;exitPerimeter=0;" parent="i4RcE1fr88npL_jNl3nU-1" edge="1">
          <mxGeometry width="50" height="50" relative="1" as="geometry">
            <mxPoint x="706.6744019066233" y="151.33188947424793" as="sourcePoint" />
            <mxPoint x="726.5120000000001" y="186.04295999999994" as="targetPoint" />
            <Array as="points">
              <mxPoint x="721.67" y="163.32999999999998" />
              <mxPoint x="726.67" y="177.32999999999998" />
            </Array>
          </mxGeometry>
        </mxCell>
        <mxCell id="KYlF_QpYy4DrjIpC-7zn-102" value="" style="endArrow=none;strokeWidth=3;entryX=0.669;entryY=0.999;entryDx=0;entryDy=0;entryPerimeter=0;strokeColor=#FFFFFF;" parent="i4RcE1fr88npL_jNl3nU-1" edge="1">
          <mxGeometry width="50" height="50" relative="1" as="geometry">
            <mxPoint x="713.67" y="158.32999999999998" as="sourcePoint" />
            <mxPoint x="724.744" y="185.7442600000001" as="targetPoint" />
            <Array as="points">
              <mxPoint x="724.78" y="172.41000000000003" />
            </Array>
          </mxGeometry>
        </mxCell>
        <mxCell id="KYlF_QpYy4DrjIpC-7zn-103" value="" style="endArrow=none;strokeWidth=3;strokeColor=#FFFFFF;" parent="i4RcE1fr88npL_jNl3nU-1" edge="1">
          <mxGeometry width="50" height="50" relative="1" as="geometry">
            <mxPoint x="686.67" y="145.32999999999998" as="sourcePoint" />
            <mxPoint x="714.67" y="159.32999999999998" as="targetPoint" />
            <Array as="points">
              <mxPoint x="705.67" y="151.32999999999998" />
            </Array>
          </mxGeometry>
        </mxCell>
        <mxCell id="KYlF_QpYy4DrjIpC-7zn-104" value="" style="endArrow=blockThin;strokeColor=#FFFFFF;strokeWidth=1;endFill=1;startSize=2;endSize=2;entryX=0.295;entryY=0.458;entryDx=0;entryDy=0;entryPerimeter=0;" parent="i4RcE1fr88npL_jNl3nU-1" target="KYlF_QpYy4DrjIpC-7zn-88" edge="1">
          <mxGeometry width="50" height="50" relative="1" as="geometry">
            <mxPoint x="582.6654667369183" y="137.24765993907084" as="sourcePoint" />
            <mxPoint x="384.39009455777835" y="-327.2923400609291" as="targetPoint" />
          </mxGeometry>
        </mxCell>
        <mxCell id="KYlF_QpYy4DrjIpC-7zn-107" value="" style="endArrow=none;strokeWidth=5;strokeColor=#808080;entryX=0.669;entryY=0.999;entryDx=0;entryDy=0;entryPerimeter=0;exitX=0.598;exitY=0.941;exitDx=0;exitDy=0;exitPerimeter=0;" parent="i4RcE1fr88npL_jNl3nU-1" edge="1">
          <mxGeometry width="50" height="50" relative="1" as="geometry">
            <mxPoint x="675.4411641654518" y="162.43188947424795" as="sourcePoint" />
            <mxPoint x="693.5140000000002" y="185.74425999999988" as="targetPoint" />
            <Array as="points">
              <mxPoint x="693.4399999999999" y="172.43" />
            </Array>
          </mxGeometry>
        </mxCell>
        <mxCell id="KYlF_QpYy4DrjIpC-7zn-109" value="" style="endArrow=none;strokeColor=#FFFFFF;strokeWidth=3;curved=1;endFill=0;entryX=0.615;entryY=0.991;entryDx=0;entryDy=0;entryPerimeter=0;" parent="i4RcE1fr88npL_jNl3nU-1" target="KYlF_QpYy4DrjIpC-7zn-87" edge="1">
          <mxGeometry width="50" height="50" relative="1" as="geometry">
            <mxPoint x="607.3877826076612" y="144.40910653084535" as="sourcePoint" />
            <mxPoint x="471.66999999999996" y="-280.21" as="targetPoint" />
            <Array as="points">
              <mxPoint x="616.3020247767827" y="144.40910653084535" />
              <mxPoint x="651.67" y="156.32999999999998" />
              <mxPoint x="689.67" y="171.32999999999998" />
            </Array>
          </mxGeometry>
        </mxCell>
        <mxCell id="KYlF_QpYy4DrjIpC-7zn-118" value="" style="endArrow=blockThin;strokeColor=#FFFFFF;strokeWidth=1;endFill=1;startSize=2;endSize=2;entryX=0.286;entryY=0.555;entryDx=0;entryDy=0;entryPerimeter=0;" parent="i4RcE1fr88npL_jNl3nU-1" target="KYlF_QpYy4DrjIpC-7zn-88" edge="1">
          <mxGeometry width="50" height="50" relative="1" as="geometry">
            <mxPoint x="587.67" y="137.32999999999998" as="sourcePoint" />
            <mxPoint x="593.7511658032597" y="141.31753011352822" as="targetPoint" />
          </mxGeometry>
        </mxCell>
        <mxCell id="KYlF_QpYy4DrjIpC-7zn-121" value="" style="rounded=0;whiteSpace=wrap;html=1;fillColor=#808080;strokeColor=none;" parent="i4RcE1fr88npL_jNl3nU-1" vertex="1">
          <mxGeometry x="695.16" y="177.32999999999998" width="6" height="8" as="geometry" />
        </mxCell>
        <mxCell id="KYlF_QpYy4DrjIpC-7zn-122" value="" style="endArrow=none;strokeWidth=5;strokeColor=#808080;entryX=0.669;entryY=0.999;entryDx=0;entryDy=0;entryPerimeter=0;exitX=0.598;exitY=0.941;exitDx=0;exitDy=0;exitPerimeter=0;" parent="i4RcE1fr88npL_jNl3nU-1" edge="1">
          <mxGeometry width="50" height="50" relative="1" as="geometry">
            <mxPoint x="683.0511641654518" y="162.02188947424804" as="sourcePoint" />
            <mxPoint x="701.1240000000003" y="185.33425999999986" as="targetPoint" />
            <Array as="points">
              <mxPoint x="701.16" y="172" />
            </Array>
          </mxGeometry>
        </mxCell>
        <mxCell id="KYlF_QpYy4DrjIpC-7zn-125" value="the Road shape is generated by Powerpoint and saved as svg format." style="edgeLabel;align=center;verticalAlign=middle;resizable=0;points=[];fontFamily=Helvetica;fontSize=8;fontColor=#6666FF;" parent="i4RcE1fr88npL_jNl3nU-1" vertex="1" connectable="0">
          <mxGeometry x="190.99720870893998" y="258.9981745474912" as="geometry">
            <mxPoint x="127" y="-146" as="offset" />
          </mxGeometry>
        </mxCell>
        <mxCell id="KYlF_QpYy4DrjIpC-7zn-128" value="" style="endArrow=blockThin;dashed=1;fontSize=10;entryX=0.867;entryY=1.004;entryDx=0;entryDy=0;exitX=0.25;exitY=0;exitDx=0;exitDy=0;startArrow=blockThin;startFill=0;endFill=0;entryPerimeter=0;" parent="i4RcE1fr88npL_jNl3nU-1" source="KYlF_QpYy4DrjIpC-7zn-141" target="Za7xxilf6f-1Jp0edNZU-81" edge="1">
          <mxGeometry width="50" height="50" relative="1" as="geometry">
            <mxPoint x="431.0102496625864" y="370.9960434412933" as="sourcePoint" />
            <mxPoint x="375.93860000000006" y="326.98024" as="targetPoint" />
          </mxGeometry>
        </mxCell>
        <mxCell id="KYlF_QpYy4DrjIpC-7zn-134" value="" style="group;" parent="i4RcE1fr88npL_jNl3nU-1" vertex="1" connectable="0">
          <mxGeometry x="465" y="348" width="41.12" height="47.86" as="geometry" />
        </mxCell>
        <mxCell id="KYlF_QpYy4DrjIpC-7zn-135" value="" style="shape=image;verticalAlign=top;verticalLabelPosition=bottom;labelBackgroundColor=#ffffff;imageAspect=0;aspect=fixed;image=https://cdn1.iconfinder.com/data/icons/computer-hardware-line-vol-2/52/signal__device__technology__radar__satellite__antenna__tower-128.png;strokeColor=#FF33FF;strokeWidth=3;fillColor=none;gradientColor=#ffffff;" parent="KYlF_QpYy4DrjIpC-7zn-134" vertex="1">
          <mxGeometry x="10.707349729866829" y="7.130116213510293" width="15.918259931735355" height="15.918259931735355" as="geometry" />
        </mxCell>
        <mxCell id="KYlF_QpYy4DrjIpC-7zn-136" value="" style="shape=image;verticalAlign=top;verticalLabelPosition=bottom;labelBackgroundColor=#ffffff;imageAspect=0;aspect=fixed;image=https://cdn0.iconfinder.com/data/icons/isometric-city-basic-transport/480/car-taxi-front-01-128.png;strokeColor=#FF33FF;strokeWidth=3;fillColor=none;gradientColor=#ffffff;rotation=-30;" parent="KYlF_QpYy4DrjIpC-7zn-134" vertex="1">
          <mxGeometry x="5.509035396383914" y="6.9744010318359235" width="30.10192920723228" height="30.10192920723228" as="geometry" />
        </mxCell>
        <mxCell id="KYlF_QpYy4DrjIpC-7zn-138" value="" style="group;" parent="i4RcE1fr88npL_jNl3nU-1" vertex="1" connectable="0">
          <mxGeometry x="373" y="349" width="41.12" height="47.86" as="geometry" />
        </mxCell>
        <mxCell id="KYlF_QpYy4DrjIpC-7zn-139" value="" style="shape=image;verticalAlign=top;verticalLabelPosition=bottom;labelBackgroundColor=#ffffff;imageAspect=0;aspect=fixed;image=https://cdn1.iconfinder.com/data/icons/computer-hardware-line-vol-2/52/signal__device__technology__radar__satellite__antenna__tower-128.png;strokeColor=#FF33FF;strokeWidth=3;fillColor=none;gradientColor=#ffffff;" parent="KYlF_QpYy4DrjIpC-7zn-138" vertex="1">
          <mxGeometry x="10.71" y="7" width="16.05" height="16.05" as="geometry" />
        </mxCell>
        <mxCell id="KYlF_QpYy4DrjIpC-7zn-140" value="" style="shape=image;verticalAlign=top;verticalLabelPosition=bottom;labelBackgroundColor=#ffffff;imageAspect=0;aspect=fixed;image=https://cdn0.iconfinder.com/data/icons/isometric-city-basic-transport/480/car-taxi-front-01-128.png;strokeColor=#FF33FF;strokeWidth=3;fillColor=none;gradientColor=#ffffff;rotation=-30;" parent="KYlF_QpYy4DrjIpC-7zn-138" vertex="1">
          <mxGeometry x="5.509035396383914" y="6.9744010318359235" width="30.10192920723228" height="30.10192920723228" as="geometry" />
        </mxCell>
        <mxCell id="KYlF_QpYy4DrjIpC-7zn-143" value="" style="group" parent="i4RcE1fr88npL_jNl3nU-1" vertex="1" connectable="0">
          <mxGeometry x="424.99774896200654" y="381.9977489620066" width="37.610955391666494" height="37.610955391666494" as="geometry" />
        </mxCell>
        <mxCell id="KYlF_QpYy4DrjIpC-7zn-142" value="" style="shape=image;verticalAlign=top;verticalLabelPosition=bottom;labelBackgroundColor=#ffffff;imageAspect=0;aspect=fixed;image=https://cdn1.iconfinder.com/data/icons/computer-hardware-line-vol-2/52/signal__device__technology__radar__satellite__antenna__tower-128.png;strokeColor=#FF33FF;strokeWidth=3;fillColor=none;gradientColor=#ffffff;" parent="KYlF_QpYy4DrjIpC-7zn-143" vertex="1">
          <mxGeometry x="6.332251037993444" y="0.5722510379933965" width="16.05" height="16.05" as="geometry" />
        </mxCell>
        <mxCell id="KYlF_QpYy4DrjIpC-7zn-141" value="" style="shape=image;verticalAlign=top;verticalLabelPosition=bottom;labelBackgroundColor=#ffffff;imageAspect=0;aspect=fixed;image=https://cdn0.iconfinder.com/data/icons/isometric-city-basic-transport/480/car-front-02-128.png;strokeColor=#FF33FF;strokeWidth=3;fillColor=none;gradientColor=#ffffff;rotation=10;" parent="KYlF_QpYy4DrjIpC-7zn-143" vertex="1">
          <mxGeometry x="2.5722510379933965" y="2.5722510379933965" width="32.466453315679715" height="32.466453315679715" as="geometry" />
        </mxCell>
        <mxCell id="KYlF_QpYy4DrjIpC-7zn-144" value="" style="group" parent="i4RcE1fr88npL_jNl3nU-1" vertex="1" connectable="0">
          <mxGeometry x="304.99774896200654" y="354.42774896200666" width="37.610955391666494" height="37.610955391666494" as="geometry" />
        </mxCell>
        <mxCell id="KYlF_QpYy4DrjIpC-7zn-145" value="" style="shape=image;verticalAlign=top;verticalLabelPosition=bottom;labelBackgroundColor=#ffffff;imageAspect=0;aspect=fixed;image=https://cdn1.iconfinder.com/data/icons/computer-hardware-line-vol-2/52/signal__device__technology__radar__satellite__antenna__tower-128.png;strokeColor=#FF33FF;strokeWidth=3;fillColor=none;gradientColor=#ffffff;" parent="KYlF_QpYy4DrjIpC-7zn-144" vertex="1">
          <mxGeometry x="6.332251037993444" y="0.5722510379933965" width="16.05" height="16.05" as="geometry" />
        </mxCell>
        <mxCell id="KYlF_QpYy4DrjIpC-7zn-146" value="" style="shape=image;verticalAlign=top;verticalLabelPosition=bottom;labelBackgroundColor=#ffffff;imageAspect=0;aspect=fixed;image=https://cdn0.iconfinder.com/data/icons/isometric-city-basic-transport/480/car-front-02-128.png;strokeColor=#FF33FF;strokeWidth=3;fillColor=none;gradientColor=#ffffff;rotation=-30;" parent="KYlF_QpYy4DrjIpC-7zn-144" vertex="1">
          <mxGeometry x="0.5722510379933965" y="-0.4277489620066035" width="32.466453315679715" height="32.466453315679715" as="geometry" />
        </mxCell>
        <mxCell id="KYlF_QpYy4DrjIpC-7zn-147" value="" style="endArrow=blockThin;dashed=1;fontSize=10;entryX=0.995;entryY=0.939;entryDx=0;entryDy=0;entryPerimeter=0;exitX=0.581;exitY=0.016;exitDx=0;exitDy=0;startArrow=blockThin;startFill=0;endFill=0;exitPerimeter=0;" parent="i4RcE1fr88npL_jNl3nU-1" source="KYlF_QpYy4DrjIpC-7zn-136" target="Za7xxilf6f-1Jp0edNZU-81" edge="1">
          <mxGeometry width="50" height="50" relative="1" as="geometry">
            <mxPoint x="448.6287931501055" y="393.40718407540055" as="sourcePoint" />
            <mxPoint x="406.7677" y="322.28337999999997" as="targetPoint" />
          </mxGeometry>
        </mxCell>
        <mxCell id="KYlF_QpYy4DrjIpC-7zn-148" value="" style="endArrow=classicThin;fillColor=#dae8fc;endFill=1;" parent="i4RcE1fr88npL_jNl3nU-1" edge="1">
          <mxGeometry width="50" height="50" relative="1" as="geometry">
            <mxPoint x="401" y="410" as="sourcePoint" />
            <mxPoint x="423.08" y="403" as="targetPoint" />
          </mxGeometry>
        </mxCell>
        <mxCell id="KYlF_QpYy4DrjIpC-7zn-149" value="off-ramp" style="edgeLabel;align=center;verticalAlign=middle;resizable=0;points=[];fontFamily=Helvetica;fontSize=8;labelBackgroundColor=none;" parent="KYlF_QpYy4DrjIpC-7zn-148" vertex="1" connectable="0">
          <mxGeometry x="-0.7544" y="-1" relative="1" as="geometry">
            <mxPoint x="-8.429999999999998" y="2.8899999999999997" as="offset" />
          </mxGeometry>
        </mxCell>
        <mxCell id="KYlF_QpYy4DrjIpC-7zn-150" value="low friction region(e.g. ice, snow, water)" style="edgeLabel;align=center;verticalAlign=middle;resizable=0;points=[];fontFamily=Helvetica;fontSize=8;labelBackgroundColor=none;fontColor=#1BA1E2;" parent="i4RcE1fr88npL_jNl3nU-1" vertex="1" connectable="0">
          <mxGeometry x="401.32066210470447" y="436.00122380615085" as="geometry" />
        </mxCell>
        <mxCell id="KYlF_QpYy4DrjIpC-7zn-151" value="" style="shape=parallelogram;perimeter=parallelogramPerimeter;fixedSize=1;fontFamily=Times New Roman;size=16.044270098286347;labelBorderColor=none;fontColor=#ffffff;strokeColor=none;opacity=70;fillColor=#1BA1E2;" parent="i4RcE1fr88npL_jNl3nU-1" vertex="1">
          <mxGeometry x="286.68" y="429.30999999999995" width="46.49" height="13.39" as="geometry" />
        </mxCell>
        <mxCell id="pT6Asb4YuqWnxuMA6mH4-0" value="" style="shape=image;verticalLabelPosition=bottom;labelBackgroundColor=#ffffff;verticalAlign=top;aspect=fixed;imageAspect=0;image=data:image/svg+xml,PHN2ZyB4bWxucz0iaHR0cDovL3d3dy53My5vcmcvMjAwMC9zdmciIHhtbG5zOnhsaW5rPSJodHRwOi8vd3d3LnczLm9yZy8xOTk5L3hsaW5rIiB3aWR0aD0iMTE1NS4yMDU5MzI2MTcxODc1IiBoZWlnaHQ9IjI2MC43MzkzMTg4NDc2NTYyNSIgb3ZlcmZsb3c9ImhpZGRlbiIgdmlld0JveD0iMTcuMzk1NjQ4OTU2Mjk4ODI4IDEuNTgxNjgwMjk3ODUxNTYyNSAxMTU1LjIwNTkzMjYxNzE4NzUgMjYwLjczOTMxODg0NzY1NjI1Ij48ZGVmcz48Y2xpcFBhdGggaWQ9ImNsaXAwIj48cmVjdCB4PSIxNyIgeT0iMTkwIiB3aWR0aD0iMTE5MCIgaGVpZ2h0PSIzMTAiLz48L2NsaXBQYXRoPjxjbGlwUGF0aCBpZD0iY2xpcDEiPjxyZWN0IHg9IjE4IiB5PSIxOTEiIHdpZHRoPSIxMTg4IiBoZWlnaHQ9IjMwOCIvPjwvY2xpcFBhdGg+PGNsaXBQYXRoIGlkPSJjbGlwMiI+PHJlY3QgeD0iMTgiIHk9IjE5MSIgd2lkdGg9IjExODgiIGhlaWdodD0iMzA4Ii8+PC9jbGlwUGF0aD48Y2xpcFBhdGggaWQ9ImNsaXAzIj48cmVjdCB4PSIxOCIgeT0iMTkxIiB3aWR0aD0iMTE4OCIgaGVpZ2h0PSIzMDgiLz48L2NsaXBQYXRoPjwvZGVmcz48ZyBjbGlwLXBhdGg9InVybCgjY2xpcDApIiB0cmFuc2Zvcm09InRyYW5zbGF0ZSgtMTcgLTE5MCkiPjxnIGNsaXAtcGF0aD0idXJsKCNjbGlwMSkiPjxnIGNsaXAtcGF0aD0idXJsKCNjbGlwMikiPjxnIGNsaXAtcGF0aD0idXJsKCNjbGlwMykiPjxwYXRoIGQ9Ik00NDQuNzg2IDI1OC4wNyAzNC4yMjIyIDI1OC4wN0MxMS40MDc0IDI1OC4wNyA4LjU2Njk2IDI1MC41MjkgMjUuNzAwOSAyMzUuNDQ5TDI2OC44MTYgMjEuNDkxNkMyODUuOTQ5IDYuNDEwOTYgMzA1LjkyNC0xLjEyOTMzIDMyOC43MzktMS4xMjkzM0wxMTQ5Ljg3LTEuMTI5MzNDMTE3Mi42OC0xLjEyOTMzIDExNzUuNTIgNi40MTA5NiAxMTU4LjM5IDIxLjQ5MTZMOTE1LjI3MyAyMzUuNDQ5Qzg5OC4xMzkgMjUwLjUyOSA4NzguMTY1IDI1OC4wNyA4NTUuMzUgMjU4LjA3WiIgc3Ryb2tlPSIjMzYzOTNEIiBzdHJva2Utd2lkdGg9IjMuNDIyMjIiIHN0cm9rZS1taXRlcmxpbWl0PSIxMCIgZmlsbD0iI0NERUI4QiIgdHJhbnNmb3JtPSJtYXRyaXgoMS4wMDA0MSAwIDAgMSAxOS43MTE4IDE5Mi43MTEpIi8+PHBhdGggZD0iTTgyLjIwMTggMTg4LjQ5NiAyODEuNjQ5IDExLjE5MDcgMTE2NS45OSAxMS4xOTA3IDk2Ni41MzggMTg4LjQ5NloiIGZpbGw9IiM4MDgwODAiIHRyYW5zZm9ybT0ibWF0cml4KDEuMDAwNDEgMCAwIDEgMTkuNzExOCAxOTIuNzExKSIvPjxwYXRoIGQ9Ik0yODQuMDQ0IDEzLjU1MiAxMTYyLjU2IDEzLjk2MjciIHN0cm9rZT0iI0ZGOTkzMyIgc3Ryb2tlLXdpZHRoPSIxMC4yNjY3IiBzdHJva2UtbWl0ZXJsaW1pdD0iMTAiIGZpbGw9Im5vbmUiIHRyYW5zZm9ybT0ibWF0cml4KDEuMDAwNDEgMCAwIDEgMTkuNzExOCAxOTIuNzExKSIvPjxwYXRoIGQ9Ik0xOTMuMTE2IDY1LjA5MDcgODE3LjEyNCA2NS41MDEzIiBzdHJva2U9IiNGRkZGRkYiIHN0cm9rZS13aWR0aD0iMTAuMjY2NyIgc3Ryb2tlLW1pdGVybGltaXQ9IjEwIiBzdHJva2UtZGFzaGFycmF5PSIzMC44IDMwLjgiIGZpbGw9Im5vbmUiIHRyYW5zZm9ybT0ibWF0cml4KDEuMDAwNDEgMCAwIDEgMTkuNzExOCAxOTIuNzExKSIvPjxwYXRoIGQ9Ik0xNDcuMTIxIDExNi42MjkgNDU5LjM2NSAxMTYuNjI5IiBzdHJva2U9IiNGRkZGRkYiIHN0cm9rZS13aWR0aD0iMTAuMjY2NyIgc3Ryb2tlLW1pdGVybGltaXQ9IjEwIiBmaWxsPSJub25lIiB0cmFuc2Zvcm09Im1hdHJpeCgxLjAwMDQxIDAgMCAxIDE5LjcxMTggMTkyLjcxMSkiLz48cGF0aCBkPSJNNDkxLjAyIDExOC45NTYgNzMwLjY3OSAxMTkuNzc4IiBzdHJva2U9IiNGRkZGRkYiIHN0cm9rZS13aWR0aD0iMTAuMjY2NyIgc3Ryb2tlLW1pdGVybGltaXQ9IjEwIiBzdHJva2UtZGFzaGFycmF5PSIzMC44IDMwLjgiIGZpbGw9Im5vbmUiIHRyYW5zZm9ybT0ibWF0cml4KDEuMDAwNDEgMCAwIDEgMTkuNzExOCAxOTIuNzExKSIvPjxwYXRoIGQ9Ik03MjMuODM0IDExOS43NzggMTA2OS40OCAxMTguOTU2IiBzdHJva2U9IiNGRkZGRkYiIHN0cm9rZS13aWR0aD0iMTAuMjY2NyIgc3Ryb2tlLW1pdGVybGltaXQ9IjEwIiBmaWxsPSJub25lIiB0cmFuc2Zvcm09Im1hdHJpeCgxLjAwMDQxIDAgMCAxIDE5LjcxMTggMTkyLjcxMSkiLz48cGF0aCBkPSJNNzAzLjQwNCA4OS4yNTE2IDcyMi42MDIgODkuMjUxNiIgc3Ryb2tlPSIjRkZGRkZGIiBzdHJva2Utd2lkdGg9IjMuNDIyMjIiIHN0cm9rZS1taXRlcmxpbWl0PSIxMCIgZmlsbD0ibm9uZSIgdHJhbnNmb3JtPSJtYXRyaXgoMS4wMDA0MSAwIDAgMSAxOS43MTE4IDE5Mi43MTEpIi8+PHBhdGggZD0iTTczMi44NjkgODkuMjUxNiA3MjIuNjAyIDkyLjY3MzggNzIyLjYwMiA4NS44MjkzWiIgc3Ryb2tlPSIjRkZGRkZGIiBzdHJva2Utd2lkdGg9IjMuNDIyMjIiIHN0cm9rZS1taXRlcmxpbWl0PSIxMCIgZmlsbD0iI0ZGRkZGRiIgdHJhbnNmb3JtPSJtYXRyaXgoMS4wMDA0MSAwIDAgMSAxOS43MTE4IDE5Mi43MTEpIi8+PHBhdGggZD0iTTc1OC41MzYgMzcuNDczMyA3NzcuNyAzNy40NzMzIiBzdHJva2U9IiNGRkZGRkYiIHN0cm9rZS13aWR0aD0iMy40MjIyMiIgc3Ryb2tlLW1pdGVybGltaXQ9IjEwIiBmaWxsPSJub25lIiB0cmFuc2Zvcm09Im1hdHJpeCgxLjAwMDQxIDAgMCAxIDE5LjcxMTggMTkyLjcxMSkiLz48cGF0aCBkPSJNNzg3Ljk2NyAzNy40NzMzIDc3Ny43IDQwLjg5NTYgNzc3LjcgMzQuMDUxMVoiIHN0cm9rZT0iI0ZGRkZGRiIgc3Ryb2tlLXdpZHRoPSIzLjQyMjIyIiBzdHJva2UtbWl0ZXJsaW1pdD0iMTAiIGZpbGw9IiNGRkZGRkYiIHRyYW5zZm9ybT0ibWF0cml4KDEuMDAwNDEgMCAwIDEgMTkuNzExOCAxOTIuNzExKSIvPjxwYXRoIGQ9Ik00MDAuNDM0IDM3LjA2MjcgNDE5LjU5OSAzNy4wNjI3IiBzdHJva2U9IiNGRkZGRkYiIHN0cm9rZS13aWR0aD0iMy40MjIyMiIgc3Ryb2tlLW1pdGVybGltaXQ9IjEwIiBmaWxsPSJub25lIiB0cmFuc2Zvcm09Im1hdHJpeCgxLjAwMDQxIDAgMCAxIDE5LjcxMTggMTkyLjcxMSkiLz48cGF0aCBkPSJNNDI5Ljg2NSAzNy4wNjI3IDQxOS41OTkgNDAuNDg0OSA0MTkuNTk5IDMzLjY0MDRaIiBzdHJva2U9IiNGRkZGRkYiIHN0cm9rZS13aWR0aD0iMy40MjIyMiIgc3Ryb2tlLW1pdGVybGltaXQ9IjEwIiBmaWxsPSIjRkZGRkZGIiB0cmFuc2Zvcm09Im1hdHJpeCgxLjAwMDQxIDAgMCAxIDE5LjcxMTggMTkyLjcxMSkiLz48cGF0aCBkPSJNODMwLjk4NCA2NS4wOTA3IDExMTYuNjQgNjUuMDkwNyIgc3Ryb2tlPSIjRkZGRkZGIiBzdHJva2Utd2lkdGg9IjEwLjI2NjciIHN0cm9rZS1taXRlcmxpbWl0PSIxMCIgZmlsbD0ibm9uZSIgdHJhbnNmb3JtPSJtYXRyaXgoMS4wMDA0MSAwIDAgMSAxOS43MTE4IDE5Mi43MTEpIi8+PHBhdGggZD0iTTczMC4zMDIgMTc4LjAyNCA3NjIuMyAxOTUuNjQ4Qzc4Mi4yODYgMjA2LjY2OCA3OTIuMjU2IDIxOS43ODcgNzkyLjIxIDIzNS4wMDRMNzkyLjE0MiAyNTcuNzk2IiBzdHJva2U9IiM4MDgwODAiIHN0cm9rZS13aWR0aD0iODUuNTU1NiIgc3Ryb2tlLW1pdGVybGltaXQ9IjEwIiBmaWxsPSJub25lIiB0cmFuc2Zvcm09Im1hdHJpeCgxLjAwMDQxIDAgMCAxIDE5LjcxMTggMTkyLjcxMSkiLz48cGF0aCBkPSJNNjE0LjMyMyAxNzguMDI0IDY1OC40MzYgMTk4LjA0NEM2NzkuMjIgMjA3LjQ2NyA2OTUuMjU5IDIyMC4wODMgNzA2LjU1MiAyMzUuODk0TDcyMy40OTIgMjU5LjYxIiBzdHJva2U9IiM4MDgwODAiIHN0cm9rZS13aWR0aD0iMTcuMTExMSIgc3Ryb2tlLW1pdGVybGltaXQ9IjEwIiBmaWxsPSJub25lIiB0cmFuc2Zvcm09Im1hdHJpeCgxLjAwMDQxIDAgMCAxIDE5LjcxMTggMTkyLjcxMSkiLz48cGF0aCBkPSJNNjk2LjQ1NiAxNzEuMTExIDcyOC40NTQgMTg4LjczNkM3NDguNDQgMTk5Ljc1NSA3NTguNDEgMjEyLjg3NCA3NTguMzY0IDIyOC4wOTFMNzU4LjI5NiAyNTAuODgzIiBzdHJva2U9IiM4MDgwODAiIHN0cm9rZS13aWR0aD0iMTcuMTExMSIgc3Ryb2tlLW1pdGVybGltaXQ9IjEwIiBmaWxsPSJub25lIiB0cmFuc2Zvcm09Im1hdHJpeCgxLjAwMDQxIDAgMCAxIDE5LjcxMTggMTkyLjcxMSkiLz48cGF0aCBkPSJNNzcxLjc0NSAxNDAuMzExIDc5Ny40MTIgMTYwLjg0NEM4MTQuNTIzIDE3NC41MzMgODI1LjkzMSAxODkuMzYzIDgzMS42MzQgMjA1LjMzM0w4MzUuOTEyIDIxNy4zMTFDODM4Ljc2NCAyMjUuMjk2IDg0MC4wOTkgMjM0LjI2MyA4MzkuOTE2IDI0NC4yMUw4MzkuNjQyIDI1OS4wOTYiIHN0cm9rZT0iIzgwODA4MCIgc3Ryb2tlLXdpZHRoPSIxNy4xMTExIiBzdHJva2UtbWl0ZXJsaW1pdD0iMTAiIGZpbGw9Im5vbmUiIHRyYW5zZm9ybT0ibWF0cml4KDEuMDAwNDEgMCAwIDEgMTkuNzExOCAxOTIuNzExKSIvPjxwYXRoIGQ9Ik03OTUuNzAxIDE2NC4yNjcgODE0LjcyOCAxODguMzU5QzgyNy4zOTEgMjA0LjQyMSA4MzMuNjk5IDIyMC4wNiA4MzMuNjUzIDIzNS4yNzhMODMzLjU4NSAyNTguMDciIHN0cm9rZT0iI0ZGRkZGRiIgc3Ryb2tlLXdpZHRoPSIxMC4yNjY3IiBzdHJva2UtbWl0ZXJsaW1pdD0iMTAiIGZpbGw9Im5vbmUiIHRyYW5zZm9ybT0ibWF0cml4KDEuMDAwNDEgMCAwIDEgMTkuNzExOCAxOTIuNzExKSIvPjxwYXRoIGQ9Ik03MDMuMzAxIDExOS43NzggNzM1LjgxMiAxMzAuMDQ0Qzc1Ny40ODYgMTM2Ljg4OSA3NzMuNDU2IDE0NC44NzQgNzgzLjcyMyAxNTRMNzk5LjEyMyAxNjcuNjg5IiBzdHJva2U9IiNGRkZGRkYiIHN0cm9rZS13aWR0aD0iMTAuMjY2NyIgc3Ryb2tlLW1pdGVybGltaXQ9IjEwIiBmaWxsPSJub25lIiB0cmFuc2Zvcm09Im1hdHJpeCgxLjAwMDQxIDAgMCAxIDE5LjcxMTggMTkyLjcxMSkiLz48cGF0aCBkPSJNMzQ3LjM5IDkyLjEyNjIgMzg3LjgwNiA5Mi4zMzE2IiBzdHJva2U9IiNGRkZGRkYiIHN0cm9rZS13aWR0aD0iMy40MjIyMiIgc3Ryb2tlLW1pdGVybGltaXQ9IjEwIiBmaWxsPSJub25lIiB0cmFuc2Zvcm09Im1hdHJpeCgxLjAwMDQxIDAgMCAxIDE5LjcxMTggMTkyLjcxMSkiLz48cGF0aCBkPSJNMzk4LjA3MyA5Mi4zNjU4IDM4Ny44MDYgOTUuNzUzOCAzODcuODQgODguOTA5M1oiIHN0cm9rZT0iI0ZGRkZGRiIgc3Ryb2tlLXdpZHRoPSIzLjQyMjIyIiBzdHJva2UtbWl0ZXJsaW1pdD0iMTAiIGZpbGw9IiNGRkZGRkYiIHRyYW5zZm9ybT0ibWF0cml4KDEuMDAwNDEgMCAwIDEgMTkuNzExOCAxOTIuNzExKSIvPjxwYXRoIGQ9Ik02NjQuODY5IDE3OC4yOTggNjk2LjU1OSAxOTUuODg4QzcxNi40OTkgMjA2Ljk3NiA3MjYuNTE1IDIyMC4xMTcgNzI2LjYwNiAyMzUuMzEyTDcyNi43MDkgMjU4LjA3IiBzdHJva2U9IiM4MDgwODAiIHN0cm9rZS13aWR0aD0iMTcuMTExMSIgc3Ryb2tlLW1pdGVybGltaXQ9IjEwIiBmaWxsPSJub25lIiB0cmFuc2Zvcm09Im1hdHJpeCgxLjAwMDQxIDAgMCAxIDE5LjcxMTggMTkyLjcxMSkiLz48cGF0aCBkPSJNNDMxLjk4NyAxMTYuNjI5QzQ1Mi4zMTUgMTE2LjYyOSA0ODIuNjU5IDEyMy40MjggNTIzLjAxOCAxMzcuMDI2IDU2My4zNTUgMTUwLjYyMyA2MDUuMTk3IDE2NS45NzggNjQ4LjU0NSAxODMuMDg5IDY5MS44OTMgMjAwLjIgNzE4LjQ1IDIyNC40MTggNzI4LjIxNSAyNTUuNzQzIiBzdHJva2U9IiNGRkZGRkYiIHN0cm9rZS13aWR0aD0iMTAuMjY2NyIgc3Ryb2tlLW1pdGVybGltaXQ9IjEwIiBmaWxsPSJub25lIiB0cmFuc2Zvcm09Im1hdHJpeCgxLjAwMDQxIDAgMCAxIDE5LjcxMTggMTkyLjcxMSkiLz48cGF0aCBkPSJNMzY0LjUwMSA5Mi40IDM4MC4xNzUgMTAyLjE1MyIgc3Ryb2tlPSIjRkZGRkZGIiBzdHJva2Utd2lkdGg9IjMuNDIyMjIiIHN0cm9rZS1taXRlcmxpbWl0PSIxMCIgZmlsbD0ibm9uZSIgdHJhbnNmb3JtPSJtYXRyaXgoMS4wMDA0MSAwIDAgMSAxOS43MTE4IDE5Mi43MTEpIi8+PHBhdGggZD0iTTM4OC45MDEgMTA3LjU2IDM3OC4zOTUgMTA1LjA2MiAzODEuOTg4IDk5LjI0NDRaIiBzdHJva2U9IiNGRkZGRkYiIHN0cm9rZS13aWR0aD0iMy40MjIyMiIgc3Ryb2tlLW1pdGVybGltaXQ9IjEwIiBmaWxsPSIjRkZGRkZGIiB0cmFuc2Zvcm09Im1hdHJpeCgxLjAwMDQxIDAgMCAxIDE5LjcxMTggMTkyLjcxMSkiLz48cGF0aCBkPSJNNzMyLjM1NiAyMjkuMjg5IDc1Mi44ODkgMjI5LjI4OSA3NTIuODg5IDI1Ni42NjcgNzMyLjM1NiAyNTYuNjY3WiIgZmlsbD0iIzgwODA4MCIgdHJhbnNmb3JtPSJtYXRyaXgoMS4wMDA0MSAwIDAgMSAxOS43MTE4IDE5Mi43MTEpIi8+PHBhdGggZD0iTTY5MC45MTIgMTc2Ljg5NSA3MjIuOTEgMTk0LjUxOUM3NDIuODk2IDIwNS41MzkgNzUyLjg2NiAyMTguNjU3IDc1Mi44MiAyMzMuODc1TDc1Mi43NTIgMjU2LjY2NyIgc3Ryb2tlPSIjODA4MDgwIiBzdHJva2Utd2lkdGg9IjE3LjExMTEiIHN0cm9rZS1taXRlcmxpbWl0PSIxMCIgZmlsbD0ibm9uZSIgdHJhbnNmb3JtPSJtYXRyaXgoMS4wMDA0MSAwIDAgMSAxOS43MTE4IDE5Mi43MTEpIi8+PC9nPjwvZz48L2c+PHBhdGggZD0iTTQ4MyAzNzkgNjc0LjI0IDIxMyAxMTgyIDIxMyA5OTAuNzYgMzc5WiIgZmlsbD0iIzFCQTFFMiIgZmlsbC1ydWxlPSJldmVub2RkIiBmaWxsLW9wYWNpdHk9IjAuNzAxOTYxIi8+PHBhdGggZD0iTTY1NS45NzMgMzc3LjUyMSA4NDUuNTUyIDM3OC41NjMgODUxLjUzOSAzNzguMDQyIDg2MS4wMTggNDAwLjQzOCA4NjUuNTA4IDQwOS44MTMgODY3LjUwMyA0MjMuODc1IDg2OSA0MzcuNDE3IDg2OSA0NTIgNzMzLjMwMiA0NTAuOTU4IDcwOS4zNTUgNDE2LjA2MyA2OTguMzc5IDQwNy43MjkgNjg2LjQwNiAzOTguMzU0IDY3Mi40MzcgMzkyLjEwNCA2NTQuNDc3IDM4My43NzEgNjQ2Ljk5MyAzODAuMTI1IDY0NCAzNzcgNjU1Ljk3MyAzNzcuNTIxWiIgZmlsbD0iIzFCQTFFMiIgZmlsbC1ydWxlPSJldmVub2RkIiBmaWxsLW9wYWNpdHk9IjAuNjk4MDM5Ii8+PC9nPjwvc3ZnPg==;" parent="i4RcE1fr88npL_jNl3nU-1" vertex="1">
          <mxGeometry x="248" y="606" width="343" height="77.18" as="geometry" />
        </mxCell>
        <mxCell id="pT6Asb4YuqWnxuMA6mH4-2" value="" style="group;fillColor=#ffffff;" parent="i4RcE1fr88npL_jNl3nU-1" vertex="1" connectable="0">
          <mxGeometry x="385.68" y="524" width="101.70000000000003" height="51.42" as="geometry" />
        </mxCell>
        <mxCell id="pT6Asb4YuqWnxuMA6mH4-3" value="" style="rounded=1;align=center;verticalAlign=middle;fontSize=9;fontStyle=0;strokeColor=#666666;fontColor=#333333;fillColor=#99FF99;" parent="pT6Asb4YuqWnxuMA6mH4-2" vertex="1">
          <mxGeometry x="-2.68" width="101.70000000000003" height="51.41999999999999" as="geometry" />
        </mxCell>
        <mxCell id="pT6Asb4YuqWnxuMA6mH4-4" value="" style="aspect=fixed;perimeter=ellipsePerimeter;align=center;shadow=0;dashed=0;spacingTop=3;image;image=img/lib/active_directory/database_server.svg;strokeColor=#FF33FF;strokeWidth=3;fillColor=none;gradientColor=#ffffff;" parent="pT6Asb4YuqWnxuMA6mH4-2" vertex="1">
          <mxGeometry x="58.616347358997324" y="7.818835060207233" width="29.51862223466815" height="35.998319798375796" as="geometry" />
        </mxCell>
        <mxCell id="pT6Asb4YuqWnxuMA6mH4-5" value="Shared &#xa;Database &#xa;Server" style="text;resizable=0;autosize=1;align=left;verticalAlign=middle;points=[];fillColor=none;strokeColor=none;rounded=0;fontSize=10;" parent="pT6Asb4YuqWnxuMA6mH4-2" vertex="1">
          <mxGeometry x="-5.1514348342607263e-14" y="2.0023522822738844" width="53" height="37" as="geometry" />
        </mxCell>
        <mxCell id="pT6Asb4YuqWnxuMA6mH4-6" value="" style="shape=image;verticalAlign=top;verticalLabelPosition=bottom;labelBackgroundColor=#ffffff;imageAspect=0;aspect=fixed;image=https://cdn2.iconfinder.com/data/icons/flat-ui-4/100/Antenna-128.png;strokeColor=#FF33FF;strokeWidth=3;fillColor=none;gradientColor=#ffffff;rotation=0;" parent="i4RcE1fr88npL_jNl3nU-1" vertex="1">
          <mxGeometry x="427.99999999999994" y="496" width="29.68" height="29.68" as="geometry" />
        </mxCell>
        <mxCell id="pT6Asb4YuqWnxuMA6mH4-7" value="" style="endArrow=blockThin;dashed=1;fontSize=10;exitX=0.74;exitY=0.097;exitDx=0;exitDy=0;exitPerimeter=0;startArrow=blockThin;startFill=0;endFill=0;entryX=0.086;entryY=0.988;entryDx=0;entryDy=0;entryPerimeter=0;" parent="i4RcE1fr88npL_jNl3nU-1" source="pT6Asb4YuqWnxuMA6mH4-25" target="pT6Asb4YuqWnxuMA6mH4-3" edge="1">
          <mxGeometry width="50" height="50" relative="1" as="geometry">
            <mxPoint x="366.7797408217666" y="630.3154708662585" as="sourcePoint" />
            <mxPoint x="352" y="576" as="targetPoint" />
          </mxGeometry>
        </mxCell>
        <mxCell id="pT6Asb4YuqWnxuMA6mH4-12" value="" style="endArrow=blockThin;dashed=1;fontSize=10;entryX=0.34;entryY=1.009;entryDx=0;entryDy=0;startArrow=blockThin;startFill=0;endFill=0;exitX=0.684;exitY=0.031;exitDx=0;exitDy=0;exitPerimeter=0;entryPerimeter=0;" parent="i4RcE1fr88npL_jNl3nU-1" source="pT6Asb4YuqWnxuMA6mH4-19" target="pT6Asb4YuqWnxuMA6mH4-3" edge="1">
          <mxGeometry width="50" height="50" relative="1" as="geometry">
            <mxPoint x="415.5050000000001" y="657" as="sourcePoint" />
            <mxPoint x="370.7868000000001" y="588.5458600000001" as="targetPoint" />
          </mxGeometry>
        </mxCell>
        <mxCell id="pT6Asb4YuqWnxuMA6mH4-13" value="" style="endArrow=blockThin;dashed=1;fontSize=10;entryX=0.643;entryY=1.017;entryDx=0;entryDy=0;exitX=0.25;exitY=0;exitDx=0;exitDy=0;startArrow=blockThin;startFill=0;endFill=0;entryPerimeter=0;" parent="i4RcE1fr88npL_jNl3nU-1" source="pT6Asb4YuqWnxuMA6mH4-22" target="pT6Asb4YuqWnxuMA6mH4-3" edge="1">
          <mxGeometry width="50" height="50" relative="1" as="geometry">
            <mxPoint x="449.0102496625864" y="631.9960434412933" as="sourcePoint" />
            <mxPoint x="393.93860000000006" y="587.98024" as="targetPoint" />
          </mxGeometry>
        </mxCell>
        <mxCell id="pT6Asb4YuqWnxuMA6mH4-14" value="" style="group;" parent="i4RcE1fr88npL_jNl3nU-1" vertex="1" connectable="0">
          <mxGeometry x="483" y="609" width="41.12" height="47.86" as="geometry" />
        </mxCell>
        <mxCell id="pT6Asb4YuqWnxuMA6mH4-15" value="" style="shape=image;verticalAlign=top;verticalLabelPosition=bottom;labelBackgroundColor=#ffffff;imageAspect=0;aspect=fixed;image=https://cdn1.iconfinder.com/data/icons/computer-hardware-line-vol-2/52/signal__device__technology__radar__satellite__antenna__tower-128.png;strokeColor=#FF33FF;strokeWidth=3;fillColor=none;gradientColor=#ffffff;" parent="pT6Asb4YuqWnxuMA6mH4-14" vertex="1">
          <mxGeometry x="10.707349729866829" y="7.130116213510293" width="15.918259931735355" height="15.918259931735355" as="geometry" />
        </mxCell>
        <mxCell id="pT6Asb4YuqWnxuMA6mH4-16" value="" style="shape=image;verticalAlign=top;verticalLabelPosition=bottom;labelBackgroundColor=#ffffff;imageAspect=0;aspect=fixed;image=https://cdn0.iconfinder.com/data/icons/isometric-city-basic-transport/480/car-taxi-front-01-128.png;strokeColor=#FF33FF;strokeWidth=3;fillColor=none;gradientColor=#ffffff;rotation=-30;" parent="pT6Asb4YuqWnxuMA6mH4-14" vertex="1">
          <mxGeometry x="5.509035396383914" y="6.9744010318359235" width="30.10192920723228" height="30.10192920723228" as="geometry" />
        </mxCell>
        <mxCell id="pT6Asb4YuqWnxuMA6mH4-17" value="" style="group;" parent="i4RcE1fr88npL_jNl3nU-1" vertex="1" connectable="0">
          <mxGeometry x="391" y="610" width="41.12" height="47.86" as="geometry" />
        </mxCell>
        <mxCell id="pT6Asb4YuqWnxuMA6mH4-18" value="" style="shape=image;verticalAlign=top;verticalLabelPosition=bottom;labelBackgroundColor=#ffffff;imageAspect=0;aspect=fixed;image=https://cdn1.iconfinder.com/data/icons/computer-hardware-line-vol-2/52/signal__device__technology__radar__satellite__antenna__tower-128.png;strokeColor=#FF33FF;strokeWidth=3;fillColor=none;gradientColor=#ffffff;" parent="pT6Asb4YuqWnxuMA6mH4-17" vertex="1">
          <mxGeometry x="10.71" y="7" width="16.05" height="16.05" as="geometry" />
        </mxCell>
        <mxCell id="pT6Asb4YuqWnxuMA6mH4-19" value="" style="shape=image;verticalAlign=top;verticalLabelPosition=bottom;labelBackgroundColor=#ffffff;imageAspect=0;aspect=fixed;image=https://cdn0.iconfinder.com/data/icons/isometric-city-basic-transport/480/car-taxi-front-01-128.png;strokeColor=#FF33FF;strokeWidth=3;fillColor=none;gradientColor=#ffffff;rotation=-30;" parent="pT6Asb4YuqWnxuMA6mH4-17" vertex="1">
          <mxGeometry x="5.509035396383914" y="6.9744010318359235" width="30.10192920723228" height="30.10192920723228" as="geometry" />
        </mxCell>
        <mxCell id="pT6Asb4YuqWnxuMA6mH4-20" value="" style="group" parent="i4RcE1fr88npL_jNl3nU-1" vertex="1" connectable="0">
          <mxGeometry x="442.99774896200654" y="642.9977489620067" width="37.610955391666494" height="37.610955391666494" as="geometry" />
        </mxCell>
        <mxCell id="pT6Asb4YuqWnxuMA6mH4-21" value="" style="shape=image;verticalAlign=top;verticalLabelPosition=bottom;labelBackgroundColor=#ffffff;imageAspect=0;aspect=fixed;image=https://cdn1.iconfinder.com/data/icons/computer-hardware-line-vol-2/52/signal__device__technology__radar__satellite__antenna__tower-128.png;strokeColor=#FF33FF;strokeWidth=3;fillColor=none;gradientColor=#ffffff;" parent="pT6Asb4YuqWnxuMA6mH4-20" vertex="1">
          <mxGeometry x="6.332251037993444" y="0.5722510379933965" width="16.05" height="16.05" as="geometry" />
        </mxCell>
        <mxCell id="pT6Asb4YuqWnxuMA6mH4-22" value="" style="shape=image;verticalAlign=top;verticalLabelPosition=bottom;labelBackgroundColor=#ffffff;imageAspect=0;aspect=fixed;image=https://cdn0.iconfinder.com/data/icons/isometric-city-basic-transport/480/car-front-02-128.png;strokeColor=#FF33FF;strokeWidth=3;fillColor=none;gradientColor=#ffffff;rotation=10;" parent="pT6Asb4YuqWnxuMA6mH4-20" vertex="1">
          <mxGeometry x="2.5722510379933965" y="2.5722510379933965" width="32.466453315679715" height="32.466453315679715" as="geometry" />
        </mxCell>
        <mxCell id="pT6Asb4YuqWnxuMA6mH4-23" value="" style="group" parent="i4RcE1fr88npL_jNl3nU-1" vertex="1" connectable="0">
          <mxGeometry x="309.99774896200654" y="615.4277489620067" width="37.610955391666494" height="37.610955391666494" as="geometry" />
        </mxCell>
        <mxCell id="pT6Asb4YuqWnxuMA6mH4-24" value="" style="shape=image;verticalAlign=top;verticalLabelPosition=bottom;labelBackgroundColor=#ffffff;imageAspect=0;aspect=fixed;image=https://cdn1.iconfinder.com/data/icons/computer-hardware-line-vol-2/52/signal__device__technology__radar__satellite__antenna__tower-128.png;strokeColor=#FF33FF;strokeWidth=3;fillColor=none;gradientColor=#ffffff;" parent="pT6Asb4YuqWnxuMA6mH4-23" vertex="1">
          <mxGeometry x="6.332251037993444" y="0.5722510379933965" width="16.05" height="16.05" as="geometry" />
        </mxCell>
        <mxCell id="pT6Asb4YuqWnxuMA6mH4-25" value="" style="shape=image;verticalAlign=top;verticalLabelPosition=bottom;labelBackgroundColor=#ffffff;imageAspect=0;aspect=fixed;image=https://cdn0.iconfinder.com/data/icons/isometric-city-basic-transport/480/car-front-02-128.png;strokeColor=#FF33FF;strokeWidth=3;fillColor=none;gradientColor=#ffffff;rotation=-30;" parent="pT6Asb4YuqWnxuMA6mH4-23" vertex="1">
          <mxGeometry x="0.5722510379933965" y="-0.4277489620066035" width="32.466453315679715" height="32.466453315679715" as="geometry" />
        </mxCell>
        <mxCell id="pT6Asb4YuqWnxuMA6mH4-26" value="" style="endArrow=blockThin;dashed=1;fontSize=10;exitX=0.581;exitY=0.016;exitDx=0;exitDy=0;startArrow=blockThin;startFill=0;endFill=0;exitPerimeter=0;entryX=0.944;entryY=1;entryDx=0;entryDy=0;entryPerimeter=0;" parent="i4RcE1fr88npL_jNl3nU-1" source="pT6Asb4YuqWnxuMA6mH4-16" target="pT6Asb4YuqWnxuMA6mH4-3" edge="1">
          <mxGeometry width="50" height="50" relative="1" as="geometry">
            <mxPoint x="466.6287931501055" y="654.4071840754006" as="sourcePoint" />
            <mxPoint x="424.7677" y="583.28338" as="targetPoint" />
          </mxGeometry>
        </mxCell>
        <mxCell id="pT6Asb4YuqWnxuMA6mH4-27" value="" style="endArrow=classicThin;fillColor=#dae8fc;endFill=1;" parent="i4RcE1fr88npL_jNl3nU-1" edge="1">
          <mxGeometry width="50" height="50" relative="1" as="geometry">
            <mxPoint x="419" y="671" as="sourcePoint" />
            <mxPoint x="441.0799999999999" y="664" as="targetPoint" />
          </mxGeometry>
        </mxCell>
        <mxCell id="pT6Asb4YuqWnxuMA6mH4-28" value="off-ramp" style="edgeLabel;align=center;verticalAlign=middle;resizable=0;points=[];fontFamily=Helvetica;fontSize=8;labelBackgroundColor=none;" parent="pT6Asb4YuqWnxuMA6mH4-27" vertex="1" connectable="0">
          <mxGeometry x="-0.7544" y="-1" relative="1" as="geometry">
            <mxPoint x="-8.429999999999998" y="2.8899999999999997" as="offset" />
          </mxGeometry>
        </mxCell>
        <mxCell id="pT6Asb4YuqWnxuMA6mH4-29" value="low friction region(e.g. ice, snow, water)" style="edgeLabel;align=center;verticalAlign=middle;resizable=0;points=[];fontFamily=Helvetica;fontSize=8;labelBackgroundColor=none;fontColor=#1BA1E2;" parent="i4RcE1fr88npL_jNl3nU-1" vertex="1" connectable="0">
          <mxGeometry x="419.32066210470447" y="697.0012238061508" as="geometry" />
        </mxCell>
        <mxCell id="pT6Asb4YuqWnxuMA6mH4-30" value="" style="shape=parallelogram;perimeter=parallelogramPerimeter;fixedSize=1;fontFamily=Times New Roman;size=16.044270098286347;labelBorderColor=none;fontColor=#ffffff;strokeColor=none;opacity=70;fillColor=#1BA1E2;" parent="i4RcE1fr88npL_jNl3nU-1" vertex="1">
          <mxGeometry x="304.68" y="690.31" width="46.49" height="13.39" as="geometry" />
        </mxCell>
      </root>
    </mxGraphModel>
  </diagram>
  <diagram id="VXKMhtpPrfWjaBHs4lLd" name="bicycle model">
    <mxGraphModel dx="298" dy="161" grid="0" gridSize="10" guides="1" tooltips="1" connect="1" arrows="1" fold="1" page="1" pageScale="1" pageWidth="850" pageHeight="1100" math="0" shadow="0">
      <root>
        <mxCell id="LGTIWsO_x1LPyo_i8puS-0" />
        <mxCell id="LGTIWsO_x1LPyo_i8puS-1" parent="LGTIWsO_x1LPyo_i8puS-0" />
        <mxCell id="TvEvVElUqOhM5fGB6hvf-37" value="" style="rounded=1;strokeColor=#000000;strokeWidth=2;fillColor=#ffffff;gradientColor=#ffffff;fontSize=10;opacity=70;align=left;rotation=-15;" parent="LGTIWsO_x1LPyo_i8puS-1" vertex="1">
          <mxGeometry x="514.31" y="234" width="78.45" height="30" as="geometry" />
        </mxCell>
        <mxCell id="TvEvVElUqOhM5fGB6hvf-35" value="" style="rounded=1;strokeColor=#000000;strokeWidth=2;fillColor=#ffffff;gradientColor=#ffffff;fontSize=10;opacity=70;align=left;" parent="LGTIWsO_x1LPyo_i8puS-1" vertex="1">
          <mxGeometry x="223" y="234" width="78.45" height="30" as="geometry" />
        </mxCell>
        <mxCell id="TvEvVElUqOhM5fGB6hvf-36" value="" style="endArrow=none;fontSize=10;strokeWidth=2;" parent="LGTIWsO_x1LPyo_i8puS-1" edge="1">
          <mxGeometry width="50" height="50" relative="1" as="geometry">
            <mxPoint x="262" y="249" as="sourcePoint" />
            <mxPoint x="553" y="249" as="targetPoint" />
          </mxGeometry>
        </mxCell>
        <mxCell id="NIQn4FDyGwgsC7JU0NGO-1" value="" style="shape=image;verticalLabelPosition=bottom;labelBackgroundColor=#ffffff;verticalAlign=top;aspect=fixed;imageAspect=0;image=data:image/svg+xml,PHN2ZyB4bWxucz0iaHR0cDovL3d3dy53My5vcmcvMjAwMC9zdmciIHhtbG5zOnhsaW5rPSJodHRwOi8vd3d3LnczLm9yZy8xOTk5L3hsaW5rIiB3aWR0aD0iNjYuODI4MTI1IiBoZWlnaHQ9IjgyLjg5NDg5NzQ2MDkzNzUiIG92ZXJmbG93PSJoaWRkZW4iIHZpZXdCb3g9Ii0wLjg5MDYyNSAyLjAwMjE5NzI2NTYyNSA2Ni44MjgxMjUgODIuODk0ODk3NDYwOTM3NSI+PGRlZnM+PGNsaXBQYXRoIGlkPSJjbGlwMCI+PHJlY3QgeD0iNjA1IiB5PSI0NDAiIHdpZHRoPSI2NSIgaGVpZ2h0PSI2NyIvPjwvY2xpcFBhdGg+PGNsaXBQYXRoIGlkPSJjbGlwMSI+PHJlY3QgeD0iNjA1IiB5PSI0NDAiIHdpZHRoPSI2NCIgaGVpZ2h0PSI2NiIvPjwvY2xpcFBhdGg+PGNsaXBQYXRoIGlkPSJjbGlwMiI+PHJlY3QgeD0iNjA1IiB5PSI0NDAiIHdpZHRoPSI2NCIgaGVpZ2h0PSI2NiIvPjwvY2xpcFBhdGg+PGNsaXBQYXRoIGlkPSJjbGlwMyI+PHJlY3QgeD0iNjA1IiB5PSI0NDAiIHdpZHRoPSI2NCIgaGVpZ2h0PSI4MSIvPjwvY2xpcFBhdGg+PC9kZWZzPjxnIGNsaXAtcGF0aD0idXJsKCNjbGlwMCkiIHRyYW5zZm9ybT0idHJhbnNsYXRlKC02MDUgLTQ0MCkiPjxnIGNsaXAtcGF0aD0idXJsKCNjbGlwMSkiPjxnIGNsaXAtcGF0aD0idXJsKCNjbGlwMikiPjxnIGNsaXAtcGF0aD0idXJsKCNjbGlwMykiPjxwYXRoIGQ9Ik0zMiAyQzE1LjQgMiAyIDE1LjQgMiAzMiAyIDQ4LjYgMTUuNCA2MiAzMiA2MiA0OC42IDYyIDYyIDQ4LjYgNjIgMzIgNjIgMTUuNCA0OC42IDIgMzIgMlpNMzIgNTggMzIgMzIgNiAzMkM2IDE3LjYgMTcuNiA2IDMyIDZMMzIgMzIgNTggMzJDNTggNDYuNCA0Ni40IDU4IDMyIDU4WiIgdHJhbnNmb3JtPSJtYXRyaXgoMSAwIDAgMS4wMDExIDYwNSA0NDApIi8+PHRleHQgZm9udC1mYW1pbHk9IkFyaWFsLEFyaWFsX01TRm9udFNlcnZpY2Usc2Fucy1zZXJpZiIgZm9udC13ZWlnaHQ9IjcwMCIgZm9udC1zaXplPSI1IiB0cmFuc2Zvcm09Im1hdHJpeCgxIDAgMCAxLjAwMTEgNjA1IDUxOSkiPkNyZWF0ZWQgYnkgUmFobWF0IEhpZGF5YXQ8dHNwYW4gZm9udC1zaXplPSI1IiB4PSIwIiB5PSI0Ljk5NDQ4Ij5mcm9tIHRoZSBOb3VuIFByb2plY3Q8L3RzcGFuPjwvdGV4dD48L2c+PC9nPjwvZz48L2c+PC9zdmc+;" parent="LGTIWsO_x1LPyo_i8puS-1" vertex="1">
          <mxGeometry x="402" y="239.00000000000006" width="21.93" height="27.17" as="geometry" />
        </mxCell>
        <mxCell id="NIQn4FDyGwgsC7JU0NGO-3" value="" style="endArrow=classic;startArrow=none;startFill=0;strokeColor=#FF0000;fontStyle=2" parent="LGTIWsO_x1LPyo_i8puS-1" edge="1">
          <mxGeometry width="50" height="50" relative="1" as="geometry">
            <mxPoint x="413" y="249" as="sourcePoint" />
            <mxPoint x="413" y="209" as="targetPoint" />
          </mxGeometry>
        </mxCell>
        <mxCell id="NIQn4FDyGwgsC7JU0NGO-4" value="Uy" style="edgeLabel;align=center;verticalAlign=middle;resizable=0;points=[];fontFamily=Times New Roman;fontColor=#FF0000;fontStyle=2;labelBackgroundColor=none;" parent="NIQn4FDyGwgsC7JU0NGO-3" vertex="1" connectable="0">
          <mxGeometry x="0.65" relative="1" as="geometry">
            <mxPoint x="13" y="-7" as="offset" />
          </mxGeometry>
        </mxCell>
        <mxCell id="NIQn4FDyGwgsC7JU0NGO-5" value="" style="endArrow=classic;startArrow=none;startFill=0;strokeColor=#FF0000;fontStyle=2" parent="LGTIWsO_x1LPyo_i8puS-1" edge="1">
          <mxGeometry width="50" height="50" relative="1" as="geometry">
            <mxPoint x="413.03" y="248.79999999999995" as="sourcePoint" />
            <mxPoint x="482.83000000000004" y="248.79999999999995" as="targetPoint" />
          </mxGeometry>
        </mxCell>
        <mxCell id="NIQn4FDyGwgsC7JU0NGO-6" value="U" style="edgeLabel;align=center;verticalAlign=middle;resizable=0;points=[];fontFamily=Times New Roman;fontStyle=2;labelBackgroundColor=none;" parent="NIQn4FDyGwgsC7JU0NGO-5" vertex="1" connectable="0">
          <mxGeometry x="0.65" relative="1" as="geometry">
            <mxPoint x="-26.7" y="-25.799999999999997" as="offset" />
          </mxGeometry>
        </mxCell>
        <mxCell id="NIQn4FDyGwgsC7JU0NGO-7" value="" style="endArrow=classic;startArrow=none;startFill=0;" parent="LGTIWsO_x1LPyo_i8puS-1" edge="1">
          <mxGeometry width="50" height="50" relative="1" as="geometry">
            <mxPoint x="413" y="249" as="sourcePoint" />
            <mxPoint x="480" y="209" as="targetPoint" />
          </mxGeometry>
        </mxCell>
        <mxCell id="NIQn4FDyGwgsC7JU0NGO-8" value="Ux" style="edgeLabel;align=center;verticalAlign=middle;resizable=0;points=[];fontFamily=Times New Roman;fontColor=#FF0000;labelBackgroundColor=none;fontStyle=2" parent="NIQn4FDyGwgsC7JU0NGO-7" vertex="1" connectable="0">
          <mxGeometry x="0.65" relative="1" as="geometry">
            <mxPoint x="15.650000000000002" y="23.34" as="offset" />
          </mxGeometry>
        </mxCell>
        <mxCell id="NIQn4FDyGwgsC7JU0NGO-21" value="" style="group" parent="LGTIWsO_x1LPyo_i8puS-1" vertex="1" connectable="0">
          <mxGeometry x="262" y="199" width="69.99999999999994" height="90" as="geometry" />
        </mxCell>
        <mxCell id="NIQn4FDyGwgsC7JU0NGO-14" value="" style="endArrow=classicThin;startArrow=none;startFill=0;strokeColor=#FF0000;endFill=1;" parent="NIQn4FDyGwgsC7JU0NGO-21" edge="1">
          <mxGeometry width="50" height="50" relative="1" as="geometry">
            <mxPoint x="0.17000000000001592" y="50" as="sourcePoint" />
            <mxPoint y="-10" as="targetPoint" />
          </mxGeometry>
        </mxCell>
        <mxCell id="NIQn4FDyGwgsC7JU0NGO-15" value="Fyr" style="edgeLabel;align=center;verticalAlign=middle;resizable=0;points=[];fontFamily=Times New Roman;fontColor=#FF0000;fontStyle=2;labelBackgroundColor=none;" parent="NIQn4FDyGwgsC7JU0NGO-14" vertex="1" connectable="0">
          <mxGeometry x="0.65" relative="1" as="geometry">
            <mxPoint x="13" y="-7" as="offset" />
          </mxGeometry>
        </mxCell>
        <mxCell id="NIQn4FDyGwgsC7JU0NGO-16" value="" style="endArrow=classicThin;startArrow=none;startFill=0;strokeColor=#FF0000;endFill=1;" parent="NIQn4FDyGwgsC7JU0NGO-21" edge="1">
          <mxGeometry width="50" height="50" relative="1" as="geometry">
            <mxPoint x="0.19999999999998863" y="50" as="sourcePoint" />
            <mxPoint x="91" y="50" as="targetPoint" />
          </mxGeometry>
        </mxCell>
        <mxCell id="NIQn4FDyGwgsC7JU0NGO-20" value="Fxr" style="edgeLabel;align=center;verticalAlign=middle;resizable=0;points=[];fontFamily=Times New Roman;fontColor=#FF0000;labelBackgroundColor=none;fontStyle=2" parent="NIQn4FDyGwgsC7JU0NGO-16" vertex="1" connectable="0">
          <mxGeometry x="0.6307" y="-2" relative="1" as="geometry">
            <mxPoint x="1.7300000000000004" y="-11.8" as="offset" />
          </mxGeometry>
        </mxCell>
        <mxCell id="NIQn4FDyGwgsC7JU0NGO-23" value="" style="endArrow=classicThin;startArrow=none;startFill=0;endFill=1;" parent="NIQn4FDyGwgsC7JU0NGO-21" edge="1">
          <mxGeometry width="50" height="50" relative="1" as="geometry">
            <mxPoint y="50" as="sourcePoint" />
            <mxPoint x="66" y="24" as="targetPoint" />
          </mxGeometry>
        </mxCell>
        <mxCell id="NIQn4FDyGwgsC7JU0NGO-22" value="vr" style="edgeLabel;align=center;verticalAlign=middle;resizable=0;points=[];fontFamily=Times New Roman;labelBackgroundColor=none;fontStyle=2" parent="NIQn4FDyGwgsC7JU0NGO-21" vertex="1" connectable="0">
          <mxGeometry x="62.99666666666667" y="15.999999999999886" as="geometry">
            <mxPoint x="-14" y="4" as="offset" />
          </mxGeometry>
        </mxCell>
        <mxCell id="NIQn4FDyGwgsC7JU0NGO-31" value="" style="curved=1;endArrow=classicThin;strokeColor=#000000;fontFamily=Times New Roman;fontColor=#FF0000;endFill=1;endSize=1;" parent="NIQn4FDyGwgsC7JU0NGO-21" edge="1">
          <mxGeometry width="50" height="50" relative="1" as="geometry">
            <mxPoint x="51" y="50" as="sourcePoint" />
            <mxPoint x="46" y="33" as="targetPoint" />
            <Array as="points">
              <mxPoint x="53" y="39" />
            </Array>
          </mxGeometry>
        </mxCell>
        <mxCell id="NIQn4FDyGwgsC7JU0NGO-27" value="αr" style="edgeLabel;align=center;verticalAlign=middle;resizable=0;points=[];fontFamily=Times New Roman;fontSize=9;labelBackgroundColor=none;fontStyle=2" parent="NIQn4FDyGwgsC7JU0NGO-21" vertex="1" connectable="0">
          <mxGeometry x="57.003203883495246" y="40.000000000000114" as="geometry" />
        </mxCell>
        <mxCell id="NIQn4FDyGwgsC7JU0NGO-32" value="" style="endArrow=none;dashed=1;strokeWidth=1;fontFamily=Times New Roman;fontSize=7;fontColor=#000000;" parent="LGTIWsO_x1LPyo_i8puS-1" edge="1">
          <mxGeometry width="50" height="50" relative="1" as="geometry">
            <mxPoint x="263" y="299" as="sourcePoint" />
            <mxPoint x="263" y="249" as="targetPoint" />
          </mxGeometry>
        </mxCell>
        <mxCell id="NIQn4FDyGwgsC7JU0NGO-33" value="" style="endArrow=none;dashed=1;strokeWidth=1;fontFamily=Times New Roman;fontSize=7;fontColor=#000000;" parent="LGTIWsO_x1LPyo_i8puS-1" edge="1">
          <mxGeometry width="50" height="50" relative="1" as="geometry">
            <mxPoint x="412.8" y="299" as="sourcePoint" />
            <mxPoint x="412.8" y="249" as="targetPoint" />
          </mxGeometry>
        </mxCell>
        <mxCell id="NIQn4FDyGwgsC7JU0NGO-34" value="" style="endArrow=none;dashed=1;strokeWidth=1;fontFamily=Times New Roman;fontSize=7;fontColor=#000000;" parent="LGTIWsO_x1LPyo_i8puS-1" edge="1">
          <mxGeometry width="50" height="50" relative="1" as="geometry">
            <mxPoint x="553.3699999999999" y="299" as="sourcePoint" />
            <mxPoint x="553.3699999999999" y="249" as="targetPoint" />
          </mxGeometry>
        </mxCell>
        <mxCell id="NIQn4FDyGwgsC7JU0NGO-35" value="" style="endArrow=classicThin;fontSize=10;strokeWidth=1;strokeColor=#3333FF;startArrow=classicThin;startFill=1;endFill=1;" parent="LGTIWsO_x1LPyo_i8puS-1" edge="1">
          <mxGeometry width="50" height="50" relative="1" as="geometry">
            <mxPoint x="263" y="294" as="sourcePoint" />
            <mxPoint x="413" y="294" as="targetPoint" />
          </mxGeometry>
        </mxCell>
        <mxCell id="NIQn4FDyGwgsC7JU0NGO-38" value="b" style="edgeLabel;align=center;verticalAlign=middle;resizable=0;points=[];fontSize=11;fontFamily=Times New Roman;fontColor=#3333FF;fontStyle=2;labelBackgroundColor=none;" parent="NIQn4FDyGwgsC7JU0NGO-35" vertex="1" connectable="0">
          <mxGeometry x="0.3697" relative="1" as="geometry">
            <mxPoint x="-22.78" y="-10" as="offset" />
          </mxGeometry>
        </mxCell>
        <mxCell id="NIQn4FDyGwgsC7JU0NGO-36" value="" style="endArrow=classicThin;fontSize=10;strokeWidth=1;strokeColor=#3333FF;startArrow=classicThin;startFill=1;endFill=1;" parent="LGTIWsO_x1LPyo_i8puS-1" edge="1">
          <mxGeometry width="50" height="50" relative="1" as="geometry">
            <mxPoint x="414" y="294" as="sourcePoint" />
            <mxPoint x="553" y="294" as="targetPoint" />
          </mxGeometry>
        </mxCell>
        <mxCell id="NIQn4FDyGwgsC7JU0NGO-39" value="a" style="edgeLabel;align=center;verticalAlign=middle;resizable=0;points=[];fontSize=11;fontFamily=Times New Roman;fontColor=#3333FF;labelBackgroundColor=none;fontStyle=2" parent="NIQn4FDyGwgsC7JU0NGO-36" vertex="1" connectable="0">
          <mxGeometry x="-0.3716" y="-1" relative="1" as="geometry">
            <mxPoint x="25.39" y="-10" as="offset" />
          </mxGeometry>
        </mxCell>
        <mxCell id="NIQn4FDyGwgsC7JU0NGO-49" value="" style="group;rotation=-15;" parent="LGTIWsO_x1LPyo_i8puS-1" vertex="1" connectable="0">
          <mxGeometry x="543" y="179" width="91" height="60" as="geometry" />
        </mxCell>
        <mxCell id="NIQn4FDyGwgsC7JU0NGO-41" value="" style="endArrow=classicThin;startArrow=none;startFill=0;strokeColor=#FF0000;endFill=1;" parent="NIQn4FDyGwgsC7JU0NGO-49" edge="1">
          <mxGeometry width="50" height="50" relative="1" as="geometry">
            <mxPoint x="9" y="71" as="sourcePoint" />
            <mxPoint x="-6" y="13" as="targetPoint" />
          </mxGeometry>
        </mxCell>
        <mxCell id="NIQn4FDyGwgsC7JU0NGO-42" value="Fyf" style="edgeLabel;align=center;verticalAlign=middle;resizable=0;points=[];fontFamily=Times New Roman;fontColor=#FF0000;rotation=-15;fontStyle=2;labelBackgroundColor=none;" parent="NIQn4FDyGwgsC7JU0NGO-41" vertex="1" connectable="0">
          <mxGeometry x="0.65" relative="1" as="geometry">
            <mxPoint x="13" y="-7" as="offset" />
          </mxGeometry>
        </mxCell>
        <mxCell id="NIQn4FDyGwgsC7JU0NGO-43" value="" style="endArrow=classicThin;startArrow=none;startFill=0;strokeColor=#FF0000;endFill=1;" parent="NIQn4FDyGwgsC7JU0NGO-49" edge="1">
          <mxGeometry width="50" height="50" relative="1" as="geometry">
            <mxPoint x="10" y="71" as="sourcePoint" />
            <mxPoint x="97" y="47" as="targetPoint" />
          </mxGeometry>
        </mxCell>
        <mxCell id="NIQn4FDyGwgsC7JU0NGO-44" value="Fxf" style="edgeLabel;align=center;verticalAlign=middle;resizable=0;points=[];fontFamily=Times New Roman;fontColor=#FF0000;labelBackgroundColor=none;rotation=-15;fontStyle=2" parent="NIQn4FDyGwgsC7JU0NGO-43" vertex="1" connectable="0">
          <mxGeometry x="0.6307" y="-2" relative="1" as="geometry">
            <mxPoint x="3.7300000000000004" y="-15.8" as="offset" />
          </mxGeometry>
        </mxCell>
        <mxCell id="NIQn4FDyGwgsC7JU0NGO-45" value="" style="endArrow=classicThin;startArrow=none;startFill=0;endFill=1;" parent="NIQn4FDyGwgsC7JU0NGO-49" edge="1">
          <mxGeometry width="50" height="50" relative="1" as="geometry">
            <mxPoint x="9" y="71" as="sourcePoint" />
            <mxPoint x="67" y="27" as="targetPoint" />
          </mxGeometry>
        </mxCell>
        <mxCell id="NIQn4FDyGwgsC7JU0NGO-46" value="vf" style="edgeLabel;align=center;verticalAlign=middle;resizable=0;points=[];fontFamily=Times New Roman;labelBackgroundColor=none;rotation=-15;fontStyle=2" parent="NIQn4FDyGwgsC7JU0NGO-49" vertex="1" connectable="0">
          <mxGeometry x="61" y="19" as="geometry">
            <mxPoint x="-14" y="4" as="offset" />
          </mxGeometry>
        </mxCell>
        <mxCell id="NIQn4FDyGwgsC7JU0NGO-47" value="" style="curved=1;endArrow=classicThin;strokeColor=#000000;fontFamily=Times New Roman;fontColor=#FF0000;endFill=1;endSize=1;" parent="NIQn4FDyGwgsC7JU0NGO-49" edge="1">
          <mxGeometry width="50" height="50" relative="1" as="geometry">
            <mxPoint x="61" y="56" as="sourcePoint" />
            <mxPoint x="50" y="41" as="targetPoint" />
            <Array as="points">
              <mxPoint x="59" y="47" />
            </Array>
          </mxGeometry>
        </mxCell>
        <mxCell id="NIQn4FDyGwgsC7JU0NGO-48" value="αf" style="edgeLabel;align=center;verticalAlign=middle;resizable=0;points=[];fontFamily=Times New Roman;fontSize=9;labelBackgroundColor=none;rotation=-15;fontStyle=2" parent="NIQn4FDyGwgsC7JU0NGO-49" vertex="1" connectable="0">
          <mxGeometry x="64" y="49" as="geometry">
            <mxPoint x="-0.8965754721680539" y="-4.381341395361314" as="offset" />
          </mxGeometry>
        </mxCell>
        <mxCell id="NIQn4FDyGwgsC7JU0NGO-50" value="" style="endArrow=none;dashed=1;strokeWidth=1;fontFamily=Times New Roman;fontSize=7;fontColor=#000000;" parent="LGTIWsO_x1LPyo_i8puS-1" edge="1">
          <mxGeometry width="50" height="50" relative="1" as="geometry">
            <mxPoint x="633" y="249" as="sourcePoint" />
            <mxPoint x="553" y="249" as="targetPoint" />
          </mxGeometry>
        </mxCell>
        <mxCell id="NIQn4FDyGwgsC7JU0NGO-52" value="δ" style="edgeLabel;align=center;verticalAlign=middle;resizable=0;points=[];fontFamily=Times New Roman;fontSize=9;labelBackgroundColor=none;rotation=-15;fontStyle=2" parent="LGTIWsO_x1LPyo_i8puS-1" vertex="1" connectable="0">
          <mxGeometry x="623" y="245" as="geometry">
            <mxPoint x="-0.8965754721680539" y="-4.381341395361314" as="offset" />
          </mxGeometry>
        </mxCell>
        <mxCell id="NIQn4FDyGwgsC7JU0NGO-54" value="CG" style="text;resizable=0;autosize=1;align=center;verticalAlign=middle;points=[];fillColor=none;strokeColor=none;rounded=0;labelBackgroundColor=none;fontFamily=Times New Roman;fontSize=9;fontColor=#3333FF;" parent="LGTIWsO_x1LPyo_i8puS-1" vertex="1">
          <mxGeometry x="388" y="225" width="30" height="20" as="geometry" />
        </mxCell>
        <mxCell id="NIQn4FDyGwgsC7JU0NGO-55" value="" style="curved=1;endArrow=classicThin;strokeColor=#000000;fontFamily=Times New Roman;fontColor=#FF0000;endFill=1;endSize=1;" parent="LGTIWsO_x1LPyo_i8puS-1" edge="1">
          <mxGeometry width="50" height="50" relative="1" as="geometry">
            <mxPoint x="447" y="249" as="sourcePoint" />
            <mxPoint x="441" y="232" as="targetPoint" />
            <Array as="points">
              <mxPoint x="448" y="238" />
            </Array>
          </mxGeometry>
        </mxCell>
        <mxCell id="NIQn4FDyGwgsC7JU0NGO-56" value="β" style="edgeLabel;align=center;verticalAlign=middle;resizable=0;points=[];fontFamily=Times New Roman;fontStyle=2;fontSize=10;labelBackgroundColor=none;" parent="LGTIWsO_x1LPyo_i8puS-1" vertex="1" connectable="0">
          <mxGeometry x="455.9299029126214" y="237" as="geometry">
            <mxPoint x="-3" as="offset" />
          </mxGeometry>
        </mxCell>
        <mxCell id="NIQn4FDyGwgsC7JU0NGO-57" value="" style="curved=1;endArrow=classicThin;strokeColor=#000000;fontFamily=Times New Roman;fontColor=#FF0000;endFill=1;endSize=1;exitX=0.167;exitY=0.5;exitDx=0;exitDy=0;exitPerimeter=0;" parent="LGTIWsO_x1LPyo_i8puS-1" source="NIQn4FDyGwgsC7JU0NGO-54" edge="1">
          <mxGeometry width="50" height="50" relative="1" as="geometry">
            <mxPoint x="388.0200000000001" y="235.65999999999997" as="sourcePoint" />
            <mxPoint x="397" y="265" as="targetPoint" />
            <Array as="points">
              <mxPoint x="382" y="251" />
            </Array>
          </mxGeometry>
        </mxCell>
        <mxCell id="NIQn4FDyGwgsC7JU0NGO-60" value="r" style="edgeLabel;align=center;verticalAlign=middle;resizable=0;points=[];fontFamily=Times New Roman;fontStyle=2;fontSize=11;labelBackgroundColor=none;" parent="LGTIWsO_x1LPyo_i8puS-1" vertex="1" connectable="0">
          <mxGeometry x="385.9999029126214" y="257" as="geometry">
            <mxPoint x="-3" as="offset" />
          </mxGeometry>
        </mxCell>
        <mxCell id="-AVjoS03Gko6x326KeQo-0" value="" style="curved=1;endArrow=classicThin;strokeColor=#000000;fontFamily=Times New Roman;fontColor=#FF0000;endFill=1;endSize=1;" parent="LGTIWsO_x1LPyo_i8puS-1" edge="1">
          <mxGeometry width="50" height="50" relative="1" as="geometry">
            <mxPoint x="615" y="248" as="sourcePoint" />
            <mxPoint x="610" y="235" as="targetPoint" />
            <Array as="points">
              <mxPoint x="617" y="241" />
            </Array>
          </mxGeometry>
        </mxCell>
        <mxCell id="0fBK62NfARPhi3sExRjy-45" value="" style="rounded=1;strokeColor=#000000;strokeWidth=2;fillColor=#ffffff;gradientColor=#ffffff;fontSize=10;opacity=70;align=left;rotation=-15;" parent="LGTIWsO_x1LPyo_i8puS-1" vertex="1">
          <mxGeometry x="474.7699999999999" y="413" width="78.45" height="30" as="geometry" />
        </mxCell>
        <mxCell id="0fBK62NfARPhi3sExRjy-46" value="" style="rounded=1;strokeColor=#000000;strokeWidth=2;fillColor=#ffffff;gradientColor=#ffffff;fontSize=10;opacity=70;align=left;" parent="LGTIWsO_x1LPyo_i8puS-1" vertex="1">
          <mxGeometry x="218.46" y="413" width="78.45" height="30" as="geometry" />
        </mxCell>
        <mxCell id="0fBK62NfARPhi3sExRjy-48" value="" style="shape=image;verticalLabelPosition=bottom;labelBackgroundColor=#ffffff;verticalAlign=top;aspect=fixed;imageAspect=0;image=data:image/svg+xml,PHN2ZyB4bWxucz0iaHR0cDovL3d3dy53My5vcmcvMjAwMC9zdmciIHhtbG5zOnhsaW5rPSJodHRwOi8vd3d3LnczLm9yZy8xOTk5L3hsaW5rIiB3aWR0aD0iNjYuODI4MTI1IiBoZWlnaHQ9IjgyLjg5NDg5NzQ2MDkzNzUiIG92ZXJmbG93PSJoaWRkZW4iIHZpZXdCb3g9Ii0wLjg5MDYyNSAyLjAwMjE5NzI2NTYyNSA2Ni44MjgxMjUgODIuODk0ODk3NDYwOTM3NSI+PGRlZnM+PGNsaXBQYXRoIGlkPSJjbGlwMCI+PHJlY3QgeD0iNjA1IiB5PSI0NDAiIHdpZHRoPSI2NSIgaGVpZ2h0PSI2NyIvPjwvY2xpcFBhdGg+PGNsaXBQYXRoIGlkPSJjbGlwMSI+PHJlY3QgeD0iNjA1IiB5PSI0NDAiIHdpZHRoPSI2NCIgaGVpZ2h0PSI2NiIvPjwvY2xpcFBhdGg+PGNsaXBQYXRoIGlkPSJjbGlwMiI+PHJlY3QgeD0iNjA1IiB5PSI0NDAiIHdpZHRoPSI2NCIgaGVpZ2h0PSI2NiIvPjwvY2xpcFBhdGg+PGNsaXBQYXRoIGlkPSJjbGlwMyI+PHJlY3QgeD0iNjA1IiB5PSI0NDAiIHdpZHRoPSI2NCIgaGVpZ2h0PSI4MSIvPjwvY2xpcFBhdGg+PC9kZWZzPjxnIGNsaXAtcGF0aD0idXJsKCNjbGlwMCkiIHRyYW5zZm9ybT0idHJhbnNsYXRlKC02MDUgLTQ0MCkiPjxnIGNsaXAtcGF0aD0idXJsKCNjbGlwMSkiPjxnIGNsaXAtcGF0aD0idXJsKCNjbGlwMikiPjxnIGNsaXAtcGF0aD0idXJsKCNjbGlwMykiPjxwYXRoIGQ9Ik0zMiAyQzE1LjQgMiAyIDE1LjQgMiAzMiAyIDQ4LjYgMTUuNCA2MiAzMiA2MiA0OC42IDYyIDYyIDQ4LjYgNjIgMzIgNjIgMTUuNCA0OC42IDIgMzIgMlpNMzIgNTggMzIgMzIgNiAzMkM2IDE3LjYgMTcuNiA2IDMyIDZMMzIgMzIgNTggMzJDNTggNDYuNCA0Ni40IDU4IDMyIDU4WiIgdHJhbnNmb3JtPSJtYXRyaXgoMSAwIDAgMS4wMDExIDYwNSA0NDApIi8+PHRleHQgZm9udC1mYW1pbHk9IkFyaWFsLEFyaWFsX01TRm9udFNlcnZpY2Usc2Fucy1zZXJpZiIgZm9udC13ZWlnaHQ9IjcwMCIgZm9udC1zaXplPSI1IiB0cmFuc2Zvcm09Im1hdHJpeCgxIDAgMCAxLjAwMTEgNjA1IDUxOSkiPkNyZWF0ZWQgYnkgUmFobWF0IEhpZGF5YXQ8dHNwYW4gZm9udC1zaXplPSI1IiB4PSIwIiB5PSI0Ljk5NDQ4Ij5mcm9tIHRoZSBOb3VuIFByb2plY3Q8L3RzcGFuPjwvdGV4dD48L2c+PC9nPjwvZz48L2c+PC9zdmc+;" parent="LGTIWsO_x1LPyo_i8puS-1" vertex="1">
          <mxGeometry x="375.46" y="418" width="21.93" height="27.17" as="geometry" />
        </mxCell>
        <mxCell id="0fBK62NfARPhi3sExRjy-49" value="" style="endArrow=classic;startArrow=none;startFill=0;strokeColor=#FF0000;fontStyle=2" parent="LGTIWsO_x1LPyo_i8puS-1" edge="1">
          <mxGeometry width="50" height="50" relative="1" as="geometry">
            <mxPoint x="386.46" y="428" as="sourcePoint" />
            <mxPoint x="386.46" y="388" as="targetPoint" />
          </mxGeometry>
        </mxCell>
        <mxCell id="0fBK62NfARPhi3sExRjy-50" value="Uy" style="edgeLabel;align=center;verticalAlign=middle;resizable=0;points=[];fontFamily=Times New Roman;fontColor=#FF0000;fontStyle=2;labelBackgroundColor=none;" parent="0fBK62NfARPhi3sExRjy-49" vertex="1" connectable="0">
          <mxGeometry x="0.65" relative="1" as="geometry">
            <mxPoint x="-18" y="-9" as="offset" />
          </mxGeometry>
        </mxCell>
        <mxCell id="0fBK62NfARPhi3sExRjy-53" value="" style="endArrow=classic;startArrow=none;startFill=0;" parent="LGTIWsO_x1LPyo_i8puS-1" edge="1">
          <mxGeometry width="50" height="50" relative="1" as="geometry">
            <mxPoint x="386.46" y="428" as="sourcePoint" />
            <mxPoint x="453.46" y="388" as="targetPoint" />
          </mxGeometry>
        </mxCell>
        <mxCell id="0fBK62NfARPhi3sExRjy-54" value="Ux" style="edgeLabel;align=center;verticalAlign=middle;resizable=0;points=[];fontFamily=Times New Roman;fontColor=#FF0000;labelBackgroundColor=none;fontStyle=2" parent="0fBK62NfARPhi3sExRjy-53" vertex="1" connectable="0">
          <mxGeometry x="0.65" relative="1" as="geometry">
            <mxPoint x="-13" y="44" as="offset" />
          </mxGeometry>
        </mxCell>
        <mxCell id="0fBK62NfARPhi3sExRjy-55" value="" style="group" parent="LGTIWsO_x1LPyo_i8puS-1" vertex="1" connectable="0">
          <mxGeometry x="242.46" y="378" width="69.99999999999994" height="90" as="geometry" />
        </mxCell>
        <mxCell id="0fBK62NfARPhi3sExRjy-47" value="" style="endArrow=none;fontSize=10;strokeWidth=2;" parent="0fBK62NfARPhi3sExRjy-55" edge="1">
          <mxGeometry width="50" height="50" relative="1" as="geometry">
            <mxPoint x="15" y="50" as="sourcePoint" />
            <mxPoint x="272" y="50" as="targetPoint" />
          </mxGeometry>
        </mxCell>
        <mxCell id="0fBK62NfARPhi3sExRjy-56" value="" style="endArrow=classicThin;startArrow=none;startFill=0;strokeColor=#FF0000;endFill=1;" parent="0fBK62NfARPhi3sExRjy-55" edge="1">
          <mxGeometry width="50" height="50" relative="1" as="geometry">
            <mxPoint x="15.170000000000016" y="50" as="sourcePoint" />
            <mxPoint x="15" y="-10" as="targetPoint" />
          </mxGeometry>
        </mxCell>
        <mxCell id="0fBK62NfARPhi3sExRjy-57" value="Fyr" style="edgeLabel;align=center;verticalAlign=middle;resizable=0;points=[];fontFamily=Times New Roman;fontColor=#FF0000;fontStyle=2;labelBackgroundColor=none;" parent="0fBK62NfARPhi3sExRjy-56" vertex="1" connectable="0">
          <mxGeometry x="0.65" relative="1" as="geometry">
            <mxPoint x="13" y="-7" as="offset" />
          </mxGeometry>
        </mxCell>
        <mxCell id="0fBK62NfARPhi3sExRjy-60" value="" style="endArrow=classicThin;startArrow=none;startFill=0;endFill=1;" parent="0fBK62NfARPhi3sExRjy-55" edge="1">
          <mxGeometry width="50" height="50" relative="1" as="geometry">
            <mxPoint x="15" y="50" as="sourcePoint" />
            <mxPoint x="81" y="24" as="targetPoint" />
          </mxGeometry>
        </mxCell>
        <mxCell id="0fBK62NfARPhi3sExRjy-61" value="vr" style="edgeLabel;align=center;verticalAlign=middle;resizable=0;points=[];fontFamily=Times New Roman;labelBackgroundColor=none;fontStyle=2" parent="0fBK62NfARPhi3sExRjy-55" vertex="1" connectable="0">
          <mxGeometry x="77.99666666666667" y="15.999999999999886" as="geometry">
            <mxPoint x="-14" y="4" as="offset" />
          </mxGeometry>
        </mxCell>
        <mxCell id="0fBK62NfARPhi3sExRjy-62" value="" style="curved=1;endArrow=classicThin;strokeColor=#000000;fontFamily=Times New Roman;fontColor=#FF0000;endFill=1;endSize=1;" parent="0fBK62NfARPhi3sExRjy-55" edge="1">
          <mxGeometry width="50" height="50" relative="1" as="geometry">
            <mxPoint x="66" y="50" as="sourcePoint" />
            <mxPoint x="61" y="33" as="targetPoint" />
            <Array as="points">
              <mxPoint x="68" y="39" />
            </Array>
          </mxGeometry>
        </mxCell>
        <mxCell id="0fBK62NfARPhi3sExRjy-63" value="αr" style="edgeLabel;align=center;verticalAlign=middle;resizable=0;points=[];fontFamily=Times New Roman;fontSize=9;labelBackgroundColor=none;fontStyle=2" parent="0fBK62NfARPhi3sExRjy-55" vertex="1" connectable="0">
          <mxGeometry x="72.00320388349525" y="40.000000000000114" as="geometry" />
        </mxCell>
        <mxCell id="0fBK62NfARPhi3sExRjy-71" value="" style="group;rotation=-15;" parent="LGTIWsO_x1LPyo_i8puS-1" vertex="1" connectable="0">
          <mxGeometry x="516.46" y="358" width="91" height="60" as="geometry" />
        </mxCell>
        <mxCell id="0fBK62NfARPhi3sExRjy-72" value="" style="endArrow=classicThin;startArrow=none;startFill=0;strokeColor=#FF0000;endFill=1;" parent="0fBK62NfARPhi3sExRjy-71" edge="1">
          <mxGeometry width="50" height="50" relative="1" as="geometry">
            <mxPoint x="-4" y="71" as="sourcePoint" />
            <mxPoint x="-19" y="13" as="targetPoint" />
          </mxGeometry>
        </mxCell>
        <mxCell id="0fBK62NfARPhi3sExRjy-73" value="Fyf" style="edgeLabel;align=center;verticalAlign=middle;resizable=0;points=[];fontFamily=Times New Roman;fontColor=#FF0000;rotation=-15;fontStyle=2;labelBackgroundColor=none;" parent="0fBK62NfARPhi3sExRjy-72" vertex="1" connectable="0">
          <mxGeometry x="0.65" relative="1" as="geometry">
            <mxPoint x="13" y="-7" as="offset" />
          </mxGeometry>
        </mxCell>
        <mxCell id="0fBK62NfARPhi3sExRjy-74" value="" style="endArrow=none;startArrow=none;startFill=0;strokeColor=#000000;endFill=0;dashed=1;dashPattern=1 2;" parent="0fBK62NfARPhi3sExRjy-71" edge="1">
          <mxGeometry width="50" height="50" relative="1" as="geometry">
            <mxPoint x="-3" y="71" as="sourcePoint" />
            <mxPoint x="84" y="47" as="targetPoint" />
          </mxGeometry>
        </mxCell>
        <mxCell id="0fBK62NfARPhi3sExRjy-76" value="" style="endArrow=classicThin;startArrow=none;startFill=0;endFill=1;" parent="0fBK62NfARPhi3sExRjy-71" edge="1">
          <mxGeometry width="50" height="50" relative="1" as="geometry">
            <mxPoint x="-4" y="71" as="sourcePoint" />
            <mxPoint x="54" y="27" as="targetPoint" />
          </mxGeometry>
        </mxCell>
        <mxCell id="0fBK62NfARPhi3sExRjy-77" value="vf" style="edgeLabel;align=center;verticalAlign=middle;resizable=0;points=[];fontFamily=Times New Roman;labelBackgroundColor=none;rotation=-15;fontStyle=2" parent="0fBK62NfARPhi3sExRjy-71" vertex="1" connectable="0">
          <mxGeometry x="48" y="19" as="geometry">
            <mxPoint x="-14" y="4" as="offset" />
          </mxGeometry>
        </mxCell>
        <mxCell id="0fBK62NfARPhi3sExRjy-78" value="" style="curved=1;endArrow=classicThin;strokeColor=#000000;fontFamily=Times New Roman;fontColor=#FF0000;endFill=1;endSize=1;" parent="0fBK62NfARPhi3sExRjy-71" edge="1">
          <mxGeometry width="50" height="50" relative="1" as="geometry">
            <mxPoint x="48" y="56" as="sourcePoint" />
            <mxPoint x="37" y="41" as="targetPoint" />
            <Array as="points">
              <mxPoint x="46" y="47" />
            </Array>
          </mxGeometry>
        </mxCell>
        <mxCell id="0fBK62NfARPhi3sExRjy-79" value="αf" style="edgeLabel;align=center;verticalAlign=middle;resizable=0;points=[];fontFamily=Times New Roman;fontSize=9;labelBackgroundColor=none;rotation=-15;fontStyle=2" parent="0fBK62NfARPhi3sExRjy-71" vertex="1" connectable="0">
          <mxGeometry x="51" y="49" as="geometry">
            <mxPoint x="-0.8965754721680539" y="-4.381341395361314" as="offset" />
          </mxGeometry>
        </mxCell>
        <mxCell id="0fBK62NfARPhi3sExRjy-80" value="" style="endArrow=none;dashed=1;strokeWidth=1;fontFamily=Times New Roman;fontSize=7;fontColor=#000000;" parent="LGTIWsO_x1LPyo_i8puS-1" edge="1">
          <mxGeometry width="50" height="50" relative="1" as="geometry">
            <mxPoint x="593.46" y="428" as="sourcePoint" />
            <mxPoint x="513.46" y="428" as="targetPoint" />
          </mxGeometry>
        </mxCell>
        <mxCell id="0fBK62NfARPhi3sExRjy-81" value="δ" style="edgeLabel;align=center;verticalAlign=middle;resizable=0;points=[];fontFamily=Times New Roman;fontSize=9;labelBackgroundColor=none;rotation=-15;fontStyle=2" parent="LGTIWsO_x1LPyo_i8puS-1" vertex="1" connectable="0">
          <mxGeometry x="583.46" y="424" as="geometry">
            <mxPoint x="-0.8965754721680539" y="-4.381341395361314" as="offset" />
          </mxGeometry>
        </mxCell>
        <mxCell id="0fBK62NfARPhi3sExRjy-82" value="CG" style="text;resizable=0;autosize=1;align=center;verticalAlign=middle;points=[];fillColor=none;strokeColor=none;rounded=0;labelBackgroundColor=none;fontFamily=Times New Roman;fontSize=9;fontColor=#3333FF;" parent="LGTIWsO_x1LPyo_i8puS-1" vertex="1">
          <mxGeometry x="361.46" y="404" width="30" height="20" as="geometry" />
        </mxCell>
        <mxCell id="0fBK62NfARPhi3sExRjy-83" value="" style="curved=1;endArrow=classicThin;strokeColor=#000000;fontFamily=Times New Roman;fontColor=#FF0000;endFill=1;endSize=1;" parent="LGTIWsO_x1LPyo_i8puS-1" edge="1">
          <mxGeometry width="50" height="50" relative="1" as="geometry">
            <mxPoint x="420.46" y="428" as="sourcePoint" />
            <mxPoint x="414.46" y="411" as="targetPoint" />
            <Array as="points">
              <mxPoint x="421.46" y="417" />
            </Array>
          </mxGeometry>
        </mxCell>
        <mxCell id="0fBK62NfARPhi3sExRjy-84" value="β" style="edgeLabel;align=center;verticalAlign=middle;resizable=0;points=[];fontFamily=Times New Roman;fontStyle=2;fontSize=10;labelBackgroundColor=none;" parent="LGTIWsO_x1LPyo_i8puS-1" vertex="1" connectable="0">
          <mxGeometry x="429.3899029126214" y="416" as="geometry">
            <mxPoint x="-1" y="-2" as="offset" />
          </mxGeometry>
        </mxCell>
        <mxCell id="0fBK62NfARPhi3sExRjy-85" value="" style="curved=1;endArrow=classicThin;strokeColor=#000000;fontFamily=Times New Roman;fontColor=#FF0000;endFill=1;endSize=1;exitX=0.167;exitY=0.5;exitDx=0;exitDy=0;exitPerimeter=0;" parent="LGTIWsO_x1LPyo_i8puS-1" source="0fBK62NfARPhi3sExRjy-82" edge="1">
          <mxGeometry width="50" height="50" relative="1" as="geometry">
            <mxPoint x="361.4800000000001" y="414.65999999999997" as="sourcePoint" />
            <mxPoint x="370.46" y="444" as="targetPoint" />
            <Array as="points">
              <mxPoint x="355.46" y="430" />
            </Array>
          </mxGeometry>
        </mxCell>
        <mxCell id="0fBK62NfARPhi3sExRjy-86" value="r" style="edgeLabel;align=center;verticalAlign=middle;resizable=0;points=[];fontFamily=Times New Roman;fontStyle=2;fontSize=11;labelBackgroundColor=none;" parent="LGTIWsO_x1LPyo_i8puS-1" vertex="1" connectable="0">
          <mxGeometry x="359.4599029126214" y="436" as="geometry">
            <mxPoint x="-3" as="offset" />
          </mxGeometry>
        </mxCell>
        <mxCell id="0fBK62NfARPhi3sExRjy-87" value="" style="curved=1;endArrow=classicThin;strokeColor=#000000;fontFamily=Times New Roman;fontColor=#FF0000;endFill=1;endSize=1;" parent="LGTIWsO_x1LPyo_i8puS-1" edge="1">
          <mxGeometry width="50" height="50" relative="1" as="geometry">
            <mxPoint x="575.46" y="427" as="sourcePoint" />
            <mxPoint x="570.46" y="414" as="targetPoint" />
            <Array as="points">
              <mxPoint x="577.46" y="420" />
            </Array>
          </mxGeometry>
        </mxCell>
        <mxCell id="0fBK62NfARPhi3sExRjy-51" value="" style="endArrow=classic;startArrow=none;startFill=0;strokeColor=#FF0000;fontStyle=2" parent="LGTIWsO_x1LPyo_i8puS-1" edge="1">
          <mxGeometry width="50" height="50" relative="1" as="geometry">
            <mxPoint x="386.48999999999995" y="427.79999999999995" as="sourcePoint" />
            <mxPoint x="456.2899999999999" y="427.79999999999995" as="targetPoint" />
          </mxGeometry>
        </mxCell>
        <mxCell id="0fBK62NfARPhi3sExRjy-52" value="U" style="edgeLabel;align=center;verticalAlign=middle;resizable=0;points=[];fontFamily=Times New Roman;fontStyle=2;labelBackgroundColor=none;" parent="0fBK62NfARPhi3sExRjy-51" vertex="1" connectable="0">
          <mxGeometry x="0.65" relative="1" as="geometry">
            <mxPoint x="-26.7" y="-25.799999999999997" as="offset" />
          </mxGeometry>
        </mxCell>
        <mxCell id="tLmrU0jNE7iAB-vQCxsb-0" value="" style="rounded=1;strokeColor=#000000;strokeWidth=2;fillColor=#ffffff;gradientColor=#ffffff;fontSize=10;opacity=70;align=left;rotation=-15;" parent="LGTIWsO_x1LPyo_i8puS-1" vertex="1">
          <mxGeometry x="474.7699999999999" y="605" width="78.45" height="30" as="geometry" />
        </mxCell>
        <mxCell id="tLmrU0jNE7iAB-vQCxsb-1" value="" style="rounded=1;strokeColor=#000000;strokeWidth=2;fillColor=#ffffff;gradientColor=#ffffff;fontSize=10;opacity=70;align=left;" parent="LGTIWsO_x1LPyo_i8puS-1" vertex="1">
          <mxGeometry x="218.46" y="605" width="78.45" height="30" as="geometry" />
        </mxCell>
        <mxCell id="tLmrU0jNE7iAB-vQCxsb-2" value="" style="shape=image;verticalLabelPosition=bottom;labelBackgroundColor=#ffffff;verticalAlign=top;aspect=fixed;imageAspect=0;image=data:image/svg+xml,PHN2ZyB4bWxucz0iaHR0cDovL3d3dy53My5vcmcvMjAwMC9zdmciIHhtbG5zOnhsaW5rPSJodHRwOi8vd3d3LnczLm9yZy8xOTk5L3hsaW5rIiB3aWR0aD0iNjYuODI4MTI1IiBoZWlnaHQ9IjgyLjg5NDg5NzQ2MDkzNzUiIG92ZXJmbG93PSJoaWRkZW4iIHZpZXdCb3g9Ii0wLjg5MDYyNSAyLjAwMjE5NzI2NTYyNSA2Ni44MjgxMjUgODIuODk0ODk3NDYwOTM3NSI+PGRlZnM+PGNsaXBQYXRoIGlkPSJjbGlwMCI+PHJlY3QgeD0iNjA1IiB5PSI0NDAiIHdpZHRoPSI2NSIgaGVpZ2h0PSI2NyIvPjwvY2xpcFBhdGg+PGNsaXBQYXRoIGlkPSJjbGlwMSI+PHJlY3QgeD0iNjA1IiB5PSI0NDAiIHdpZHRoPSI2NCIgaGVpZ2h0PSI2NiIvPjwvY2xpcFBhdGg+PGNsaXBQYXRoIGlkPSJjbGlwMiI+PHJlY3QgeD0iNjA1IiB5PSI0NDAiIHdpZHRoPSI2NCIgaGVpZ2h0PSI2NiIvPjwvY2xpcFBhdGg+PGNsaXBQYXRoIGlkPSJjbGlwMyI+PHJlY3QgeD0iNjA1IiB5PSI0NDAiIHdpZHRoPSI2NCIgaGVpZ2h0PSI4MSIvPjwvY2xpcFBhdGg+PC9kZWZzPjxnIGNsaXAtcGF0aD0idXJsKCNjbGlwMCkiIHRyYW5zZm9ybT0idHJhbnNsYXRlKC02MDUgLTQ0MCkiPjxnIGNsaXAtcGF0aD0idXJsKCNjbGlwMSkiPjxnIGNsaXAtcGF0aD0idXJsKCNjbGlwMikiPjxnIGNsaXAtcGF0aD0idXJsKCNjbGlwMykiPjxwYXRoIGQ9Ik0zMiAyQzE1LjQgMiAyIDE1LjQgMiAzMiAyIDQ4LjYgMTUuNCA2MiAzMiA2MiA0OC42IDYyIDYyIDQ4LjYgNjIgMzIgNjIgMTUuNCA0OC42IDIgMzIgMlpNMzIgNTggMzIgMzIgNiAzMkM2IDE3LjYgMTcuNiA2IDMyIDZMMzIgMzIgNTggMzJDNTggNDYuNCA0Ni40IDU4IDMyIDU4WiIgdHJhbnNmb3JtPSJtYXRyaXgoMSAwIDAgMS4wMDExIDYwNSA0NDApIi8+PHRleHQgZm9udC1mYW1pbHk9IkFyaWFsLEFyaWFsX01TRm9udFNlcnZpY2Usc2Fucy1zZXJpZiIgZm9udC13ZWlnaHQ9IjcwMCIgZm9udC1zaXplPSI1IiB0cmFuc2Zvcm09Im1hdHJpeCgxIDAgMCAxLjAwMTEgNjA1IDUxOSkiPkNyZWF0ZWQgYnkgUmFobWF0IEhpZGF5YXQ8dHNwYW4gZm9udC1zaXplPSI1IiB4PSIwIiB5PSI0Ljk5NDQ4Ij5mcm9tIHRoZSBOb3VuIFByb2plY3Q8L3RzcGFuPjwvdGV4dD48L2c+PC9nPjwvZz48L2c+PC9zdmc+;" parent="LGTIWsO_x1LPyo_i8puS-1" vertex="1">
          <mxGeometry x="375.46" y="610" width="21.93" height="27.17" as="geometry" />
        </mxCell>
        <mxCell id="tLmrU0jNE7iAB-vQCxsb-3" value="" style="endArrow=classic;startArrow=none;startFill=0;strokeColor=#000000;fontStyle=2;fontColor=#000000;" parent="LGTIWsO_x1LPyo_i8puS-1" edge="1">
          <mxGeometry width="50" height="50" relative="1" as="geometry">
            <mxPoint x="386.46" y="620" as="sourcePoint" />
            <mxPoint x="386.46" y="598" as="targetPoint" />
          </mxGeometry>
        </mxCell>
        <mxCell id="tLmrU0jNE7iAB-vQCxsb-4" value="Uy" style="edgeLabel;align=center;verticalAlign=middle;resizable=0;points=[];fontFamily=Times New Roman;fontColor=#000000;fontStyle=2;labelBackgroundColor=none;" parent="tLmrU0jNE7iAB-vQCxsb-3" vertex="1" connectable="0">
          <mxGeometry x="0.65" relative="1" as="geometry">
            <mxPoint x="13" as="offset" />
          </mxGeometry>
        </mxCell>
        <mxCell id="tLmrU0jNE7iAB-vQCxsb-7" value="" style="group" parent="LGTIWsO_x1LPyo_i8puS-1" vertex="1" connectable="0">
          <mxGeometry x="242.46" y="570" width="69.99999999999994" height="90" as="geometry" />
        </mxCell>
        <mxCell id="tLmrU0jNE7iAB-vQCxsb-8" value="" style="endArrow=none;fontSize=10;strokeWidth=2;" parent="tLmrU0jNE7iAB-vQCxsb-7" edge="1">
          <mxGeometry width="50" height="50" relative="1" as="geometry">
            <mxPoint x="15" y="50" as="sourcePoint" />
            <mxPoint x="272" y="50" as="targetPoint" />
          </mxGeometry>
        </mxCell>
        <mxCell id="tLmrU0jNE7iAB-vQCxsb-13" value="" style="endArrow=classicThin;startArrow=none;startFill=0;endFill=1;" parent="tLmrU0jNE7iAB-vQCxsb-7" edge="1">
          <mxGeometry width="50" height="50" relative="1" as="geometry">
            <mxPoint x="15" y="50" as="sourcePoint" />
            <mxPoint x="81" y="24" as="targetPoint" />
          </mxGeometry>
        </mxCell>
        <mxCell id="tLmrU0jNE7iAB-vQCxsb-14" value="vr" style="edgeLabel;align=center;verticalAlign=middle;resizable=0;points=[];fontFamily=Times New Roman;labelBackgroundColor=none;fontStyle=2" parent="tLmrU0jNE7iAB-vQCxsb-7" vertex="1" connectable="0">
          <mxGeometry x="77.99666666666667" y="15.999999999999886" as="geometry">
            <mxPoint x="-14" y="4" as="offset" />
          </mxGeometry>
        </mxCell>
        <mxCell id="tLmrU0jNE7iAB-vQCxsb-15" value="" style="curved=1;endArrow=classicThin;strokeColor=#000000;fontFamily=Times New Roman;fontColor=#FF0000;endFill=1;endSize=1;" parent="tLmrU0jNE7iAB-vQCxsb-7" edge="1">
          <mxGeometry width="50" height="50" relative="1" as="geometry">
            <mxPoint x="66" y="50" as="sourcePoint" />
            <mxPoint x="61" y="33" as="targetPoint" />
            <Array as="points">
              <mxPoint x="68" y="39" />
            </Array>
          </mxGeometry>
        </mxCell>
        <mxCell id="tLmrU0jNE7iAB-vQCxsb-16" value="αr" style="edgeLabel;align=center;verticalAlign=middle;resizable=0;points=[];fontFamily=Times New Roman;fontSize=9;labelBackgroundColor=none;fontStyle=2" parent="tLmrU0jNE7iAB-vQCxsb-7" vertex="1" connectable="0">
          <mxGeometry x="72.00320388349525" y="40.000000000000114" as="geometry" />
        </mxCell>
        <mxCell id="tLmrU0jNE7iAB-vQCxsb-17" value="" style="group;rotation=-15;" parent="LGTIWsO_x1LPyo_i8puS-1" vertex="1" connectable="0">
          <mxGeometry x="516.46" y="550" width="91" height="60" as="geometry" />
        </mxCell>
        <mxCell id="tLmrU0jNE7iAB-vQCxsb-20" value="" style="endArrow=classicThin;startArrow=none;startFill=0;strokeColor=#1A1A1A;endFill=1;" parent="tLmrU0jNE7iAB-vQCxsb-17" edge="1">
          <mxGeometry width="50" height="50" relative="1" as="geometry">
            <mxPoint x="-3" y="71" as="sourcePoint" />
            <mxPoint x="84" y="47" as="targetPoint" />
          </mxGeometry>
        </mxCell>
        <mxCell id="tLmrU0jNE7iAB-vQCxsb-22" value="" style="endArrow=classicThin;startArrow=none;startFill=0;endFill=1;" parent="tLmrU0jNE7iAB-vQCxsb-17" edge="1">
          <mxGeometry width="50" height="50" relative="1" as="geometry">
            <mxPoint x="-4" y="71" as="sourcePoint" />
            <mxPoint x="54" y="27" as="targetPoint" />
          </mxGeometry>
        </mxCell>
        <mxCell id="tLmrU0jNE7iAB-vQCxsb-23" value="vf" style="edgeLabel;align=center;verticalAlign=middle;resizable=0;points=[];fontFamily=Times New Roman;labelBackgroundColor=none;rotation=-15;fontStyle=2" parent="tLmrU0jNE7iAB-vQCxsb-17" vertex="1" connectable="0">
          <mxGeometry x="48" y="19" as="geometry">
            <mxPoint x="-14" y="4" as="offset" />
          </mxGeometry>
        </mxCell>
        <mxCell id="tLmrU0jNE7iAB-vQCxsb-24" value="" style="curved=1;endArrow=classicThin;strokeColor=#000000;fontFamily=Times New Roman;fontColor=#FF0000;endFill=1;endSize=1;" parent="tLmrU0jNE7iAB-vQCxsb-17" edge="1">
          <mxGeometry width="50" height="50" relative="1" as="geometry">
            <mxPoint x="48" y="56" as="sourcePoint" />
            <mxPoint x="37" y="41" as="targetPoint" />
            <Array as="points">
              <mxPoint x="46" y="47" />
            </Array>
          </mxGeometry>
        </mxCell>
        <mxCell id="tLmrU0jNE7iAB-vQCxsb-25" value="αf" style="edgeLabel;align=center;verticalAlign=middle;resizable=0;points=[];fontFamily=Times New Roman;fontSize=9;labelBackgroundColor=none;rotation=-15;fontStyle=2" parent="tLmrU0jNE7iAB-vQCxsb-17" vertex="1" connectable="0">
          <mxGeometry x="51" y="49" as="geometry">
            <mxPoint x="-0.8965754721680539" y="-4.381341395361314" as="offset" />
          </mxGeometry>
        </mxCell>
        <mxCell id="tLmrU0jNE7iAB-vQCxsb-26" value="" style="endArrow=none;dashed=1;strokeWidth=1;fontFamily=Times New Roman;fontSize=7;fontColor=#000000;" parent="LGTIWsO_x1LPyo_i8puS-1" edge="1">
          <mxGeometry width="50" height="50" relative="1" as="geometry">
            <mxPoint x="593.4600000000003" y="620" as="sourcePoint" />
            <mxPoint x="513.4600000000003" y="620" as="targetPoint" />
          </mxGeometry>
        </mxCell>
        <mxCell id="tLmrU0jNE7iAB-vQCxsb-27" value="δ" style="edgeLabel;align=center;verticalAlign=middle;resizable=0;points=[];fontFamily=Times New Roman;fontSize=9;labelBackgroundColor=none;rotation=-15;fontStyle=2" parent="LGTIWsO_x1LPyo_i8puS-1" vertex="1" connectable="0">
          <mxGeometry x="583.46" y="616" as="geometry">
            <mxPoint x="-0.8965754721680539" y="-4.381341395361314" as="offset" />
          </mxGeometry>
        </mxCell>
        <mxCell id="tLmrU0jNE7iAB-vQCxsb-31" value="" style="curved=1;endArrow=classicThin;strokeColor=#000000;fontFamily=Times New Roman;fontColor=#FF0000;endFill=1;endSize=1;exitX=0.167;exitY=0.5;exitDx=0;exitDy=0;exitPerimeter=0;" parent="LGTIWsO_x1LPyo_i8puS-1" edge="1">
          <mxGeometry width="50" height="50" relative="1" as="geometry">
            <mxPoint x="366.4700000000001" y="606" as="sourcePoint" />
            <mxPoint x="370.46" y="636" as="targetPoint" />
            <Array as="points">
              <mxPoint x="355.46" y="622" />
            </Array>
          </mxGeometry>
        </mxCell>
        <mxCell id="tLmrU0jNE7iAB-vQCxsb-32" value="r" style="edgeLabel;align=center;verticalAlign=middle;resizable=0;points=[];fontFamily=Times New Roman;fontStyle=2;fontSize=11;labelBackgroundColor=none;" parent="LGTIWsO_x1LPyo_i8puS-1" vertex="1" connectable="0">
          <mxGeometry x="359.4599029126214" y="628" as="geometry">
            <mxPoint x="-3" as="offset" />
          </mxGeometry>
        </mxCell>
        <mxCell id="tLmrU0jNE7iAB-vQCxsb-33" value="" style="curved=1;endArrow=classicThin;strokeColor=#000000;fontFamily=Times New Roman;fontColor=#FF0000;endFill=1;endSize=1;" parent="LGTIWsO_x1LPyo_i8puS-1" edge="1">
          <mxGeometry width="50" height="50" relative="1" as="geometry">
            <mxPoint x="575.4599999999998" y="619" as="sourcePoint" />
            <mxPoint x="570.4599999999998" y="606" as="targetPoint" />
            <Array as="points">
              <mxPoint x="577.46" y="612" />
            </Array>
          </mxGeometry>
        </mxCell>
        <mxCell id="tLmrU0jNE7iAB-vQCxsb-34" value="" style="endArrow=classic;startArrow=none;startFill=0;strokeColor=#000000;fontStyle=2;fontColor=#000000;" parent="LGTIWsO_x1LPyo_i8puS-1" edge="1">
          <mxGeometry width="50" height="50" relative="1" as="geometry">
            <mxPoint x="386.48999999999995" y="619.8" as="sourcePoint" />
            <mxPoint x="456.2899999999999" y="619.8" as="targetPoint" />
          </mxGeometry>
        </mxCell>
        <mxCell id="tLmrU0jNE7iAB-vQCxsb-36" value="CG" style="text;resizable=0;autosize=1;align=center;verticalAlign=middle;points=[];fillColor=none;strokeColor=none;rounded=0;labelBackgroundColor=none;fontFamily=Times New Roman;fontSize=9;fontColor=#3333FF;" parent="LGTIWsO_x1LPyo_i8puS-1" vertex="1">
          <mxGeometry x="371.41999999999996" y="628" width="30" height="20" as="geometry" />
        </mxCell>
        <mxCell id="tLmrU0jNE7iAB-vQCxsb-39" value="Ux" style="edgeLabel;align=center;verticalAlign=middle;resizable=0;points=[];fontFamily=Times New Roman;fontColor=#000000;fontStyle=2;labelBackgroundColor=none;" parent="LGTIWsO_x1LPyo_i8puS-1" vertex="1" connectable="0">
          <mxGeometry x="417.46" y="610" as="geometry">
            <mxPoint x="32" y="-5" as="offset" />
          </mxGeometry>
        </mxCell>
        <mxCell id="W0aZhLsAGr6jf6HmhB4e-0" value="" style="rounded=1;strokeColor=#000000;strokeWidth=2;fillColor=#ffffff;gradientColor=#ffffff;fontSize=10;opacity=70;align=left;rotation=-15;" parent="LGTIWsO_x1LPyo_i8puS-1" vertex="1">
          <mxGeometry x="471.30999999999995" y="801" width="78.45" height="30" as="geometry" />
        </mxCell>
        <mxCell id="W0aZhLsAGr6jf6HmhB4e-1" value="" style="rounded=1;strokeColor=#000000;strokeWidth=2;fillColor=#ffffff;gradientColor=#ffffff;fontSize=10;opacity=70;align=left;" parent="LGTIWsO_x1LPyo_i8puS-1" vertex="1">
          <mxGeometry x="215" y="801" width="78.45" height="30" as="geometry" />
        </mxCell>
        <mxCell id="W0aZhLsAGr6jf6HmhB4e-2" value="" style="shape=image;verticalLabelPosition=bottom;labelBackgroundColor=#ffffff;verticalAlign=top;aspect=fixed;imageAspect=0;image=data:image/svg+xml,PHN2ZyB4bWxucz0iaHR0cDovL3d3dy53My5vcmcvMjAwMC9zdmciIHhtbG5zOnhsaW5rPSJodHRwOi8vd3d3LnczLm9yZy8xOTk5L3hsaW5rIiB3aWR0aD0iNjYuODI4MTI1IiBoZWlnaHQ9IjgyLjg5NDg5NzQ2MDkzNzUiIG92ZXJmbG93PSJoaWRkZW4iIHZpZXdCb3g9Ii0wLjg5MDYyNSAyLjAwMjE5NzI2NTYyNSA2Ni44MjgxMjUgODIuODk0ODk3NDYwOTM3NSI+PGRlZnM+PGNsaXBQYXRoIGlkPSJjbGlwMCI+PHJlY3QgeD0iNjA1IiB5PSI0NDAiIHdpZHRoPSI2NSIgaGVpZ2h0PSI2NyIvPjwvY2xpcFBhdGg+PGNsaXBQYXRoIGlkPSJjbGlwMSI+PHJlY3QgeD0iNjA1IiB5PSI0NDAiIHdpZHRoPSI2NCIgaGVpZ2h0PSI2NiIvPjwvY2xpcFBhdGg+PGNsaXBQYXRoIGlkPSJjbGlwMiI+PHJlY3QgeD0iNjA1IiB5PSI0NDAiIHdpZHRoPSI2NCIgaGVpZ2h0PSI2NiIvPjwvY2xpcFBhdGg+PGNsaXBQYXRoIGlkPSJjbGlwMyI+PHJlY3QgeD0iNjA1IiB5PSI0NDAiIHdpZHRoPSI2NCIgaGVpZ2h0PSI4MSIvPjwvY2xpcFBhdGg+PC9kZWZzPjxnIGNsaXAtcGF0aD0idXJsKCNjbGlwMCkiIHRyYW5zZm9ybT0idHJhbnNsYXRlKC02MDUgLTQ0MCkiPjxnIGNsaXAtcGF0aD0idXJsKCNjbGlwMSkiPjxnIGNsaXAtcGF0aD0idXJsKCNjbGlwMikiPjxnIGNsaXAtcGF0aD0idXJsKCNjbGlwMykiPjxwYXRoIGQ9Ik0zMiAyQzE1LjQgMiAyIDE1LjQgMiAzMiAyIDQ4LjYgMTUuNCA2MiAzMiA2MiA0OC42IDYyIDYyIDQ4LjYgNjIgMzIgNjIgMTUuNCA0OC42IDIgMzIgMlpNMzIgNTggMzIgMzIgNiAzMkM2IDE3LjYgMTcuNiA2IDMyIDZMMzIgMzIgNTggMzJDNTggNDYuNCA0Ni40IDU4IDMyIDU4WiIgdHJhbnNmb3JtPSJtYXRyaXgoMSAwIDAgMS4wMDExIDYwNSA0NDApIi8+PHRleHQgZm9udC1mYW1pbHk9IkFyaWFsLEFyaWFsX01TRm9udFNlcnZpY2Usc2Fucy1zZXJpZiIgZm9udC13ZWlnaHQ9IjcwMCIgZm9udC1zaXplPSI1IiB0cmFuc2Zvcm09Im1hdHJpeCgxIDAgMCAxLjAwMTEgNjA1IDUxOSkiPkNyZWF0ZWQgYnkgUmFobWF0IEhpZGF5YXQ8dHNwYW4gZm9udC1zaXplPSI1IiB4PSIwIiB5PSI0Ljk5NDQ4Ij5mcm9tIHRoZSBOb3VuIFByb2plY3Q8L3RzcGFuPjwvdGV4dD48L2c+PC9nPjwvZz48L2c+PC9zdmc+;" parent="LGTIWsO_x1LPyo_i8puS-1" vertex="1">
          <mxGeometry x="372" y="806" width="21.93" height="27.17" as="geometry" />
        </mxCell>
        <mxCell id="W0aZhLsAGr6jf6HmhB4e-5" value="" style="group" parent="LGTIWsO_x1LPyo_i8puS-1" vertex="1" connectable="0">
          <mxGeometry x="239" y="766" width="69.99999999999994" height="90" as="geometry" />
        </mxCell>
        <mxCell id="W0aZhLsAGr6jf6HmhB4e-6" value="" style="endArrow=none;fontSize=10;strokeWidth=2;" parent="W0aZhLsAGr6jf6HmhB4e-5" edge="1">
          <mxGeometry width="50" height="50" relative="1" as="geometry">
            <mxPoint x="15" y="50" as="sourcePoint" />
            <mxPoint x="272" y="50" as="targetPoint" />
          </mxGeometry>
        </mxCell>
        <mxCell id="W0aZhLsAGr6jf6HmhB4e-17" value="" style="endArrow=none;dashed=1;strokeWidth=1;fontFamily=Times New Roman;fontSize=7;fontColor=#000000;" parent="LGTIWsO_x1LPyo_i8puS-1" edge="1">
          <mxGeometry width="50" height="50" relative="1" as="geometry">
            <mxPoint x="590" y="816" as="sourcePoint" />
            <mxPoint x="510.0000000000002" y="816" as="targetPoint" />
          </mxGeometry>
        </mxCell>
        <mxCell id="W0aZhLsAGr6jf6HmhB4e-23" value="CG" style="text;resizable=0;autosize=1;align=center;verticalAlign=middle;points=[];fillColor=none;strokeColor=none;rounded=0;labelBackgroundColor=none;fontFamily=Times New Roman;fontSize=9;fontColor=#3333FF;" parent="LGTIWsO_x1LPyo_i8puS-1" vertex="1">
          <mxGeometry x="367.96" y="824" width="30" height="20" as="geometry" />
        </mxCell>
        <mxCell id="fwVC2J-K2TIiizky-qtY-0" value="" style="endArrow=none;dashed=1;strokeWidth=1;fontFamily=Times New Roman;fontSize=7;fontColor=#000000;" edge="1" parent="LGTIWsO_x1LPyo_i8puS-1">
          <mxGeometry width="50" height="50" relative="1" as="geometry">
            <mxPoint x="261.9999999999999" y="299" as="sourcePoint" />
            <mxPoint x="261.9999999999999" y="249" as="targetPoint" />
          </mxGeometry>
        </mxCell>
        <mxCell id="fwVC2J-K2TIiizky-qtY-1" value="" style="endArrow=none;dashed=1;strokeWidth=1;fontFamily=Times New Roman;fontSize=7;fontColor=#000000;" edge="1" parent="LGTIWsO_x1LPyo_i8puS-1">
          <mxGeometry width="50" height="50" relative="1" as="geometry">
            <mxPoint x="262" y="299" as="sourcePoint" />
            <mxPoint x="262" y="249" as="targetPoint" />
          </mxGeometry>
        </mxCell>
        <mxCell id="fwVC2J-K2TIiizky-qtY-2" value="" style="endArrow=classicThin;fontSize=10;strokeWidth=1;strokeColor=#3333FF;startArrow=classicThin;startFill=1;endFill=1;" edge="1" parent="LGTIWsO_x1LPyo_i8puS-1">
          <mxGeometry width="50" height="50" relative="1" as="geometry">
            <mxPoint x="262.9999999999999" y="294" as="sourcePoint" />
            <mxPoint x="413" y="294" as="targetPoint" />
          </mxGeometry>
        </mxCell>
        <mxCell id="fwVC2J-K2TIiizky-qtY-3" value="b" style="edgeLabel;align=center;verticalAlign=middle;resizable=0;points=[];fontSize=11;fontFamily=Times New Roman;fontColor=#3333FF;fontStyle=2;labelBackgroundColor=none;" vertex="1" connectable="0" parent="fwVC2J-K2TIiizky-qtY-2">
          <mxGeometry x="0.3697" relative="1" as="geometry">
            <mxPoint x="-22.78" y="-10" as="offset" />
          </mxGeometry>
        </mxCell>
        <mxCell id="fwVC2J-K2TIiizky-qtY-4" value="" style="endArrow=none;dashed=1;strokeWidth=1;fontFamily=Times New Roman;fontSize=7;fontColor=#000000;" edge="1" parent="LGTIWsO_x1LPyo_i8puS-1">
          <mxGeometry width="50" height="50" relative="1" as="geometry">
            <mxPoint x="412.79999999999995" y="299" as="sourcePoint" />
            <mxPoint x="412.79999999999995" y="249" as="targetPoint" />
          </mxGeometry>
        </mxCell>
        <mxCell id="fwVC2J-K2TIiizky-qtY-5" value="" style="endArrow=classicThin;fontSize=10;strokeWidth=1;strokeColor=#3333FF;startArrow=classicThin;startFill=1;endFill=1;" edge="1" parent="LGTIWsO_x1LPyo_i8puS-1">
          <mxGeometry width="50" height="50" relative="1" as="geometry">
            <mxPoint x="414" y="294" as="sourcePoint" />
            <mxPoint x="553" y="294" as="targetPoint" />
          </mxGeometry>
        </mxCell>
        <mxCell id="fwVC2J-K2TIiizky-qtY-6" value="a" style="edgeLabel;align=center;verticalAlign=middle;resizable=0;points=[];fontSize=11;fontFamily=Times New Roman;fontColor=#3333FF;labelBackgroundColor=none;fontStyle=2" vertex="1" connectable="0" parent="fwVC2J-K2TIiizky-qtY-5">
          <mxGeometry x="-0.3716" y="-1" relative="1" as="geometry">
            <mxPoint x="25.39" y="-10" as="offset" />
          </mxGeometry>
        </mxCell>
        <mxCell id="fwVC2J-K2TIiizky-qtY-7" value="" style="endArrow=none;dashed=1;strokeWidth=1;fontFamily=Times New Roman;fontSize=7;fontColor=#000000;" edge="1" parent="LGTIWsO_x1LPyo_i8puS-1">
          <mxGeometry width="50" height="50" relative="1" as="geometry">
            <mxPoint x="512.9999999999999" y="478" as="sourcePoint" />
            <mxPoint x="512.9999999999999" y="428" as="targetPoint" />
          </mxGeometry>
        </mxCell>
        <mxCell id="fwVC2J-K2TIiizky-qtY-8" value="" style="endArrow=none;dashed=1;strokeWidth=1;fontFamily=Times New Roman;fontSize=7;fontColor=#000000;" edge="1" parent="LGTIWsO_x1LPyo_i8puS-1">
          <mxGeometry width="50" height="50" relative="1" as="geometry">
            <mxPoint x="257.91" y="478" as="sourcePoint" />
            <mxPoint x="257.91" y="428" as="targetPoint" />
          </mxGeometry>
        </mxCell>
        <mxCell id="fwVC2J-K2TIiizky-qtY-9" value="" style="endArrow=classicThin;fontSize=10;strokeWidth=1;strokeColor=#3333FF;startArrow=classicThin;startFill=1;endFill=1;" edge="1" parent="LGTIWsO_x1LPyo_i8puS-1">
          <mxGeometry width="50" height="50" relative="1" as="geometry">
            <mxPoint x="258.9099999999999" y="473" as="sourcePoint" />
            <mxPoint x="386" y="473" as="targetPoint" />
          </mxGeometry>
        </mxCell>
        <mxCell id="fwVC2J-K2TIiizky-qtY-10" value="b" style="edgeLabel;align=center;verticalAlign=middle;resizable=0;points=[];fontSize=11;fontFamily=Times New Roman;fontColor=#3333FF;fontStyle=2;labelBackgroundColor=none;" vertex="1" connectable="0" parent="fwVC2J-K2TIiizky-qtY-9">
          <mxGeometry x="0.3697" relative="1" as="geometry">
            <mxPoint x="-27" y="-8" as="offset" />
          </mxGeometry>
        </mxCell>
        <mxCell id="fwVC2J-K2TIiizky-qtY-11" value="" style="endArrow=none;dashed=1;strokeWidth=1;fontFamily=Times New Roman;fontSize=7;fontColor=#000000;" edge="1" parent="LGTIWsO_x1LPyo_i8puS-1">
          <mxGeometry width="50" height="50" relative="1" as="geometry">
            <mxPoint x="385.71" y="478" as="sourcePoint" />
            <mxPoint x="385.71" y="428" as="targetPoint" />
          </mxGeometry>
        </mxCell>
        <mxCell id="fwVC2J-K2TIiizky-qtY-12" value="" style="endArrow=classicThin;fontSize=10;strokeWidth=1;strokeColor=#3333FF;startArrow=classicThin;startFill=1;endFill=1;" edge="1" parent="LGTIWsO_x1LPyo_i8puS-1">
          <mxGeometry width="50" height="50" relative="1" as="geometry">
            <mxPoint x="386.91" y="473" as="sourcePoint" />
            <mxPoint x="512" y="473" as="targetPoint" />
          </mxGeometry>
        </mxCell>
        <mxCell id="fwVC2J-K2TIiizky-qtY-13" value="a" style="edgeLabel;align=center;verticalAlign=middle;resizable=0;points=[];fontSize=11;fontFamily=Times New Roman;fontColor=#3333FF;labelBackgroundColor=none;fontStyle=2" vertex="1" connectable="0" parent="fwVC2J-K2TIiizky-qtY-12">
          <mxGeometry x="-0.3716" y="-1" relative="1" as="geometry">
            <mxPoint x="30" y="-8" as="offset" />
          </mxGeometry>
        </mxCell>
      </root>
    </mxGraphModel>
  </diagram>
  <diagram id="uWAB7sIvrwMmzTFDPooW" name="Page-4">
    <mxGraphModel dx="1422" dy="705" grid="0" gridSize="10" guides="1" tooltips="1" connect="1" arrows="1" fold="1" page="1" pageScale="1" pageWidth="850" pageHeight="1100" math="0" shadow="0">
      <root>
        <mxCell id="rcA1wXQUjvKvjiEHoA8G-0" />
        <mxCell id="rcA1wXQUjvKvjiEHoA8G-1" parent="rcA1wXQUjvKvjiEHoA8G-0" />
        <mxCell id="rcA1wXQUjvKvjiEHoA8G-2" value="" style="shape=image;verticalLabelPosition=bottom;labelBackgroundColor=#ffffff;verticalAlign=top;aspect=fixed;imageAspect=0;image=data:image/svg+xml,PHN2ZyB4bWxucz0iaHR0cDovL3d3dy53My5vcmcvMjAwMC9zdmciIHhtbG5zOnhsaW5rPSJodHRwOi8vd3d3LnczLm9yZy8xOTk5L3hsaW5rIiB3aWR0aD0iMTE1NS4yMDU5MzI2MTcxODc1IiBoZWlnaHQ9IjI2MC43MzkzMTg4NDc2NTYyNSIgb3ZlcmZsb3c9ImhpZGRlbiIgdmlld0JveD0iMTcuMzk1NjQ4OTU2Mjk4ODI4IDEuNTgxNjgwMjk3ODUxNTYyNSAxMTU1LjIwNTkzMjYxNzE4NzUgMjYwLjczOTMxODg0NzY1NjI1Ij48ZGVmcz48Y2xpcFBhdGggaWQ9ImNsaXAwIj48cmVjdCB4PSIxNyIgeT0iMTkwIiB3aWR0aD0iMTE5MCIgaGVpZ2h0PSIzMTAiLz48L2NsaXBQYXRoPjxjbGlwUGF0aCBpZD0iY2xpcDEiPjxyZWN0IHg9IjE4IiB5PSIxOTEiIHdpZHRoPSIxMTg4IiBoZWlnaHQ9IjMwOCIvPjwvY2xpcFBhdGg+PGNsaXBQYXRoIGlkPSJjbGlwMiI+PHJlY3QgeD0iMTgiIHk9IjE5MSIgd2lkdGg9IjExODgiIGhlaWdodD0iMzA4Ii8+PC9jbGlwUGF0aD48Y2xpcFBhdGggaWQ9ImNsaXAzIj48cmVjdCB4PSIxOCIgeT0iMTkxIiB3aWR0aD0iMTE4OCIgaGVpZ2h0PSIzMDgiLz48L2NsaXBQYXRoPjwvZGVmcz48ZyBjbGlwLXBhdGg9InVybCgjY2xpcDApIiB0cmFuc2Zvcm09InRyYW5zbGF0ZSgtMTcgLTE5MCkiPjxnIGNsaXAtcGF0aD0idXJsKCNjbGlwMSkiPjxnIGNsaXAtcGF0aD0idXJsKCNjbGlwMikiPjxnIGNsaXAtcGF0aD0idXJsKCNjbGlwMykiPjxwYXRoIGQ9Ik00NDQuNzg2IDI1OC4wNyAzNC4yMjIyIDI1OC4wN0MxMS40MDc0IDI1OC4wNyA4LjU2Njk2IDI1MC41MjkgMjUuNzAwOSAyMzUuNDQ5TDI2OC44MTYgMjEuNDkxNkMyODUuOTQ5IDYuNDEwOTYgMzA1LjkyNC0xLjEyOTMzIDMyOC43MzktMS4xMjkzM0wxMTQ5Ljg3LTEuMTI5MzNDMTE3Mi42OC0xLjEyOTMzIDExNzUuNTIgNi40MTA5NiAxMTU4LjM5IDIxLjQ5MTZMOTE1LjI3MyAyMzUuNDQ5Qzg5OC4xMzkgMjUwLjUyOSA4NzguMTY1IDI1OC4wNyA4NTUuMzUgMjU4LjA3WiIgc3Ryb2tlPSIjMzYzOTNEIiBzdHJva2Utd2lkdGg9IjMuNDIyMjIiIHN0cm9rZS1taXRlcmxpbWl0PSIxMCIgZmlsbD0iI0NERUI4QiIgdHJhbnNmb3JtPSJtYXRyaXgoMS4wMDA0MSAwIDAgMSAxOS43MTE4IDE5Mi43MTEpIi8+PHBhdGggZD0iTTgyLjIwMTggMTg4LjQ5NiAyODEuNjQ5IDExLjE5MDcgMTE2NS45OSAxMS4xOTA3IDk2Ni41MzggMTg4LjQ5NloiIGZpbGw9IiM4MDgwODAiIHRyYW5zZm9ybT0ibWF0cml4KDEuMDAwNDEgMCAwIDEgMTkuNzExOCAxOTIuNzExKSIvPjxwYXRoIGQ9Ik0yODQuMDQ0IDEzLjU1MiAxMTYyLjU2IDEzLjk2MjciIHN0cm9rZT0iI0ZGOTkzMyIgc3Ryb2tlLXdpZHRoPSIxMC4yNjY3IiBzdHJva2UtbWl0ZXJsaW1pdD0iMTAiIGZpbGw9Im5vbmUiIHRyYW5zZm9ybT0ibWF0cml4KDEuMDAwNDEgMCAwIDEgMTkuNzExOCAxOTIuNzExKSIvPjxwYXRoIGQ9Ik0xOTMuMTE2IDY1LjA5MDcgODE3LjEyNCA2NS41MDEzIiBzdHJva2U9IiNGRkZGRkYiIHN0cm9rZS13aWR0aD0iMTAuMjY2NyIgc3Ryb2tlLW1pdGVybGltaXQ9IjEwIiBzdHJva2UtZGFzaGFycmF5PSIzMC44IDMwLjgiIGZpbGw9Im5vbmUiIHRyYW5zZm9ybT0ibWF0cml4KDEuMDAwNDEgMCAwIDEgMTkuNzExOCAxOTIuNzExKSIvPjxwYXRoIGQ9Ik0xNDcuMTIxIDExNi42MjkgNDU5LjM2NSAxMTYuNjI5IiBzdHJva2U9IiNGRkZGRkYiIHN0cm9rZS13aWR0aD0iMTAuMjY2NyIgc3Ryb2tlLW1pdGVybGltaXQ9IjEwIiBmaWxsPSJub25lIiB0cmFuc2Zvcm09Im1hdHJpeCgxLjAwMDQxIDAgMCAxIDE5LjcxMTggMTkyLjcxMSkiLz48cGF0aCBkPSJNNDkxLjAyIDExOC45NTYgNzMwLjY3OSAxMTkuNzc4IiBzdHJva2U9IiNGRkZGRkYiIHN0cm9rZS13aWR0aD0iMTAuMjY2NyIgc3Ryb2tlLW1pdGVybGltaXQ9IjEwIiBzdHJva2UtZGFzaGFycmF5PSIzMC44IDMwLjgiIGZpbGw9Im5vbmUiIHRyYW5zZm9ybT0ibWF0cml4KDEuMDAwNDEgMCAwIDEgMTkuNzExOCAxOTIuNzExKSIvPjxwYXRoIGQ9Ik03MjMuODM0IDExOS43NzggMTA2OS40OCAxMTguOTU2IiBzdHJva2U9IiNGRkZGRkYiIHN0cm9rZS13aWR0aD0iMTAuMjY2NyIgc3Ryb2tlLW1pdGVybGltaXQ9IjEwIiBmaWxsPSJub25lIiB0cmFuc2Zvcm09Im1hdHJpeCgxLjAwMDQxIDAgMCAxIDE5LjcxMTggMTkyLjcxMSkiLz48cGF0aCBkPSJNNzAzLjQwNCA4OS4yNTE2IDcyMi42MDIgODkuMjUxNiIgc3Ryb2tlPSIjRkZGRkZGIiBzdHJva2Utd2lkdGg9IjMuNDIyMjIiIHN0cm9rZS1taXRlcmxpbWl0PSIxMCIgZmlsbD0ibm9uZSIgdHJhbnNmb3JtPSJtYXRyaXgoMS4wMDA0MSAwIDAgMSAxOS43MTE4IDE5Mi43MTEpIi8+PHBhdGggZD0iTTczMi44NjkgODkuMjUxNiA3MjIuNjAyIDkyLjY3MzggNzIyLjYwMiA4NS44MjkzWiIgc3Ryb2tlPSIjRkZGRkZGIiBzdHJva2Utd2lkdGg9IjMuNDIyMjIiIHN0cm9rZS1taXRlcmxpbWl0PSIxMCIgZmlsbD0iI0ZGRkZGRiIgdHJhbnNmb3JtPSJtYXRyaXgoMS4wMDA0MSAwIDAgMSAxOS43MTE4IDE5Mi43MTEpIi8+PHBhdGggZD0iTTc1OC41MzYgMzcuNDczMyA3NzcuNyAzNy40NzMzIiBzdHJva2U9IiNGRkZGRkYiIHN0cm9rZS13aWR0aD0iMy40MjIyMiIgc3Ryb2tlLW1pdGVybGltaXQ9IjEwIiBmaWxsPSJub25lIiB0cmFuc2Zvcm09Im1hdHJpeCgxLjAwMDQxIDAgMCAxIDE5LjcxMTggMTkyLjcxMSkiLz48cGF0aCBkPSJNNzg3Ljk2NyAzNy40NzMzIDc3Ny43IDQwLjg5NTYgNzc3LjcgMzQuMDUxMVoiIHN0cm9rZT0iI0ZGRkZGRiIgc3Ryb2tlLXdpZHRoPSIzLjQyMjIyIiBzdHJva2UtbWl0ZXJsaW1pdD0iMTAiIGZpbGw9IiNGRkZGRkYiIHRyYW5zZm9ybT0ibWF0cml4KDEuMDAwNDEgMCAwIDEgMTkuNzExOCAxOTIuNzExKSIvPjxwYXRoIGQ9Ik00MDAuNDM0IDM3LjA2MjcgNDE5LjU5OSAzNy4wNjI3IiBzdHJva2U9IiNGRkZGRkYiIHN0cm9rZS13aWR0aD0iMy40MjIyMiIgc3Ryb2tlLW1pdGVybGltaXQ9IjEwIiBmaWxsPSJub25lIiB0cmFuc2Zvcm09Im1hdHJpeCgxLjAwMDQxIDAgMCAxIDE5LjcxMTggMTkyLjcxMSkiLz48cGF0aCBkPSJNNDI5Ljg2NSAzNy4wNjI3IDQxOS41OTkgNDAuNDg0OSA0MTkuNTk5IDMzLjY0MDRaIiBzdHJva2U9IiNGRkZGRkYiIHN0cm9rZS13aWR0aD0iMy40MjIyMiIgc3Ryb2tlLW1pdGVybGltaXQ9IjEwIiBmaWxsPSIjRkZGRkZGIiB0cmFuc2Zvcm09Im1hdHJpeCgxLjAwMDQxIDAgMCAxIDE5LjcxMTggMTkyLjcxMSkiLz48cGF0aCBkPSJNODMwLjk4NCA2NS4wOTA3IDExMTYuNjQgNjUuMDkwNyIgc3Ryb2tlPSIjRkZGRkZGIiBzdHJva2Utd2lkdGg9IjEwLjI2NjciIHN0cm9rZS1taXRlcmxpbWl0PSIxMCIgZmlsbD0ibm9uZSIgdHJhbnNmb3JtPSJtYXRyaXgoMS4wMDA0MSAwIDAgMSAxOS43MTE4IDE5Mi43MTEpIi8+PHBhdGggZD0iTTczMC4zMDIgMTc4LjAyNCA3NjIuMyAxOTUuNjQ4Qzc4Mi4yODYgMjA2LjY2OCA3OTIuMjU2IDIxOS43ODcgNzkyLjIxIDIzNS4wMDRMNzkyLjE0MiAyNTcuNzk2IiBzdHJva2U9IiM4MDgwODAiIHN0cm9rZS13aWR0aD0iODUuNTU1NiIgc3Ryb2tlLW1pdGVybGltaXQ9IjEwIiBmaWxsPSJub25lIiB0cmFuc2Zvcm09Im1hdHJpeCgxLjAwMDQxIDAgMCAxIDE5LjcxMTggMTkyLjcxMSkiLz48cGF0aCBkPSJNNjE0LjMyMyAxNzguMDI0IDY1OC40MzYgMTk4LjA0NEM2NzkuMjIgMjA3LjQ2NyA2OTUuMjU5IDIyMC4wODMgNzA2LjU1MiAyMzUuODk0TDcyMy40OTIgMjU5LjYxIiBzdHJva2U9IiM4MDgwODAiIHN0cm9rZS13aWR0aD0iMTcuMTExMSIgc3Ryb2tlLW1pdGVybGltaXQ9IjEwIiBmaWxsPSJub25lIiB0cmFuc2Zvcm09Im1hdHJpeCgxLjAwMDQxIDAgMCAxIDE5LjcxMTggMTkyLjcxMSkiLz48cGF0aCBkPSJNNjk2LjQ1NiAxNzEuMTExIDcyOC40NTQgMTg4LjczNkM3NDguNDQgMTk5Ljc1NSA3NTguNDEgMjEyLjg3NCA3NTguMzY0IDIyOC4wOTFMNzU4LjI5NiAyNTAuODgzIiBzdHJva2U9IiM4MDgwODAiIHN0cm9rZS13aWR0aD0iMTcuMTExMSIgc3Ryb2tlLW1pdGVybGltaXQ9IjEwIiBmaWxsPSJub25lIiB0cmFuc2Zvcm09Im1hdHJpeCgxLjAwMDQxIDAgMCAxIDE5LjcxMTggMTkyLjcxMSkiLz48cGF0aCBkPSJNNzcxLjc0NSAxNDAuMzExIDc5Ny40MTIgMTYwLjg0NEM4MTQuNTIzIDE3NC41MzMgODI1LjkzMSAxODkuMzYzIDgzMS42MzQgMjA1LjMzM0w4MzUuOTEyIDIxNy4zMTFDODM4Ljc2NCAyMjUuMjk2IDg0MC4wOTkgMjM0LjI2MyA4MzkuOTE2IDI0NC4yMUw4MzkuNjQyIDI1OS4wOTYiIHN0cm9rZT0iIzgwODA4MCIgc3Ryb2tlLXdpZHRoPSIxNy4xMTExIiBzdHJva2UtbWl0ZXJsaW1pdD0iMTAiIGZpbGw9Im5vbmUiIHRyYW5zZm9ybT0ibWF0cml4KDEuMDAwNDEgMCAwIDEgMTkuNzExOCAxOTIuNzExKSIvPjxwYXRoIGQ9Ik03OTUuNzAxIDE2NC4yNjcgODE0LjcyOCAxODguMzU5QzgyNy4zOTEgMjA0LjQyMSA4MzMuNjk5IDIyMC4wNiA4MzMuNjUzIDIzNS4yNzhMODMzLjU4NSAyNTguMDciIHN0cm9rZT0iI0ZGRkZGRiIgc3Ryb2tlLXdpZHRoPSIxMC4yNjY3IiBzdHJva2UtbWl0ZXJsaW1pdD0iMTAiIGZpbGw9Im5vbmUiIHRyYW5zZm9ybT0ibWF0cml4KDEuMDAwNDEgMCAwIDEgMTkuNzExOCAxOTIuNzExKSIvPjxwYXRoIGQ9Ik03MDMuMzAxIDExOS43NzggNzM1LjgxMiAxMzAuMDQ0Qzc1Ny40ODYgMTM2Ljg4OSA3NzMuNDU2IDE0NC44NzQgNzgzLjcyMyAxNTRMNzk5LjEyMyAxNjcuNjg5IiBzdHJva2U9IiNGRkZGRkYiIHN0cm9rZS13aWR0aD0iMTAuMjY2NyIgc3Ryb2tlLW1pdGVybGltaXQ9IjEwIiBmaWxsPSJub25lIiB0cmFuc2Zvcm09Im1hdHJpeCgxLjAwMDQxIDAgMCAxIDE5LjcxMTggMTkyLjcxMSkiLz48cGF0aCBkPSJNMzQ3LjM5IDkyLjEyNjIgMzg3LjgwNiA5Mi4zMzE2IiBzdHJva2U9IiNGRkZGRkYiIHN0cm9rZS13aWR0aD0iMy40MjIyMiIgc3Ryb2tlLW1pdGVybGltaXQ9IjEwIiBmaWxsPSJub25lIiB0cmFuc2Zvcm09Im1hdHJpeCgxLjAwMDQxIDAgMCAxIDE5LjcxMTggMTkyLjcxMSkiLz48cGF0aCBkPSJNMzk4LjA3MyA5Mi4zNjU4IDM4Ny44MDYgOTUuNzUzOCAzODcuODQgODguOTA5M1oiIHN0cm9rZT0iI0ZGRkZGRiIgc3Ryb2tlLXdpZHRoPSIzLjQyMjIyIiBzdHJva2UtbWl0ZXJsaW1pdD0iMTAiIGZpbGw9IiNGRkZGRkYiIHRyYW5zZm9ybT0ibWF0cml4KDEuMDAwNDEgMCAwIDEgMTkuNzExOCAxOTIuNzExKSIvPjxwYXRoIGQ9Ik02NjQuODY5IDE3OC4yOTggNjk2LjU1OSAxOTUuODg4QzcxNi40OTkgMjA2Ljk3NiA3MjYuNTE1IDIyMC4xMTcgNzI2LjYwNiAyMzUuMzEyTDcyNi43MDkgMjU4LjA3IiBzdHJva2U9IiM4MDgwODAiIHN0cm9rZS13aWR0aD0iMTcuMTExMSIgc3Ryb2tlLW1pdGVybGltaXQ9IjEwIiBmaWxsPSJub25lIiB0cmFuc2Zvcm09Im1hdHJpeCgxLjAwMDQxIDAgMCAxIDE5LjcxMTggMTkyLjcxMSkiLz48cGF0aCBkPSJNNDMxLjk4NyAxMTYuNjI5QzQ1Mi4zMTUgMTE2LjYyOSA0ODIuNjU5IDEyMy40MjggNTIzLjAxOCAxMzcuMDI2IDU2My4zNTUgMTUwLjYyMyA2MDUuMTk3IDE2NS45NzggNjQ4LjU0NSAxODMuMDg5IDY5MS44OTMgMjAwLjIgNzE4LjQ1IDIyNC40MTggNzI4LjIxNSAyNTUuNzQzIiBzdHJva2U9IiNGRkZGRkYiIHN0cm9rZS13aWR0aD0iMTAuMjY2NyIgc3Ryb2tlLW1pdGVybGltaXQ9IjEwIiBmaWxsPSJub25lIiB0cmFuc2Zvcm09Im1hdHJpeCgxLjAwMDQxIDAgMCAxIDE5LjcxMTggMTkyLjcxMSkiLz48cGF0aCBkPSJNMzY0LjUwMSA5Mi40IDM4MC4xNzUgMTAyLjE1MyIgc3Ryb2tlPSIjRkZGRkZGIiBzdHJva2Utd2lkdGg9IjMuNDIyMjIiIHN0cm9rZS1taXRlcmxpbWl0PSIxMCIgZmlsbD0ibm9uZSIgdHJhbnNmb3JtPSJtYXRyaXgoMS4wMDA0MSAwIDAgMSAxOS43MTE4IDE5Mi43MTEpIi8+PHBhdGggZD0iTTM4OC45MDEgMTA3LjU2IDM3OC4zOTUgMTA1LjA2MiAzODEuOTg4IDk5LjI0NDRaIiBzdHJva2U9IiNGRkZGRkYiIHN0cm9rZS13aWR0aD0iMy40MjIyMiIgc3Ryb2tlLW1pdGVybGltaXQ9IjEwIiBmaWxsPSIjRkZGRkZGIiB0cmFuc2Zvcm09Im1hdHJpeCgxLjAwMDQxIDAgMCAxIDE5LjcxMTggMTkyLjcxMSkiLz48cGF0aCBkPSJNNzMyLjM1NiAyMjkuMjg5IDc1Mi44ODkgMjI5LjI4OSA3NTIuODg5IDI1Ni42NjcgNzMyLjM1NiAyNTYuNjY3WiIgZmlsbD0iIzgwODA4MCIgdHJhbnNmb3JtPSJtYXRyaXgoMS4wMDA0MSAwIDAgMSAxOS43MTE4IDE5Mi43MTEpIi8+PHBhdGggZD0iTTY5MC45MTIgMTc2Ljg5NSA3MjIuOTEgMTk0LjUxOUM3NDIuODk2IDIwNS41MzkgNzUyLjg2NiAyMTguNjU3IDc1Mi44MiAyMzMuODc1TDc1Mi43NTIgMjU2LjY2NyIgc3Ryb2tlPSIjODA4MDgwIiBzdHJva2Utd2lkdGg9IjE3LjExMTEiIHN0cm9rZS1taXRlcmxpbWl0PSIxMCIgZmlsbD0ibm9uZSIgdHJhbnNmb3JtPSJtYXRyaXgoMS4wMDA0MSAwIDAgMSAxOS43MTE4IDE5Mi43MTEpIi8+PC9nPjwvZz48L2c+PHBhdGggZD0iTTQ4MyAzNzkgNjc0LjI0IDIxMyAxMTgyIDIxMyA5OTAuNzYgMzc5WiIgZmlsbD0iIzFCQTFFMiIgZmlsbC1ydWxlPSJldmVub2RkIiBmaWxsLW9wYWNpdHk9IjAuNzAxOTYxIi8+PHBhdGggZD0iTTY1NS45NzMgMzc3LjUyMSA4NDUuNTUyIDM3OC41NjMgODUxLjUzOSAzNzguMDQyIDg2MS4wMTggNDAwLjQzOCA4NjUuNTA4IDQwOS44MTMgODY3LjUwMyA0MjMuODc1IDg2OSA0MzcuNDE3IDg2OSA0NTIgNzMzLjMwMiA0NTAuOTU4IDcwOS4zNTUgNDE2LjA2MyA2OTguMzc5IDQwNy43MjkgNjg2LjQwNiAzOTguMzU0IDY3Mi40MzcgMzkyLjEwNCA2NTQuNDc3IDM4My43NzEgNjQ2Ljk5MyAzODAuMTI1IDY0NCAzNzcgNjU1Ljk3MyAzNzcuNTIxWiIgZmlsbD0iIzFCQTFFMiIgZmlsbC1ydWxlPSJldmVub2RkIiBmaWxsLW9wYWNpdHk9IjAuNjk4MDM5Ii8+PC9nPjwvc3ZnPg==;" parent="rcA1wXQUjvKvjiEHoA8G-1" vertex="1">
          <mxGeometry x="230" y="345" width="343" height="77.18" as="geometry" />
        </mxCell>
        <mxCell id="rcA1wXQUjvKvjiEHoA8G-4" value="" style="group;fillColor=#ffffff;" parent="rcA1wXQUjvKvjiEHoA8G-1" vertex="1" connectable="0">
          <mxGeometry x="374" y="240" width="101.70000000000003" height="51.42" as="geometry" />
        </mxCell>
        <mxCell id="rcA1wXQUjvKvjiEHoA8G-5" value="" style="rounded=1;align=center;verticalAlign=middle;fontSize=9;fontStyle=0;strokeColor=#d6b656;fillColor=#fff2cc;" parent="rcA1wXQUjvKvjiEHoA8G-4" vertex="1">
          <mxGeometry x="-2.68" width="101.70000000000003" height="51.41999999999999" as="geometry" />
        </mxCell>
        <mxCell id="rcA1wXQUjvKvjiEHoA8G-6" value="" style="aspect=fixed;perimeter=ellipsePerimeter;align=center;shadow=0;dashed=0;spacingTop=3;image;image=img/lib/active_directory/database_server.svg;strokeColor=#FF33FF;strokeWidth=3;fillColor=none;gradientColor=#ffffff;" parent="rcA1wXQUjvKvjiEHoA8G-4" vertex="1">
          <mxGeometry x="58.616347358997324" y="7.818835060207233" width="29.51862223466815" height="35.998319798375796" as="geometry" />
        </mxCell>
        <mxCell id="rcA1wXQUjvKvjiEHoA8G-7" value="Shared &#xa;Database &#xa;Server" style="text;resizable=0;autosize=1;align=left;verticalAlign=middle;points=[];fillColor=none;strokeColor=none;rounded=0;fontSize=10;" parent="rcA1wXQUjvKvjiEHoA8G-4" vertex="1">
          <mxGeometry x="-5.1514348342607263e-14" y="2.0023522822738844" width="53" height="37" as="geometry" />
        </mxCell>
        <mxCell id="rcA1wXQUjvKvjiEHoA8G-8" value="" style="shape=image;verticalAlign=top;verticalLabelPosition=bottom;labelBackgroundColor=#ffffff;imageAspect=0;aspect=fixed;image=https://cdn2.iconfinder.com/data/icons/flat-ui-4/100/Antenna-128.png;strokeColor=#FF33FF;strokeWidth=3;fillColor=none;gradientColor=#ffffff;rotation=0;" parent="rcA1wXQUjvKvjiEHoA8G-1" vertex="1">
          <mxGeometry x="409.99999999999994" y="214.32" width="29.68" height="29.68" as="geometry" />
        </mxCell>
        <mxCell id="rcA1wXQUjvKvjiEHoA8G-9" value="" style="endArrow=blockThin;dashed=1;fontSize=10;exitX=0.74;exitY=0.097;exitDx=0;exitDy=0;exitPerimeter=0;startArrow=blockThin;startFill=0;endFill=0;entryX=0.019;entryY=0.965;entryDx=0;entryDy=0;entryPerimeter=0;" parent="rcA1wXQUjvKvjiEHoA8G-1" source="rcA1wXQUjvKvjiEHoA8G-27" target="rcA1wXQUjvKvjiEHoA8G-5" edge="1">
          <mxGeometry width="50" height="50" relative="1" as="geometry">
            <mxPoint x="348.7797408217666" y="369.31547086625847" as="sourcePoint" />
            <mxPoint x="375" y="288" as="targetPoint" />
          </mxGeometry>
        </mxCell>
        <mxCell id="rcA1wXQUjvKvjiEHoA8G-10" value="" style="endArrow=block;dashed=1;fontSize=10;entryX=0;entryY=0;entryDx=0;entryDy=0;exitX=0.984;exitY=0.952;exitDx=0;exitDy=0;startArrow=block;startFill=0;endFill=0;exitPerimeter=0;" parent="rcA1wXQUjvKvjiEHoA8G-1" source="rcA1wXQUjvKvjiEHoA8G-5" target="rcA1wXQUjvKvjiEHoA8G-3" edge="1">
          <mxGeometry width="50" height="50" relative="1" as="geometry">
            <mxPoint x="362.30474636141776" y="363.7486553315996" as="sourcePoint" />
            <mxPoint x="353.7868000000001" y="317.54585999999995" as="targetPoint" />
          </mxGeometry>
        </mxCell>
        <mxCell id="rcA1wXQUjvKvjiEHoA8G-12" value="" style="endArrow=blockThin;dashed=1;fontSize=10;entryX=0.341;entryY=1.031;entryDx=0;entryDy=0;startArrow=none;startFill=0;endFill=0;exitX=0.921;exitY=0.207;exitDx=0;exitDy=0;exitPerimeter=0;entryPerimeter=0;" parent="rcA1wXQUjvKvjiEHoA8G-1" source="rcA1wXQUjvKvjiEHoA8G-2" target="rcA1wXQUjvKvjiEHoA8G-3" edge="1">
          <mxGeometry width="50" height="50" relative="1" as="geometry">
            <mxPoint x="462.98288" y="375.97368000000006" as="sourcePoint" />
            <mxPoint x="387.7868000000001" y="317.54585999999995" as="targetPoint" />
          </mxGeometry>
        </mxCell>
        <mxCell id="rcA1wXQUjvKvjiEHoA8G-14" value="" style="endArrow=blockThin;dashed=1;fontSize=10;entryX=0.25;entryY=1;entryDx=0;entryDy=0;startArrow=blockThin;startFill=0;endFill=0;exitX=0.684;exitY=0.031;exitDx=0;exitDy=0;exitPerimeter=0;" parent="rcA1wXQUjvKvjiEHoA8G-1" source="rcA1wXQUjvKvjiEHoA8G-21" target="rcA1wXQUjvKvjiEHoA8G-5" edge="1">
          <mxGeometry width="50" height="50" relative="1" as="geometry">
            <mxPoint x="397.5050000000001" y="396" as="sourcePoint" />
            <mxPoint x="352.7868000000001" y="327.54586000000006" as="targetPoint" />
          </mxGeometry>
        </mxCell>
        <mxCell id="rcA1wXQUjvKvjiEHoA8G-15" value="" style="endArrow=blockThin;dashed=1;fontSize=10;exitX=0.25;exitY=0;exitDx=0;exitDy=0;startArrow=blockThin;startFill=0;endFill=0;" parent="rcA1wXQUjvKvjiEHoA8G-1" source="rcA1wXQUjvKvjiEHoA8G-24" edge="1">
          <mxGeometry width="50" height="50" relative="1" as="geometry">
            <mxPoint x="431.0102496625864" y="370.9960434412933" as="sourcePoint" />
            <mxPoint x="422" y="292" as="targetPoint" />
          </mxGeometry>
        </mxCell>
        <mxCell id="rcA1wXQUjvKvjiEHoA8G-16" value="" style="group;" parent="rcA1wXQUjvKvjiEHoA8G-1" vertex="1" connectable="0">
          <mxGeometry x="465" y="348" width="41.12" height="47.86" as="geometry" />
        </mxCell>
        <mxCell id="rcA1wXQUjvKvjiEHoA8G-17" value="" style="shape=image;verticalAlign=top;verticalLabelPosition=bottom;labelBackgroundColor=#ffffff;imageAspect=0;aspect=fixed;image=https://cdn1.iconfinder.com/data/icons/computer-hardware-line-vol-2/52/signal__device__technology__radar__satellite__antenna__tower-128.png;strokeColor=#FF33FF;strokeWidth=3;fillColor=none;gradientColor=#ffffff;" parent="rcA1wXQUjvKvjiEHoA8G-16" vertex="1">
          <mxGeometry x="10.707349729866829" y="7.130116213510293" width="15.918259931735355" height="15.918259931735355" as="geometry" />
        </mxCell>
        <mxCell id="rcA1wXQUjvKvjiEHoA8G-18" value="" style="shape=image;verticalAlign=top;verticalLabelPosition=bottom;labelBackgroundColor=#ffffff;imageAspect=0;aspect=fixed;image=https://cdn0.iconfinder.com/data/icons/isometric-city-basic-transport/480/car-taxi-front-01-128.png;strokeColor=#FF33FF;strokeWidth=3;fillColor=none;gradientColor=#ffffff;rotation=-30;" parent="rcA1wXQUjvKvjiEHoA8G-16" vertex="1">
          <mxGeometry x="5.509035396383914" y="6.9744010318359235" width="30.10192920723228" height="30.10192920723228" as="geometry" />
        </mxCell>
        <mxCell id="rcA1wXQUjvKvjiEHoA8G-19" value="" style="group;" parent="rcA1wXQUjvKvjiEHoA8G-1" vertex="1" connectable="0">
          <mxGeometry x="373" y="349" width="41.12" height="47.86" as="geometry" />
        </mxCell>
        <mxCell id="rcA1wXQUjvKvjiEHoA8G-20" value="" style="shape=image;verticalAlign=top;verticalLabelPosition=bottom;labelBackgroundColor=#ffffff;imageAspect=0;aspect=fixed;image=https://cdn1.iconfinder.com/data/icons/computer-hardware-line-vol-2/52/signal__device__technology__radar__satellite__antenna__tower-128.png;strokeColor=#FF33FF;strokeWidth=3;fillColor=none;gradientColor=#ffffff;" parent="rcA1wXQUjvKvjiEHoA8G-19" vertex="1">
          <mxGeometry x="10.71" y="7" width="16.05" height="16.05" as="geometry" />
        </mxCell>
        <mxCell id="rcA1wXQUjvKvjiEHoA8G-21" value="" style="shape=image;verticalAlign=top;verticalLabelPosition=bottom;labelBackgroundColor=#ffffff;imageAspect=0;aspect=fixed;image=https://cdn0.iconfinder.com/data/icons/isometric-city-basic-transport/480/car-taxi-front-01-128.png;strokeColor=#FF33FF;strokeWidth=3;fillColor=none;gradientColor=#ffffff;rotation=-30;" parent="rcA1wXQUjvKvjiEHoA8G-19" vertex="1">
          <mxGeometry x="5.509035396383914" y="6.9744010318359235" width="30.10192920723228" height="30.10192920723228" as="geometry" />
        </mxCell>
        <mxCell id="rcA1wXQUjvKvjiEHoA8G-22" value="" style="group" parent="rcA1wXQUjvKvjiEHoA8G-1" vertex="1" connectable="0">
          <mxGeometry x="424.99774896200654" y="381.9977489620066" width="37.610955391666494" height="37.610955391666494" as="geometry" />
        </mxCell>
        <mxCell id="rcA1wXQUjvKvjiEHoA8G-23" value="" style="shape=image;verticalAlign=top;verticalLabelPosition=bottom;labelBackgroundColor=#ffffff;imageAspect=0;aspect=fixed;image=https://cdn1.iconfinder.com/data/icons/computer-hardware-line-vol-2/52/signal__device__technology__radar__satellite__antenna__tower-128.png;strokeColor=#FF33FF;strokeWidth=3;fillColor=none;gradientColor=#ffffff;" parent="rcA1wXQUjvKvjiEHoA8G-22" vertex="1">
          <mxGeometry x="6.332251037993444" y="0.5722510379933965" width="16.05" height="16.05" as="geometry" />
        </mxCell>
        <mxCell id="rcA1wXQUjvKvjiEHoA8G-24" value="" style="shape=image;verticalAlign=top;verticalLabelPosition=bottom;labelBackgroundColor=#ffffff;imageAspect=0;aspect=fixed;image=https://cdn0.iconfinder.com/data/icons/isometric-city-basic-transport/480/car-front-02-128.png;strokeColor=#FF33FF;strokeWidth=3;fillColor=none;gradientColor=#ffffff;rotation=10;" parent="rcA1wXQUjvKvjiEHoA8G-22" vertex="1">
          <mxGeometry x="2.5722510379933965" y="2.5722510379933965" width="32.466453315679715" height="32.466453315679715" as="geometry" />
        </mxCell>
        <mxCell id="rcA1wXQUjvKvjiEHoA8G-25" value="" style="group" parent="rcA1wXQUjvKvjiEHoA8G-1" vertex="1" connectable="0">
          <mxGeometry x="304.99774896200654" y="354.42774896200666" width="37.610955391666494" height="37.610955391666494" as="geometry" />
        </mxCell>
        <mxCell id="rcA1wXQUjvKvjiEHoA8G-26" value="" style="shape=image;verticalAlign=top;verticalLabelPosition=bottom;labelBackgroundColor=#ffffff;imageAspect=0;aspect=fixed;image=https://cdn1.iconfinder.com/data/icons/computer-hardware-line-vol-2/52/signal__device__technology__radar__satellite__antenna__tower-128.png;strokeColor=#FF33FF;strokeWidth=3;fillColor=none;gradientColor=#ffffff;" parent="rcA1wXQUjvKvjiEHoA8G-25" vertex="1">
          <mxGeometry x="6.332251037993444" y="0.5722510379933965" width="16.05" height="16.05" as="geometry" />
        </mxCell>
        <mxCell id="rcA1wXQUjvKvjiEHoA8G-27" value="" style="shape=image;verticalAlign=top;verticalLabelPosition=bottom;labelBackgroundColor=#ffffff;imageAspect=0;aspect=fixed;image=https://cdn0.iconfinder.com/data/icons/isometric-city-basic-transport/480/car-front-02-128.png;strokeColor=#FF33FF;strokeWidth=3;fillColor=none;gradientColor=#ffffff;rotation=-30;" parent="rcA1wXQUjvKvjiEHoA8G-25" vertex="1">
          <mxGeometry x="0.5722510379933965" y="-0.4277489620066035" width="32.466453315679715" height="32.466453315679715" as="geometry" />
        </mxCell>
        <mxCell id="rcA1wXQUjvKvjiEHoA8G-28" value="" style="endArrow=blockThin;dashed=1;fontSize=10;entryX=0.75;entryY=1;entryDx=0;entryDy=0;exitX=0.581;exitY=0.016;exitDx=0;exitDy=0;startArrow=blockThin;startFill=0;endFill=0;exitPerimeter=0;" parent="rcA1wXQUjvKvjiEHoA8G-1" source="rcA1wXQUjvKvjiEHoA8G-18" target="rcA1wXQUjvKvjiEHoA8G-5" edge="1">
          <mxGeometry width="50" height="50" relative="1" as="geometry">
            <mxPoint x="448.6287931501055" y="393.40718407540055" as="sourcePoint" />
            <mxPoint x="406.7677" y="322.28337999999997" as="targetPoint" />
          </mxGeometry>
        </mxCell>
        <mxCell id="rcA1wXQUjvKvjiEHoA8G-29" value="" style="endArrow=classicThin;fillColor=#dae8fc;endFill=1;" parent="rcA1wXQUjvKvjiEHoA8G-1" edge="1">
          <mxGeometry width="50" height="50" relative="1" as="geometry">
            <mxPoint x="401" y="410" as="sourcePoint" />
            <mxPoint x="423.0799999999999" y="403" as="targetPoint" />
          </mxGeometry>
        </mxCell>
        <mxCell id="rcA1wXQUjvKvjiEHoA8G-30" value="off-ramp" style="edgeLabel;align=center;verticalAlign=middle;resizable=0;points=[];fontFamily=Helvetica;fontSize=8;labelBackgroundColor=none;" parent="rcA1wXQUjvKvjiEHoA8G-29" vertex="1" connectable="0">
          <mxGeometry x="-0.7544" y="-1" relative="1" as="geometry">
            <mxPoint x="-8.429999999999998" y="2.8899999999999997" as="offset" />
          </mxGeometry>
        </mxCell>
        <mxCell id="rcA1wXQUjvKvjiEHoA8G-31" value="low friction region(e.g. ice, snow, water)" style="edgeLabel;align=center;verticalAlign=middle;resizable=0;points=[];fontFamily=Helvetica;fontSize=8;labelBackgroundColor=none;fontColor=#1BA1E2;" parent="rcA1wXQUjvKvjiEHoA8G-1" vertex="1" connectable="0">
          <mxGeometry x="401.32066210470447" y="436.00122380615085" as="geometry" />
        </mxCell>
        <mxCell id="rcA1wXQUjvKvjiEHoA8G-32" value="" style="shape=parallelogram;perimeter=parallelogramPerimeter;fixedSize=1;fontFamily=Times New Roman;size=16.044270098286347;labelBorderColor=none;fontColor=#ffffff;strokeColor=none;opacity=70;fillColor=#1BA1E2;" parent="rcA1wXQUjvKvjiEHoA8G-1" vertex="1">
          <mxGeometry x="286.68" y="429.30999999999995" width="46.49" height="13.39" as="geometry" />
        </mxCell>
        <mxCell id="rcA1wXQUjvKvjiEHoA8G-33" value="" style="group;fontSize=9;" parent="rcA1wXQUjvKvjiEHoA8G-1" vertex="1" connectable="0">
          <mxGeometry x="492.18" y="310" width="91.68" height="27.69" as="geometry" />
        </mxCell>
        <mxCell id="rcA1wXQUjvKvjiEHoA8G-3" value="" style="rounded=1;align=center;verticalAlign=middle;fontSize=9;fontStyle=0;strokeColor=#666666;fontColor=#333333;fillColor=#f5f5f5;" parent="rcA1wXQUjvKvjiEHoA8G-33" vertex="1">
          <mxGeometry width="83.8776682295817" height="27.69" as="geometry" />
        </mxCell>
        <mxCell id="rcA1wXQUjvKvjiEHoA8G-11" value="Road Side Friction &#xa;Measurement Unit" style="text;resizable=0;autosize=1;align=center;verticalAlign=middle;points=[];fillColor=none;strokeColor=none;rounded=0;fontSize=8;" parent="rcA1wXQUjvKvjiEHoA8G-33" vertex="1">
          <mxGeometry x="0.0025252506532432717" y="4.611072752961896" width="80" height="20" as="geometry" />
        </mxCell>
      </root>
    </mxGraphModel>
  </diagram>
</mxfile>
